<svg width="43" height="73" viewBox="0 0 43 73" fill="none" xmlns="http://www.w3.org/2000/svg">
<path d="M19.9464 1.11323C20.594 1.01373 21.2482 0.963171 21.9034 0.961975C26.4634 0.961975 30.8448 1.27961 34.5308 4.13833C37.9888 6.81927 40.5529 10.4766 41.8876 14.6316C40.8979 14.3087 39.9461 13.8802 39.049 13.3535C39.9344 13.8716 41.2568 21.6726 38.669 29.8328L3.22641 29.4168C3.01741 28.6908 3.34421 27.8362 3.37461 27.1139C3.35563 26.3094 3.23563 25.5104 3.01741 24.7355C2.58618 22.7265 2.3432 20.6821 2.2916 18.6285C2.246 15.3501 3.05161 12.238 4.27901 9.23562C5.01241 7.45081 5.87881 5.6055 7.45961 4.49378C9.04041 3.38205 11.5484 3.35937 12.677 4.91351C14.6063 2.87528 17.1651 1.53759 19.9464 1.11323Z" fill="#725858"/>
<path d="M38.6652 30.1996L3.22642 29.7949C3.14436 29.7939 3.06485 29.7664 2.99978 29.7167C2.9347 29.6669 2.88757 29.5975 2.86542 29.5189C2.75106 28.9624 2.76274 28.3876 2.89962 27.8362C2.94981 27.5866 2.98282 27.334 2.99841 27.0799C2.99789 26.4848 2.91868 25.8923 2.76282 25.3178C2.72482 25.1439 2.68301 24.9661 2.64881 24.7884C2.21232 22.7572 1.96679 20.6899 1.91542 18.6134C1.87362 15.5883 2.53102 12.4649 3.92942 9.07303C4.65522 7.31847 5.56722 5.34459 7.24682 4.15724C8.81622 3.05308 11.328 2.90182 12.6998 4.31984C14.6481 2.39166 17.1618 1.12968 19.878 0.716191C20.5446 0.614764 21.2177 0.561684 21.892 0.557373C26.2886 0.557373 30.9018 0.825851 34.755 3.81314C38.2759 6.5483 40.8883 10.2744 42.2524 14.5069C42.2735 14.5733 42.2758 14.6444 42.2589 14.712C42.242 14.7797 42.2066 14.8414 42.1566 14.8903C42.1067 14.9392 42.0441 14.9735 41.9759 14.9892C41.9076 15.0049 41.8363 15.0016 41.7698 14.9795C41.1373 14.7671 40.5192 14.5145 39.9192 14.2233C40.759 16.9156 41.0592 23.4876 39.03 29.9235C39.0077 30.0028 38.96 30.0726 38.8941 30.1224C38.8283 30.1722 38.7479 30.1993 38.6652 30.1996ZM3.54942 29.0425L38.3878 29.4206C40.8198 21.5175 39.5658 14.2459 38.8514 13.6447C38.7664 13.593 38.7053 13.5101 38.6811 13.4139C38.6569 13.3177 38.6717 13.2159 38.7222 13.1304C38.7736 13.0442 38.8573 12.9818 38.955 12.957C39.0526 12.9322 39.1561 12.947 39.2428 12.9981C39.8939 13.38 40.5751 13.7088 41.2796 13.9812C39.8976 10.2045 37.4744 6.89156 34.2876 4.42194C30.6244 1.58213 26.1556 1.33634 21.892 1.32499H21.8654C21.2394 1.32711 20.6144 1.37641 19.9958 1.47247C17.2985 1.8868 14.8197 3.19206 12.9582 5.17821C12.9198 5.21954 12.8727 5.25183 12.8202 5.27271C12.7676 5.2936 12.7111 5.30256 12.6547 5.29893C12.5982 5.29531 12.5433 5.2792 12.4939 5.25177C12.4445 5.22434 12.4019 5.18629 12.3692 5.1404C11.3508 3.72238 9.08221 3.82826 7.68381 4.81142C6.16381 5.87398 5.34681 7.65501 4.64381 9.38688C3.28341 12.6805 2.64502 15.7056 2.68682 18.6286C2.73832 20.663 2.97874 22.6884 3.40502 24.6787C3.43922 24.8527 3.47721 25.0229 3.51521 25.193C3.6879 25.8303 3.77354 26.4879 3.76981 27.148C3.7518 27.4287 3.71499 27.7079 3.65962 27.9837C3.58242 28.3313 3.54545 28.6865 3.54942 29.0425Z" fill="black"/>
<path d="M40.6374 58.6241V65.51C38.7923 66.9989 36.7786 68.268 34.6372 69.2914C33.9203 69.6368 33.1882 69.9519 32.4408 70.2367C31.0958 70.7584 29.7139 71.1805 28.3064 71.4997C27.896 71.598 27.4856 71.6812 27.0676 71.7531C26.2088 71.9169 25.3361 72.043 24.4494 72.1312C23.6894 72.2106 22.8914 72.2522 22.0972 72.2673C21.8844 72.2673 21.6754 72.2673 21.4626 72.2673C21.2498 72.2673 21.0142 72.2673 20.7938 72.2673C20.011 72.2522 19.2384 72.2068 18.4758 72.1312C17.5917 72.048 16.719 71.922 15.8576 71.7531C15.4396 71.6812 15.0292 71.598 14.6188 71.4997C13.2127 71.1816 11.8321 70.7607 10.4882 70.2405C9.74343 69.9531 9.0113 69.638 8.29183 69.2952C6.15048 68.2717 4.13674 67.0027 2.29163 65.5138V58.6241C2.29163 50.1274 8.09802 43.2339 15.2648 43.2339H27.6604C34.831 43.2339 40.6374 50.1274 40.6374 58.6241Z" fill="#D9D9D9"/>
<path d="M21.4664 72.6492C21.2384 72.6492 21.0104 72.6492 20.7862 72.6492C20.0262 72.6492 19.2244 72.5887 18.4416 72.5093C17.5638 72.4261 16.6708 72.3013 15.7816 72.1312C15.337 72.0518 14.9266 71.9686 14.5238 71.8741C13.1011 71.5497 11.7041 71.1225 10.3438 70.596C9.58381 70.2972 8.82381 69.9758 8.12081 69.6393C5.95078 68.6015 3.91023 67.3147 2.04081 65.805C1.99722 65.7698 1.962 65.7254 1.93769 65.6751C1.91338 65.6247 1.90058 65.5696 1.90021 65.5138V58.6241C1.90021 49.927 7.88901 42.8558 15.2534 42.8558H27.649C35.0134 42.8558 41.0022 49.9308 41.0022 58.6241V65.51C41.0018 65.5659 40.989 65.6209 40.9647 65.6713C40.9404 65.7216 40.9052 65.766 40.8616 65.8012C38.9922 67.3109 36.9516 68.5978 34.7816 69.6355C34.0862 69.972 33.3376 70.2934 32.5586 70.5922C31.1985 71.1192 29.8014 71.5463 28.3786 71.8703C27.9796 71.9648 27.5692 72.048 27.1208 72.1274C26.243 72.29 25.35 72.4148 24.4608 72.5055C23.7008 72.585 22.9104 72.6303 22.082 72.6455C21.8958 72.6455 21.683 72.6492 21.4664 72.6492ZM2.67541 65.3285C4.46067 66.751 6.40219 67.9675 8.46281 68.9548C9.14301 69.28 9.87261 69.5939 10.6326 69.8888C11.9578 70.4028 13.3194 70.8186 14.7062 71.1329C15.0862 71.2237 15.4928 71.3069 15.926 71.3825C16.7886 71.5413 17.6588 71.6661 18.5176 71.7606C19.2776 71.84 20.0376 71.8854 20.7976 71.8967C21.227 71.8967 21.6526 71.8967 22.082 71.8967C22.8952 71.8967 23.6742 71.8362 24.4038 71.7606C25.2664 71.6812 26.1366 71.5564 26.9954 71.3825C27.4324 71.3069 27.8314 71.2237 28.2152 71.1329C29.6034 70.8191 30.9663 70.4033 32.2926 69.8888C33.0526 69.5939 33.7822 69.28 34.4624 68.9548C36.523 67.9675 38.4646 66.751 40.2498 65.3285V58.6241C40.2498 50.3467 34.5992 43.6121 27.6566 43.6121H15.2686C8.32601 43.6121 2.67541 50.3467 2.67541 58.6241V65.3285Z" fill="black"/>
<path d="M19.5664 64.5193C19.5115 64.5193 19.4573 64.5075 19.4074 64.4846C19.3576 64.4618 19.3133 64.4285 19.2776 64.3869L10.9404 54.6537C10.8763 54.5789 10.8441 54.4821 10.8504 54.384C10.8568 54.2859 10.9014 54.1941 10.9746 54.1281L14.5694 50.8383L10.5224 49.3711C10.4658 49.3505 10.4148 49.3168 10.3739 49.2728C10.3329 49.2287 10.3031 49.1756 10.2868 49.1178C10.2707 49.0603 10.2685 48.9998 10.2804 48.9413C10.2923 48.8828 10.3179 48.828 10.3552 48.7812L15.0064 42.9919C15.0697 42.9146 15.1611 42.8652 15.2607 42.8546C15.3603 42.844 15.4602 42.873 15.5384 42.9352C15.6167 42.9976 15.6671 43.0883 15.6785 43.1874C15.6898 43.2866 15.6614 43.3862 15.5992 43.4646L11.2938 48.8342L15.432 50.3467C15.4928 50.3693 15.5467 50.407 15.5887 50.4561C15.6306 50.5053 15.6593 50.5643 15.6718 50.6276C15.6844 50.6909 15.6805 50.7564 15.6605 50.8177C15.6404 50.8791 15.605 50.9343 15.5574 50.9782L11.7574 54.4419L19.8552 63.8954C19.9024 63.9503 19.9329 64.0175 19.9428 64.0891C19.9528 64.1607 19.942 64.2337 19.9116 64.2994C19.8812 64.365 19.8325 64.4206 19.7714 64.4596C19.7102 64.4986 19.6391 64.5193 19.5664 64.5193Z" fill="black"/>
<path d="M23.3664 64.5193C23.2938 64.5193 23.2226 64.4986 23.1615 64.4596C23.1003 64.4206 23.0516 64.365 23.0212 64.2994C22.9909 64.2337 22.98 64.1607 22.99 64.0891C23 64.0175 23.0304 63.9503 23.0776 63.8954L31.1754 54.4419L27.3754 50.9782C27.3279 50.9343 27.2924 50.8791 27.2724 50.8177C27.2524 50.7564 27.2484 50.6909 27.261 50.6276C27.2736 50.5643 27.3022 50.5053 27.3442 50.4561C27.3862 50.407 27.4401 50.3693 27.5008 50.3467L31.639 48.8342L27.3336 43.4646C27.2715 43.3862 27.243 43.2866 27.2544 43.1874C27.2658 43.0883 27.3161 42.9976 27.3944 42.9352C27.4727 42.873 27.5725 42.844 27.6721 42.8546C27.7718 42.8652 27.8632 42.9146 27.9264 42.9919L32.5624 48.7737C32.5997 48.8204 32.6253 48.8753 32.6372 48.9338C32.6491 48.9923 32.6469 49.0527 32.6308 49.1102C32.6146 49.168 32.5847 49.2211 32.5438 49.2652C32.5028 49.3092 32.4519 49.343 32.3952 49.3636L28.3482 50.8307L31.943 54.1205C32.0163 54.1865 32.0608 54.2783 32.0672 54.3764C32.0736 54.4745 32.0413 54.5713 31.9772 54.6461L23.64 64.3794C23.6067 64.4204 23.5652 64.454 23.5181 64.4781C23.471 64.5022 23.4193 64.5162 23.3664 64.5193Z" fill="black"/>
<path d="M18.6962 43.2264V40.2126H23.9554V43.2264" fill="#FFC9B0"/>
<path d="M23.9554 43.6045C23.8546 43.6045 23.758 43.5647 23.6867 43.4938C23.6155 43.4229 23.5754 43.3267 23.5754 43.2264V40.5794H19.0762V43.2264C19.0762 43.3267 19.0362 43.4229 18.9649 43.4938C18.8937 43.5647 18.797 43.6045 18.6962 43.6045C18.5954 43.6045 18.4988 43.5647 18.4275 43.4938C18.3563 43.4229 18.3162 43.3267 18.3162 43.2264V40.2013C18.3162 40.101 18.3563 40.0048 18.4275 39.9339C18.4988 39.863 18.5954 39.8232 18.6962 39.8232H23.9554C24.0562 39.8232 24.1529 39.863 24.2241 39.9339C24.2954 40.0048 24.3354 40.101 24.3354 40.2013V43.2264C24.3354 43.3267 24.2954 43.4229 24.2241 43.4938C24.1529 43.5647 24.0562 43.6045 23.9554 43.6045Z" fill="black"/>
<path d="M6.29682 31.0012C9.11955 31.0012 11.4078 29.0391 11.4078 26.6186C11.4078 24.1982 9.11955 22.236 6.29682 22.236C3.47409 22.236 1.18582 24.1982 1.18582 26.6186C1.18582 29.0391 3.47409 31.0012 6.29682 31.0012Z" fill="#FFC9B0"/>
<path d="M6.29682 31.3793C3.25682 31.3793 0.805817 29.2429 0.805817 26.6186C0.805817 23.9943 3.26822 21.8616 6.29682 21.8616C9.32542 21.8616 11.784 23.9943 11.784 26.6186C11.784 29.2429 9.30642 31.3793 6.29682 31.3793ZM6.29682 22.6179C3.68622 22.6179 1.56582 24.4141 1.56582 26.6186C1.56582 28.8231 3.68622 30.6231 6.29682 30.6231C8.90742 30.6231 11.024 28.8269 11.024 26.6186C11.024 24.4103 8.90362 22.6179 6.29682 22.6179Z" fill="black"/>
<path d="M36.085 31.0012C38.9077 31.0012 41.196 29.0391 41.196 26.6186C41.196 24.1982 38.9077 22.236 36.085 22.236C33.2623 22.236 30.974 24.1982 30.974 26.6186C30.974 29.0391 33.2623 31.0012 36.085 31.0012Z" fill="#FFC9B0"/>
<path d="M36.085 31.3793C33.045 31.3793 30.594 29.2429 30.594 26.6186C30.594 23.9943 33.0564 21.8616 36.085 21.8616C39.1136 21.8616 41.5722 23.9943 41.5722 26.6186C41.5722 29.2429 39.1098 31.3793 36.085 31.3793ZM36.085 22.6179C33.4744 22.6179 31.354 24.4141 31.354 26.6186C31.354 28.8231 33.4744 30.6231 36.085 30.6231C38.6956 30.6231 40.8122 28.8269 40.8122 26.6186C40.8122 24.4103 38.6918 22.6179 36.085 22.6179Z" fill="black"/>
<path d="M21.3258 40.9008C17.2381 40.9008 13.3178 39.285 10.4273 36.4087C7.53687 33.5324 5.91302 29.6313 5.91302 25.5636V19.9898C5.91332 19.0785 6.10608 18.1774 6.47882 17.3449C6.85155 16.5125 7.39593 15.7673 8.07667 15.1576C8.75741 14.5479 9.5593 14.0874 10.4304 13.806C11.3014 13.5245 12.2222 13.4283 13.133 13.5237C16.3554 13.8716 17.1838 15.8417 22.5608 15.9362C24.78 15.974 26.87 13.4481 28.7244 13.1077C29.6422 12.9405 30.5854 12.9708 31.4904 13.1965C32.3955 13.4222 33.2415 13.8382 33.9716 14.4164C34.7017 14.9945 35.2989 15.7216 35.7231 16.5486C36.1472 17.3756 36.3886 18.2833 36.4308 19.2109L36.7196 25.5636C36.7206 29.6283 35.0997 33.5271 32.2131 36.4031C29.3266 39.2791 25.4106 40.8968 21.3258 40.9008Z" fill="#FFC9B0"/>
<path d="M21.3258 41.279C17.1389 41.274 13.1248 39.6166 10.1642 36.6705C7.20354 33.7244 5.53805 29.73 5.53302 25.5636V19.9898C5.53271 19.0239 5.73686 18.0686 6.1322 17.1864C6.52754 16.3041 7.1052 15.5146 7.82755 14.8693C8.5499 14.224 9.40075 13.7373 10.3247 13.441C11.2486 13.1446 12.2249 13.0453 13.19 13.1493C14.353 13.2981 15.4815 13.6448 16.5264 14.1741C18.408 15.1069 20.4854 15.5813 22.5874 15.5581C23.7274 15.5883 24.8674 14.8018 26.0074 14.0833C26.9308 13.4708 27.8048 12.896 28.6864 12.7372C29.6574 12.5602 30.6551 12.5921 31.6126 12.8307C32.5702 13.0694 33.4652 13.5092 34.2378 14.1207C35.0103 14.7321 35.6423 15.5011 36.0913 16.3758C36.5404 17.2505 36.7961 18.2108 36.8412 19.192L37.13 25.5485C37.129 29.7195 35.4637 33.7195 32.5002 36.6692C29.5367 39.6189 25.5174 41.277 21.3258 41.279ZM12.449 13.8754C10.8167 13.8764 9.25144 14.5221 8.09718 15.6707C6.94292 16.8193 6.29403 18.3768 6.29302 20.0012V25.5749C6.26131 27.5592 6.62667 29.5298 7.36781 31.3722C8.10895 33.2145 9.21106 34.8917 10.61 36.306C12.0088 37.7204 13.6766 38.8436 15.516 39.6103C17.3554 40.377 19.3297 40.7719 21.3239 40.7719C23.3182 40.7719 25.2925 40.377 27.1319 39.6103C28.9713 38.8436 30.639 37.7204 32.0379 36.306C33.4368 34.8917 34.5389 33.2145 35.28 31.3722C36.0212 29.5298 36.3865 27.5592 36.3548 25.5749L36.066 19.2374C36.0251 18.3645 35.797 17.5104 35.397 16.7325C34.997 15.9546 34.4344 15.2709 33.7469 14.7272C33.0595 14.1835 32.2631 13.7925 31.4112 13.5803C30.5594 13.3682 29.6718 13.3399 28.808 13.4972C28.0784 13.6334 27.288 14.1665 26.4102 14.73C25.198 15.5316 23.9402 16.3597 22.5722 16.3333C20.3671 16.3525 18.1883 15.8564 16.211 14.885C15.2412 14.3801 14.1908 14.0462 13.1064 13.8981C12.8878 13.8793 12.6684 13.8717 12.449 13.8754Z" fill="black"/>
<path d="M26.889 43.2264L24.229 62.5341L24.058 63.3168L22.101 72.2522C21.8882 72.2522 21.6792 72.2522 21.4664 72.2522C21.2536 72.2522 21.018 72.2522 20.7976 72.2522L18.8292 63.2677L18.6696 62.5379L16.0096 43.2302L26.889 43.2264Z" fill="white"/>
<path d="M21.4664 72.6492C21.2384 72.6492 21.0104 72.6492 20.7862 72.6492C20.6978 72.6512 20.6116 72.6224 20.5422 72.5679C20.4728 72.5134 20.4248 72.4365 20.4062 72.3505L18.4378 63.366C18.4396 63.3585 18.4396 63.3508 18.4378 63.3433L18.282 62.6324L15.622 43.2982V43.2453C15.622 43.145 15.662 43.0488 15.7333 42.9779C15.8046 42.907 15.9012 42.8672 16.002 42.8672H26.8776C26.9784 42.8672 27.0751 42.907 27.1463 42.9779C27.2176 43.0488 27.2576 43.145 27.2576 43.2453C27.2576 43.2642 27.2576 43.2793 27.2576 43.2982L24.5976 62.6021L24.4304 63.4114L22.4734 72.343C22.4549 72.429 22.4068 72.5058 22.3374 72.5604C22.2681 72.6149 22.1818 72.6436 22.0934 72.6417C21.8958 72.6455 21.683 72.6492 21.4664 72.6492ZM21.1054 71.893C21.3334 71.893 21.5652 71.893 21.7932 71.893L23.8604 62.4622L26.452 43.6083H16.4466L19.0458 62.4925L19.2016 63.1958C19.2016 63.1958 19.2016 63.1958 19.2016 63.2185L21.1054 71.893Z" fill="black"/>
<path d="M24.229 62.5416L24.058 63.3244L22.101 72.2598C21.8882 72.2598 21.6792 72.2598 21.4664 72.2598C21.2536 72.2598 21.018 72.2598 20.7976 72.2598L18.8292 63.2752L18.6696 62.5454L20.3872 47.6392L20.8698 43.4797L20.8964 43.2529H22.0022L22.0288 43.4797L22.5114 47.6392L24.229 62.5416Z" fill="#F56132"/>
<path d="M21.4664 72.6492C21.2384 72.6492 21.0104 72.6492 20.7862 72.6492C20.6978 72.6512 20.6115 72.6224 20.5422 72.5679C20.4728 72.5134 20.4247 72.4365 20.4062 72.3505L18.4378 63.366C18.4396 63.3585 18.4396 63.3507 18.4378 63.3433L18.282 62.6324C18.2763 62.591 18.2763 62.549 18.282 62.5076L20.5088 43.2226C20.5165 43.1276 20.5599 43.0391 20.6303 42.9746C20.7008 42.9101 20.7931 42.8744 20.8888 42.8747H21.9946C22.0954 42.8747 22.192 42.9146 22.2633 42.9855C22.3346 43.0564 22.3746 43.1526 22.3746 43.2528L22.4012 43.4419L24.6014 62.5227C24.6071 62.5641 24.6071 62.6061 24.6014 62.6475L22.4734 72.3656C22.4549 72.4516 22.4068 72.5285 22.3374 72.583C22.2681 72.6376 22.1818 72.6663 22.0934 72.6644C21.8958 72.6455 21.683 72.6492 21.4664 72.6492ZM21.1054 71.893C21.3334 71.893 21.5652 71.893 21.7932 71.893L23.8452 62.5265L21.664 43.6196H21.2346L19.0534 62.5265L19.2016 63.1958C19.2016 63.1958 19.2016 63.1958 19.2016 63.2185L21.1054 71.893Z" fill="black"/>
<path d="M8.29562 69.6733C8.19484 69.6733 8.09818 69.6335 8.02692 69.5625C7.95565 69.4916 7.91562 69.3954 7.91562 69.2952V55.0923C7.91562 54.992 7.95565 54.8959 8.02692 54.8249C8.09818 54.754 8.19484 54.7142 8.29562 54.7142C8.3964 54.7142 8.49306 54.754 8.56432 54.8249C8.63558 54.8959 8.67562 54.992 8.67562 55.0923V69.2876C8.67663 69.3379 8.66755 69.3879 8.64891 69.4346C8.63026 69.4814 8.60243 69.524 8.56705 69.5599C8.53166 69.5958 8.48942 69.6243 8.44282 69.6438C8.39621 69.6633 8.34617 69.6733 8.29562 69.6733Z" fill="black"/>
<path d="M34.6372 69.6733C34.5364 69.6733 34.4398 69.6335 34.3685 69.5625C34.2973 69.4916 34.2572 69.3954 34.2572 69.2952V55.0923C34.2572 54.992 34.2973 54.8959 34.3685 54.8249C34.4398 54.754 34.5364 54.7142 34.6372 54.7142C34.738 54.7142 34.8347 54.754 34.9059 54.8249C34.9772 54.8959 35.0172 54.992 35.0172 55.0923V69.2876C35.0182 69.3379 35.0091 69.3879 34.9905 69.4346C34.9719 69.4814 34.944 69.524 34.9086 69.5599C34.8733 69.5958 34.831 69.6243 34.7844 69.6438C34.7378 69.6633 34.6878 69.6733 34.6372 69.6733Z" fill="black"/>
<path d="M22.5152 43.4608H20.3074C19.6967 43.4608 19.2016 43.9535 19.2016 44.5612V46.5351C19.2016 47.1428 19.6967 47.6354 20.3074 47.6354H22.5152C23.1259 47.6354 23.621 47.1428 23.621 46.5351V44.5612C23.621 43.9535 23.1259 43.4608 22.5152 43.4608Z" fill="#F56132"/>
<path d="M22.519 48.0136H20.3036C19.9109 48.0126 19.5345 47.8569 19.2568 47.5806C18.9791 47.3042 18.8226 46.9297 18.8216 46.5389V44.5574C18.8226 44.1666 18.9791 43.7921 19.2568 43.5157C19.5345 43.2394 19.9109 43.0837 20.3036 43.0827H22.519C22.9117 43.0837 23.2881 43.2394 23.5658 43.5157C23.8435 43.7921 24 44.1666 24.001 44.5574V46.5389C24 46.9297 23.8435 47.3042 23.5658 47.5806C23.2881 47.8569 22.9117 48.0126 22.519 48.0136ZM20.3036 43.8541C20.1121 43.8541 19.9285 43.9298 19.7931 44.0645C19.6577 44.1993 19.5816 44.382 19.5816 44.5725V46.554C19.5816 46.6483 19.6003 46.7418 19.6366 46.8289C19.6728 46.9161 19.726 46.9953 19.7931 47.062C19.8601 47.1287 19.9397 47.1816 20.0273 47.2178C20.1149 47.2539 20.2088 47.2724 20.3036 47.2724H22.519C22.6138 47.2724 22.7077 47.2539 22.7953 47.2178C22.8829 47.1816 22.9625 47.1287 23.0295 47.062C23.0966 46.9953 23.1498 46.9161 23.186 46.8289C23.2223 46.7418 23.241 46.6483 23.241 46.554V44.5725C23.241 44.382 23.1649 44.1993 23.0295 44.0645C22.8941 43.9298 22.7105 43.8541 22.519 43.8541H20.3036Z" fill="black"/>
<path d="M14.5124 26.3047C15.2574 26.3047 15.8614 25.7037 15.8614 24.9624C15.8614 24.221 15.2574 23.62 14.5124 23.62C13.7674 23.62 13.1634 24.221 13.1634 24.9624C13.1634 25.7037 13.7674 26.3047 14.5124 26.3047Z" fill="black"/>
<path d="M28.4204 26.3047C29.1654 26.3047 29.7694 25.7037 29.7694 24.9624C29.7694 24.221 29.1654 23.62 28.4204 23.62C27.6754 23.62 27.0714 24.221 27.0714 24.9624C27.0714 25.7037 27.6754 26.3047 28.4204 26.3047Z" fill="black"/>
<path d="M21.4664 29.8517C21.0286 29.8484 20.5917 29.813 20.1592 29.7458C20.11 29.7371 20.0631 29.7189 20.021 29.6922C19.9789 29.6654 19.9425 29.6307 19.914 29.59C19.8854 29.5492 19.8651 29.5033 19.8544 29.4547C19.8437 29.4062 19.8427 29.3561 19.8514 29.3072C19.8601 29.2582 19.8784 29.2115 19.9053 29.1696C19.9322 29.1277 19.9671 29.0916 20.008 29.0631C20.049 29.0347 20.0951 29.0145 20.1439 29.0038C20.1926 28.9932 20.2431 28.9922 20.2922 29.0009C20.968 29.1094 21.657 29.1094 22.3328 29.0009C22.4506 28.653 21.9528 27.1782 21.1928 25.7791C21.1682 25.7351 21.1527 25.6866 21.1472 25.6365C21.1417 25.5864 21.1463 25.5357 21.1608 25.4874C21.1753 25.4391 21.1993 25.3941 21.2315 25.3552C21.2637 25.3163 21.3034 25.2842 21.3482 25.2607C21.3931 25.2373 21.4422 25.223 21.4926 25.2187C21.5431 25.2144 21.5939 25.2202 21.6421 25.2357C21.6903 25.2513 21.7349 25.2762 21.7732 25.3092C21.8116 25.3421 21.8429 25.3823 21.8654 25.4275C22.2454 26.127 23.3854 28.4753 23.0054 29.3374C22.9625 29.4317 22.8984 29.5148 22.818 29.5804C22.7376 29.646 22.6431 29.6922 22.5418 29.7155C22.1902 29.8039 21.8291 29.8496 21.4664 29.8517Z" fill="black"/>
<path d="M26.5394 33.8221H16.3934C16.2926 33.8221 16.196 33.7823 16.1247 33.7113C16.0534 33.6404 16.0134 33.5443 16.0134 33.444C16.0134 33.3437 16.0534 33.2475 16.1247 33.1766C16.196 33.1057 16.2926 33.0658 16.3934 33.0658H26.5394C26.6402 33.0658 26.7368 33.1057 26.8081 33.1766C26.8794 33.2475 26.9194 33.3437 26.9194 33.444C26.9194 33.5443 26.8794 33.6404 26.8081 33.7113C26.7368 33.7823 26.6402 33.8221 26.5394 33.8221Z" fill="black"/>
<path d="M16.8114 21.2869H10.5528C10.3926 21.2869 10.2389 21.2235 10.1256 21.1108C10.0123 20.998 9.94861 20.8451 9.94861 20.6856C9.94861 20.5262 10.0123 20.3732 10.1256 20.2605C10.2389 20.1477 10.3926 20.0844 10.5528 20.0844H16.8114C16.9717 20.0844 17.1253 20.1477 17.2386 20.2605C17.352 20.3732 17.4156 20.5262 17.4156 20.6856C17.4156 20.8451 17.352 20.998 17.2386 21.1108C17.1253 21.2235 16.9717 21.2869 16.8114 21.2869Z" fill="black"/>
<path d="M32.38 21.2869H26.1214C25.9612 21.2869 25.8075 21.2235 25.6942 21.1108C25.5809 20.998 25.5172 20.8451 25.5172 20.6856C25.5172 20.5262 25.5809 20.3732 25.6942 20.2605C25.8075 20.1477 25.9612 20.0844 26.1214 20.0844H32.38C32.5403 20.0844 32.6939 20.1477 32.8072 20.2605C32.9206 20.3732 32.9842 20.5262 32.9842 20.6856C32.9842 20.8451 32.9206 20.998 32.8072 21.1108C32.6939 21.2235 32.5403 21.2869 32.38 21.2869Z" fill="black"/>
<path d="M15.736 29.5189H12.8784C11.8991 29.5179 10.9602 29.1303 10.2678 28.4413C9.57529 27.7522 9.18582 26.8179 9.18481 25.8434V24.0548C9.18582 23.6239 9.35829 23.2109 9.66451 22.9062C9.97073 22.6015 10.3858 22.4298 10.8188 22.4288H17.7994C18.2321 22.4298 18.6468 22.6016 18.9524 22.9064C19.258 23.2112 19.4296 23.6242 19.4296 24.0548V25.8434C19.4286 26.8179 19.0391 27.7522 18.3467 28.4413C17.6542 29.1303 16.7153 29.5179 15.736 29.5189ZM10.8264 23.1851C10.5946 23.1851 10.3723 23.2767 10.2084 23.4398C10.0445 23.6029 9.95242 23.8242 9.95242 24.0548V25.8434C9.95242 26.6176 10.2615 27.3602 10.8116 27.9076C11.3618 28.4551 12.108 28.7626 12.886 28.7626H15.7436C16.5217 28.7626 17.2678 28.4551 17.818 27.9076C18.3681 27.3602 18.6772 26.6176 18.6772 25.8434V24.0548C18.6772 23.8248 18.5857 23.6042 18.4226 23.4412C18.2595 23.2782 18.0382 23.1861 17.807 23.1851H10.8264Z" fill="black"/>
<path d="M29.2944 29.5189H26.4368C25.4575 29.5179 24.5186 29.1303 23.8262 28.4413C23.1337 27.7522 22.7442 26.8179 22.7432 25.8434V24.0548C22.7432 23.6242 22.9149 23.2112 23.2205 22.9064C23.5261 22.6016 23.9407 22.4298 24.3734 22.4288H31.3464C31.7795 22.4298 32.1945 22.6015 32.5007 22.9062C32.8069 23.2109 32.9794 23.6239 32.9804 24.0548V25.8434C32.9794 26.8166 32.591 27.7498 31.9002 28.4386C31.2093 29.1275 30.2724 29.5159 29.2944 29.5189ZM24.3734 23.1851C24.1423 23.1861 23.921 23.2782 23.7579 23.4412C23.5948 23.6042 23.5032 23.8248 23.5032 24.0548V25.8434C23.5032 26.6176 23.8123 27.3602 24.3625 27.9076C24.9126 28.4551 25.6588 28.7626 26.4368 28.7626H29.2944C30.0725 28.7626 30.8186 28.4551 31.3688 27.9076C31.919 27.3602 32.228 26.6176 32.228 25.8434V24.0548C32.228 23.8242 32.1359 23.6029 31.972 23.4398C31.8081 23.2767 31.5858 23.1851 31.354 23.1851H24.3734Z" fill="black"/>
<path d="M22.8648 25.3405C22.7742 25.3405 22.6866 25.3083 22.6178 25.2497C21.075 23.93 19.5398 25.1968 19.4714 25.2497C19.395 25.3138 19.2964 25.3453 19.1968 25.3375C19.0973 25.3297 19.0048 25.2832 18.9394 25.2081C18.907 25.1704 18.8823 25.1267 18.8669 25.0795C18.8514 25.0322 18.8454 24.9824 18.8493 24.9329C18.8532 24.8834 18.8669 24.8352 18.8895 24.7909C18.9121 24.7466 18.9433 24.7072 18.9812 24.675C19.5535 24.1784 20.2872 23.9048 21.0465 23.9048C21.8058 23.9048 22.5395 24.1784 23.1118 24.675C23.1708 24.7252 23.213 24.7922 23.2326 24.867C23.2521 24.9419 23.2482 25.0208 23.2213 25.0934C23.1944 25.1659 23.1458 25.2284 23.082 25.2726C23.0183 25.3168 22.9425 25.3405 22.8648 25.3405Z" fill="black"/>
<path d="M9.5648 24.433C9.50818 24.4326 9.45236 24.4197 9.4014 24.3951L5.1264 22.3797C5.0352 22.3366 4.96494 22.2591 4.93109 22.1645C4.89724 22.0698 4.90257 21.9656 4.9459 21.8749C4.98924 21.7841 5.06704 21.7142 5.16217 21.6805C5.25731 21.6468 5.362 21.6521 5.45321 21.6952L9.7282 23.7069C9.80545 23.7442 9.86775 23.8063 9.90498 23.8833C9.9422 23.9602 9.95215 24.0474 9.9332 24.1307C9.91426 24.214 9.86754 24.2885 9.80064 24.342C9.73375 24.3955 9.65062 24.4249 9.5648 24.4254V24.433Z" fill="black"/>
<path d="M32.7866 24.433C32.7154 24.4331 32.6456 24.4133 32.5851 24.3759C32.5246 24.3384 32.4759 24.2848 32.4446 24.2212C32.3998 24.1314 32.3927 24.0276 32.4247 23.9326C32.4568 23.8376 32.5254 23.7592 32.6156 23.7145L36.0356 22.0356C36.1263 21.9914 36.2309 21.985 36.3264 22.0176C36.4219 22.0502 36.5005 22.1192 36.5448 22.2095C36.5892 22.2998 36.5957 22.4039 36.5629 22.4989C36.5301 22.5939 36.4607 22.6721 36.37 22.7162L32.95 24.3951C32.8991 24.4197 32.8432 24.4326 32.7866 24.433Z" fill="black"/>
<path d="M32.779 61.5358H26.6724V65.2113H32.779V61.5358Z" fill="#FFBC0E"/>
<path d="M32.7828 65.5894H26.6724C26.5716 65.5894 26.475 65.5496 26.4037 65.4787C26.3325 65.4077 26.2924 65.3116 26.2924 65.2113V61.5207C26.2924 61.4204 26.3325 61.3242 26.4037 61.2533C26.475 61.1824 26.5716 61.1425 26.6724 61.1425H32.7828C32.8836 61.1425 32.9803 61.1824 33.0515 61.2533C33.1228 61.3242 33.1628 61.4204 33.1628 61.5207V65.1961C33.1649 65.2471 33.1566 65.2979 33.1384 65.3455C33.1202 65.3931 33.0925 65.4366 33.057 65.4734C33.0215 65.5101 32.979 65.5393 32.9318 65.5592C32.8847 65.5792 32.834 65.5894 32.7828 65.5894ZM27.0524 64.8331H32.4028V61.8988H27.0524V64.8331Z" fill="black"/>
<path d="M29.7276 62.6853C29.6268 62.6853 29.5302 62.6455 29.4589 62.5746C29.3876 62.5037 29.3476 62.4075 29.3476 62.3072V60.7644C29.3476 60.6641 29.3876 60.5679 29.4589 60.497C29.5302 60.4261 29.6268 60.3862 29.7276 60.3862C29.8284 60.3862 29.925 60.4261 29.9963 60.497C30.0676 60.5679 30.1076 60.6641 30.1076 60.7644V62.3034C30.1081 62.3534 30.0987 62.403 30.0798 62.4493C30.0609 62.4956 30.033 62.5377 29.9977 62.5732C29.9623 62.6087 29.9203 62.6369 29.8739 62.6562C29.8276 62.6754 29.7778 62.6853 29.7276 62.6853Z" fill="black"/>
</svg>
