<svg width="22" height="22" viewBox="0 0 22 22" fill="none" xmlns="http://www.w3.org/2000/svg">
<g clip-path="url(#clip0_231_3035)">
<path d="M4.58333 3.66699C3.57078 3.66699 2.75 4.49199 2.75 5.50033V18.3337C2.75 19.342 3.57078 20.167 4.58333 20.167H10.0833H11.9167H17.4167C18.4296 20.167 19.25 19.342 19.25 18.3337V5.50033C19.25 4.49199 18.4296 3.66699 17.4167 3.66699H11.9167H10.0833H4.58333Z" fill="#BDC3C7"/>
<path d="M4.58333 2.75C3.57078 2.75 2.75 3.57078 2.75 4.58333V17.4167C2.75 18.4296 3.57078 19.25 4.58333 19.25H10.0833H11.9167H17.4167C18.4296 19.25 19.25 18.4296 19.25 17.4167V4.58333C19.25 3.57078 18.4296 2.75 17.4167 2.75H11.9167H10.0833H4.58333Z" fill="#ECF0F1"/>
<path d="M4.58333 2.75C3.57078 2.75 2.75 3.57078 2.75 4.58333V7.33333V8.25H19.25V7.33333V4.58333C19.25 3.57078 18.4296 2.75 17.4167 2.75H11.9167H10.0833H4.58333Z" fill="black"/>
<path d="M6.875 5.04199C6.875 5.22256 6.83943 5.40136 6.77033 5.56818C6.70123 5.735 6.59995 5.88658 6.47227 6.01426C6.34459 6.14194 6.19301 6.24323 6.02619 6.31233C5.85937 6.38143 5.68057 6.41699 5.5 6.41699C5.31943 6.41699 5.14063 6.38143 4.97381 6.31233C4.80699 6.24323 4.65541 6.14194 4.52773 6.01426C4.40005 5.88658 4.29877 5.735 4.22967 5.56818C4.16057 5.40136 4.125 5.22256 4.125 5.04199C4.125 4.86142 4.16057 4.68263 4.22967 4.5158C4.29877 4.34898 4.40005 4.1974 4.52773 4.06972C4.65541 3.94204 4.80699 3.84076 4.97381 3.77166C5.14063 3.70256 5.31943 3.66699 5.5 3.66699C5.68057 3.66699 5.85937 3.70256 6.02619 3.77166C6.19301 3.84076 6.34459 3.94204 6.47227 4.06972C6.59995 4.1974 6.70123 4.34898 6.77033 4.5158C6.83943 4.68263 6.875 4.86142 6.875 5.04199Z" fill="#8F8F8F"/>
<path d="M5.49967 0.916992C4.9934 0.916992 4.58301 1.32738 4.58301 1.83366V4.58366C4.58301 5.08993 4.9934 5.50033 5.49967 5.50033C6.00595 5.50033 6.41634 5.08993 6.41634 4.58366V1.83366C6.41634 1.32738 6.00595 0.916992 5.49967 0.916992Z" fill="#BDC3C7"/>
<path d="M17.875 5.04199C17.875 5.22256 17.8394 5.40136 17.7703 5.56818C17.7012 5.735 17.6 5.88658 17.4723 6.01426C17.3446 6.14194 17.193 6.24323 17.0262 6.31233C16.8594 6.38143 16.6806 6.41699 16.5 6.41699C16.3194 6.41699 16.1406 6.38143 15.9738 6.31233C15.807 6.24323 15.6554 6.14194 15.5277 6.01426C15.4 5.88658 15.2988 5.735 15.2297 5.56818C15.1606 5.40136 15.125 5.22256 15.125 5.04199C15.125 4.86142 15.1606 4.68263 15.2297 4.5158C15.2988 4.34898 15.4 4.1974 15.5277 4.06972C15.6554 3.94204 15.807 3.84076 15.9738 3.77166C16.1406 3.70256 16.3194 3.66699 16.5 3.66699C16.6806 3.66699 16.8594 3.70256 17.0262 3.77166C17.193 3.84076 17.3446 3.94204 17.4723 4.06972C17.6 4.1974 17.7012 4.34898 17.7703 4.5158C17.8394 4.68263 17.875 4.86142 17.875 5.04199Z" fill="#8F8F8F"/>
<path d="M16.4997 0.916992C15.9937 0.916992 15.583 1.28366 15.583 1.83366V4.58366C15.583 5.04199 15.9937 5.50033 16.4997 5.50033C17.0057 5.50033 17.4163 5.04199 17.4163 4.58366V1.83366C17.4163 1.28366 17.0057 0.916992 16.4997 0.916992Z" fill="#BDC3C7"/>
<path d="M4.58301 10.084V11.9173H6.41634V10.084H4.58301ZM7.33301 10.084V11.9173H9.16634V10.084H7.33301ZM10.083 10.084V11.9173H11.9163V10.084H10.083ZM12.833 10.084V11.9173H14.6663V10.084H12.833ZM15.583 10.084V11.9173H17.4163V10.084H15.583Z" fill="#BDC3C7"/>
<path d="M4.58301 12.834V14.6673H6.41634V12.834H4.58301ZM7.33301 12.834V14.6673H9.16634V12.834H7.33301ZM10.083 12.834V14.6673H11.9163V12.834H10.083ZM12.833 12.834V14.6673H14.6663V12.834H12.833ZM15.583 12.834V14.6673H17.4163V12.834H15.583Z" fill="#BDC3C7"/>
<path d="M4.58301 15.584V17.4173H6.41634V15.584H4.58301ZM7.33301 15.584V17.4173H9.16634V15.584H7.33301ZM10.083 15.584V17.4173H11.9163V15.584H10.083ZM12.833 15.584V17.4173H14.6663V15.584H12.833ZM15.583 15.584V17.4173H17.4163V15.584H15.583Z" fill="#BDC3C7"/>
<path d="M21.4959 17.0028C21.4959 18.2061 21.0179 19.3601 20.167 20.211C19.3162 21.0618 18.1622 21.5398 16.9589 21.5398C15.7556 21.5398 14.6016 21.0618 13.7507 20.211C12.8999 19.3601 12.4219 18.2061 12.4219 17.0028C12.4219 15.7995 12.8999 14.6455 13.7507 13.7947C14.6016 12.9438 15.7556 12.4658 16.9589 12.4658C18.1622 12.4658 19.3162 12.9438 20.167 13.7947C21.0179 14.6455 21.4959 15.7995 21.4959 17.0028Z" fill="#D9D9D9"/>
<path d="M16.9583 12.834C16.7053 12.834 16.5 13.0393 16.5 13.2923V13.7507V16.5007V16.959C16.5 17.212 16.7053 17.4173 16.9583 17.4173H17.4167H19.25H19.7083C19.9613 17.4173 20.1667 17.212 20.1667 16.959C20.1667 16.706 19.9613 16.5007 19.7083 16.5007H19.25H17.4167V13.7507V13.2923C17.4167 13.0393 17.2113 12.834 16.9583 12.834Z" fill="#BDC3C7"/>
<path d="M16.9587 11.917C14.1738 11.917 11.917 14.117 11.917 16.9587C11.917 19.7087 14.1738 22.0003 16.9587 22.0003C19.7435 22.0003 22.0003 19.7087 22.0003 16.9587C22.0003 14.117 19.7435 11.917 16.9587 11.917ZM16.9587 12.8337C19.2366 12.8337 21.0837 14.667 21.0837 16.9587C21.0837 19.1587 19.2366 21.0837 16.9587 21.0837C14.6807 21.0837 12.8337 19.1587 12.8337 16.9587C12.8337 14.667 14.6807 12.8337 16.9587 12.8337Z" fill="#7F8C8D"/>
<path d="M17.4167 16.9583C17.4167 17.2113 17.2113 17.4167 16.9583 17.4167C16.7053 17.4167 16.5 17.2113 16.5 16.9583C16.5 16.7053 16.7053 16.5 16.9583 16.5C17.2113 16.5 17.4167 16.7053 17.4167 16.9583Z" fill="#95A5A6"/>
</g>
<defs>
<clipPath id="clip0_231_3035">
<rect width="22" height="22" fill="white"/>
</clipPath>
</defs>
</svg>
