<svg width="76" height="63" viewBox="0 0 76 63" fill="none" xmlns="http://www.w3.org/2000/svg">
<g clip-path="url(#clip0_587_1774)">
<path opacity="0.18" d="M16.5033 13.4589C12.0127 15.8923 7.38584 18.4407 4.25584 22.5159C2.37617 24.9662 1.12376 27.8828 0.464263 30.9176C-0.665408 36.0977 0.170923 42.103 4.05716 45.6654C5.40943 46.9106 7.06337 47.7896 8.76932 48.4649C12.3055 49.8622 16.1065 50.4339 19.8902 50.1375C22.9973 49.8916 26.0993 49.0611 29.1908 49.4568C32.9615 49.938 36.2538 52.1751 39.7666 53.6482C44.1315 55.4716 48.8844 56.1292 53.5713 55.5581C54.7529 55.4125 55.9492 55.1793 56.9884 54.5905C58.2221 53.8909 59.1364 52.7481 60.109 51.7034C62.3018 49.3389 64.8886 47.3853 67.7504 45.9324C69.2514 45.1705 70.8419 44.5384 72.1453 43.4663C75.578 40.6489 76.1657 35.607 75.966 31.1361C75.7663 26.6651 74.7729 21.7298 71.2455 19.0147C70.4581 18.409 69.5718 17.9394 68.8083 17.301C66.2619 15.1716 65.5004 11.607 63.8694 8.69356C60.212 2.17861 52.0515 -0.673657 44.7045 0.132534C34.1765 1.288 25.5542 8.55533 16.5033 13.4589Z" fill="#D9D9D9"/>
<path d="M71.6622 31.1818C71.5665 32.0788 70.4754 33.5846 68.966 35.2772C66.4924 38.0461 62.8984 41.312 60.7369 43.2146C59.6218 44.197 58.8884 44.8164 58.8884 44.8164V27.7703C58.8884 27.7703 61.5056 24.3704 63.4071 24.152C65.3086 23.9335 69.146 26.1896 69.146 26.1896C69.146 26.1896 71.9826 28.0626 71.6622 31.1818Z" fill="#D9D9D9"/>
<path d="M68.966 35.2772C66.4924 38.0461 62.8985 41.312 60.7369 43.2145C60.5757 42.9539 60.5434 42.5994 60.5289 42.2786C60.4717 40.6757 60.4852 39.0707 60.4997 37.4667C60.5133 35.9092 60.5268 34.3528 60.6235 32.7984C60.7151 31.3507 60.8898 29.8702 61.5431 28.5775C61.6905 28.7112 61.8122 28.8715 61.902 29.0503C62.7248 30.4843 63.2449 32.0661 63.765 33.6363C64.0222 34.4101 64.2795 35.1871 64.5368 35.9673C65.1134 35.6456 65.6287 35.2221 66.0586 34.7168C66.4539 34.2726 66.8065 33.7925 67.1696 33.3218C67.4234 32.9926 67.9185 32.0556 68.3138 32.408C68.9546 32.9747 69.0066 34.2715 68.966 35.2772Z" fill="url(#paint0_linear_587_1774)"/>
<path d="M60.8097 5.32678H18.2036V55.3834H60.8097V5.32678Z" fill="#D9D9D9"/>
<path d="M60.8097 5.32678H18.2036V55.3834H60.8097V5.32678Z" fill="#F56132"/>
<path d="M54.9543 7.74641L18.2036 11.0883C18.369 11.0883 18.2036 6.44532 18.2036 5.32678H56.9515V5.71933C56.9515 6.25676 56.7411 6.7722 56.3666 7.15232C55.9921 7.53244 55.4841 7.74613 54.9543 7.74641Z" fill="#F56132"/>
<path d="M60.8097 11.0883H18.2036V61.1449H60.8097V11.0883Z" fill="#D9D9D9"/>
<path d="M24.2608 11.0883H18.2036V61.1449H24.2608V11.0883Z" fill="url(#paint1_linear_587_1774)"/>
<path d="M27.941 20.4439H20.5815V27.9096H27.941V20.4439Z" fill="white"/>
<path d="M35.7094 20.4439H28.3499V27.9096H35.7094V20.4439Z" fill="white"/>
<path d="M43.4789 20.4439H36.1194V27.9096H43.4789V20.4439Z" fill="white"/>
<path d="M51.2472 20.4439H43.8877V27.9096H51.2472V20.4439Z" fill="white"/>
<path d="M27.941 28.2378H20.5815V35.7035H27.941V28.2378Z" fill="white"/>
<path d="M35.7094 28.2378H28.3499V35.7035H35.7094V28.2378Z" fill="white"/>
<path d="M43.4789 28.2378H36.1194V35.7035H43.4789V28.2378Z" fill="white"/>
<path d="M51.2472 28.2378H43.8877V35.7035H51.2472V28.2378Z" fill="white"/>
<path d="M27.941 36.0316H20.5815V43.4974H27.941V36.0316Z" fill="white"/>
<path d="M35.7094 36.0316H28.3499V43.4974H35.7094V36.0316Z" fill="white"/>
<path d="M43.4789 36.0316H36.1194V43.4974H43.4789V36.0316Z" fill="white"/>
<path d="M51.2472 36.0316H43.8877V43.4974H51.2472V36.0316Z" fill="white"/>
<path d="M27.941 43.8255H20.5815V51.2912H27.941V43.8255Z" fill="white"/>
<path d="M35.7094 43.8255H28.3499V51.2912H35.7094V43.8255Z" fill="white"/>
<path d="M43.4789 43.8255H36.1194V51.2912H43.4789V43.8255Z" fill="white"/>
<path d="M51.2472 43.8255H43.8877V51.2912H51.2472V43.8255Z" fill="white"/>
<path d="M27.941 51.6194H20.5815V59.0851H27.941V51.6194Z" fill="white"/>
<path d="M35.7094 51.6194H28.3499V59.0851H35.7094V51.6194Z" fill="white"/>
<path d="M43.4789 51.6194H36.1194V59.0851H43.4789V51.6194Z" fill="white"/>
<path d="M58.8854 20.4439H51.5259V27.9096H58.8854V20.4439Z" fill="white"/>
<path d="M58.8854 12.65H51.5259V20.1157H58.8854V12.65Z" fill="white"/>
<path d="M51.2472 12.65H43.8877V20.1157H51.2472V12.65Z" fill="white"/>
<path d="M58.8854 28.2378H51.5259V35.7035H58.8854V28.2378Z" fill="white"/>
<path d="M58.8854 36.0316H51.5259V43.4974H58.8854V36.0316Z" fill="white"/>
<path d="M58.8854 43.8255H51.5259V51.2912H58.8854V43.8255Z" fill="white"/>
<path d="M21.5044 3.30284V7.35068C21.5044 7.56911 21.778 7.74639 22.114 7.74639C22.451 7.74639 22.7235 7.56911 22.7235 7.35068V3.30284C22.7235 3.08441 22.451 2.90714 22.114 2.90714C21.778 2.90714 21.5044 3.08441 21.5044 3.30284Z" fill="black"/>
<path d="M27.3315 3.30284V7.35068C27.3315 7.56911 27.6041 7.74639 27.9411 7.74639C28.2781 7.74639 28.5507 7.56911 28.5507 7.35068V3.30284C28.5507 3.08441 28.2781 2.90714 27.9411 2.90714C27.6041 2.90714 27.3315 3.08441 27.3315 3.30284Z" fill="black"/>
<path d="M33.1589 3.30284V7.35068C33.1589 7.56911 33.4315 7.74639 33.7685 7.74639C34.1055 7.74639 34.3781 7.56911 34.3781 7.35068V3.30284C34.3781 3.08441 34.1055 2.90714 33.7685 2.90714C33.4315 2.90714 33.1589 3.08441 33.1589 3.30284Z" fill="black"/>
<path d="M38.9861 3.30284V7.35068C38.9861 7.56911 39.2586 7.74639 39.5956 7.74639C39.9316 7.74639 40.2052 7.56911 40.2052 7.35068V3.30284C40.2052 3.08441 39.9316 2.90714 39.5956 2.90714C39.2586 2.90714 38.9861 3.08441 38.9861 3.30284Z" fill="black"/>
<path d="M44.8123 3.30284V7.35068C44.8123 7.56911 45.0858 7.74639 45.4229 7.74639C45.7589 7.74639 46.0324 7.56911 46.0324 7.35068V3.30284C46.0324 3.08441 45.7589 2.90714 45.4229 2.90714C45.0858 2.90714 44.8123 3.08441 44.8123 3.30284Z" fill="black"/>
<path d="M50.6396 3.30284V7.35068C50.6396 7.56911 50.9132 7.74639 51.2492 7.74639C51.5862 7.74639 51.8598 7.56911 51.8598 7.35068V3.30284C51.8598 3.08441 51.5862 2.90714 51.2492 2.90714C50.9132 2.90714 50.6396 3.08441 50.6396 3.30284Z" fill="black"/>
<path d="M56.342 3.30284V7.35068C56.342 7.56911 56.6156 7.74639 56.9516 7.74639C57.2886 7.74639 57.5612 7.56911 57.5612 7.35068V3.30284C57.5612 3.08441 57.2886 2.90714 56.9516 2.90714C56.6156 2.90714 56.342 3.08441 56.342 3.30284Z" fill="black"/>
<path d="M61.7803 5.32678H60.8108V61.1449H61.7803V5.32678Z" fill="#D9D9D9"/>
<path d="M61.7803 5.32678H60.8108V61.1449H61.7803V5.32678Z" fill="url(#paint2_linear_587_1774)"/>
<path d="M45.5873 13.7443C45.5875 13.8618 45.5534 13.9767 45.4892 14.0745C45.425 14.1723 45.3337 14.2486 45.2267 14.2938C45.1198 14.339 45.0021 14.3509 44.8884 14.3282C44.7748 14.3055 44.6703 14.2491 44.5883 14.1662C44.5062 14.0832 44.4503 13.9775 44.4275 13.8623C44.4047 13.7471 44.4161 13.6276 44.4602 13.519C44.5043 13.4103 44.5792 13.3174 44.6754 13.252C44.7716 13.1865 44.8848 13.1515 45.0006 13.1512C45.1558 13.1512 45.3048 13.2137 45.4147 13.3248C45.5247 13.436 45.5867 13.5868 45.5873 13.7443Z" fill="#183866"/>
<path d="M45.5873 21.5392C45.5875 21.6567 45.5534 21.7716 45.4892 21.8694C45.425 21.9673 45.3337 22.0436 45.2267 22.0887C45.1198 22.1339 45.0021 22.1459 44.8884 22.1231C44.7748 22.1004 44.6703 22.044 44.5883 21.9611C44.5062 21.8782 44.4503 21.7724 44.4275 21.6572C44.4047 21.542 44.4161 21.4225 44.4602 21.3139C44.5043 21.2052 44.5792 21.1123 44.6754 21.0469C44.7716 20.9814 44.8848 20.9464 45.0006 20.9462C45.1558 20.9462 45.3048 21.0086 45.4147 21.1197C45.5247 21.2309 45.5867 21.3817 45.5873 21.5392Z" fill="#F56132"/>
<path d="M47.0177 21.5392C47.0179 21.6567 46.9838 21.7716 46.9196 21.8694C46.8554 21.9673 46.7641 22.0436 46.6572 22.0887C46.5502 22.1339 46.4325 22.1459 46.3188 22.1231C46.2052 22.1004 46.1008 22.044 46.0187 21.9611C45.9367 21.8782 45.8807 21.7724 45.8579 21.6572C45.8351 21.542 45.8465 21.4225 45.8906 21.3139C45.9348 21.2052 46.0097 21.1123 46.1058 21.0469C46.202 20.9814 46.3152 20.9464 46.431 20.9462C46.5863 20.9462 46.7352 21.0086 46.8451 21.1197C46.9551 21.2309 47.0172 21.3817 47.0177 21.5392Z" fill="#F56132"/>
<path d="M48.4562 21.5392C48.4564 21.6567 48.4222 21.7716 48.3581 21.8694C48.2939 21.9673 48.2026 22.0436 48.0956 22.0887C47.9887 22.1339 47.871 22.1459 47.7573 22.1231C47.6437 22.1004 47.5392 22.044 47.4572 21.9611C47.3751 21.8782 47.3192 21.7724 47.2964 21.6572C47.2736 21.542 47.285 21.4225 47.3291 21.3139C47.3732 21.2052 47.4481 21.1123 47.5443 21.0469C47.6405 20.9814 47.7537 20.9464 47.8695 20.9462C48.0247 20.9462 48.1737 21.0086 48.2836 21.1197C48.3936 21.2309 48.4556 21.3817 48.4562 21.5392Z" fill="#F56132"/>
<path d="M45.5873 37.2388C45.5873 37.3563 45.5529 37.4712 45.4886 37.5689C45.4242 37.6666 45.3328 37.7427 45.2258 37.7877C45.1188 37.8327 45.001 37.8444 44.8874 37.8215C44.7738 37.7986 44.6694 37.742 44.5875 37.6589C44.5056 37.5758 44.4499 37.47 44.4273 37.3547C44.4047 37.2395 44.4163 37.12 44.4606 37.0115C44.5049 36.9029 44.58 36.8101 44.6763 36.7449C44.7726 36.6796 44.8858 36.6447 45.0017 36.6447C45.1567 36.6447 45.3054 36.7072 45.415 36.8184C45.5247 36.9297 45.5863 37.0805 45.5863 37.2378L45.5873 37.2388Z" fill="url(#paint3_linear_587_1774)"/>
<path d="M21.8175 37.8319C22.1404 37.8319 22.4021 37.5663 22.4021 37.2388C22.4021 36.9113 22.1404 36.6458 21.8175 36.6458C21.4946 36.6458 21.2329 36.9113 21.2329 37.2388C21.2329 37.5663 21.4946 37.8319 21.8175 37.8319Z" fill="#FF2235"/>
<path d="M47.0177 37.2388C47.0177 37.3563 46.9834 37.4712 46.919 37.5689C46.8547 37.6666 46.7632 37.7427 46.6562 37.7877C46.5492 37.8327 46.4314 37.8444 46.3178 37.8215C46.2042 37.7986 46.0999 37.742 46.018 37.6589C45.9361 37.5758 45.8803 37.47 45.8577 37.3547C45.8351 37.2395 45.8467 37.12 45.891 37.0115C45.9353 36.9029 46.0104 36.8101 46.1067 36.7449C46.203 36.6796 46.3162 36.6447 46.4321 36.6447C46.5871 36.6447 46.7358 36.7072 46.8454 36.8184C46.9551 36.9297 47.0167 37.0805 47.0167 37.2378L47.0177 37.2388Z" fill="#F56132"/>
<path d="M48.4562 37.2388C48.4562 37.3563 48.4218 37.4712 48.3575 37.5689C48.2931 37.6666 48.2017 37.7427 48.0947 37.7877C47.9877 37.8327 47.8699 37.8444 47.7563 37.8215C47.6427 37.7986 47.5383 37.742 47.4564 37.6589C47.3745 37.5758 47.3188 37.47 47.2962 37.3547C47.2736 37.2395 47.2852 37.12 47.3295 37.0115C47.3738 36.9029 47.4489 36.8101 47.5452 36.7449C47.6415 36.6796 47.7547 36.6447 47.8706 36.6447C48.0256 36.6447 48.1743 36.7072 48.2839 36.8184C48.3936 36.9297 48.4552 37.0805 48.4552 37.2378L48.4562 37.2388Z" fill="#F56132"/>
<path d="M71.5926 21.2839C71.4293 21.9613 71.6477 22.9005 71.3378 23.522C70.8176 24.5667 69.2969 25.2599 69.0722 26.407C69.0587 26.4734 67.3662 27.3007 66.4935 27.0179C66.0368 26.8713 65.8049 26.4196 66.1565 25.3982C66.2667 25.0816 66.8846 24.9634 67.051 24.669L67.0167 24.6426C66.1721 23.9958 66.0805 22.625 66.2553 21.7102C66.43 20.7953 66.8305 19.9163 67.2601 19.0805C67.5909 18.4369 68.3378 18.0876 69.0535 18.0992C69.9532 18.115 70.9029 18.4801 71.371 19.2599C71.7289 19.854 71.7549 20.6064 71.5926 21.2839Z" fill="url(#paint4_linear_587_1774)"/>
<path d="M67.436 16.356C66.9752 16.6029 66.4853 16.8941 65.9693 16.815C65.956 16.9407 65.9762 17.0677 66.0278 17.1828C66.0794 17.2979 66.1605 17.3968 66.2627 17.4692L65.9423 17.542C65.9291 17.543 65.9163 17.5469 65.9048 17.5535C65.8933 17.56 65.8834 17.5691 65.8757 17.58C65.8717 17.5918 65.8703 17.6043 65.8715 17.6167C65.8728 17.6291 65.8767 17.6411 65.883 17.6518C65.9619 17.8383 66.0914 17.9982 66.2564 18.1129C66.1992 18.2374 65.9922 18.21 65.9215 18.324C65.9066 18.3571 65.8989 18.3931 65.8989 18.4295C65.8989 18.4659 65.9066 18.5019 65.9215 18.535C65.993 18.7318 66.1151 18.9056 66.2752 19.0383C66.0838 19.2494 66.2034 19.6398 66.4676 19.7358C66.6035 19.7743 66.7487 19.7587 66.8736 19.6922C66.9985 19.6258 67.0936 19.5134 67.1396 19.3781C67.1514 19.5002 67.1236 19.6228 67.0605 19.7274C67.9333 19.8667 68.8663 19.9975 69.6694 19.6219C69.6318 19.7062 69.6112 19.7974 69.609 19.8899C69.8028 19.9515 70.0084 19.9645 70.2082 19.9279C70.2498 20.3625 70.2114 20.8012 70.0948 21.2216C70.023 21.4833 69.9201 21.7366 69.8743 22.0035C69.8144 22.274 69.8619 22.5575 70.0064 22.7928C70.1448 22.7802 70.2425 22.6483 70.2956 22.5185C70.3338 22.3832 70.3917 22.2545 70.4672 22.1365C70.6753 21.8896 71.108 21.9803 71.2755 22.2536C71.4429 22.5269 71.3795 22.8941 71.2193 23.1695C71.1203 23.3319 70.9894 23.4719 70.8348 23.5809C70.6802 23.6898 70.5051 23.7653 70.3206 23.8027C70.3507 24.0971 70.3819 24.3915 70.4121 24.6848C70.9603 24.1572 71.574 23.7045 72.0671 23.1273C72.5601 22.5501 72.9336 21.8115 72.8701 21.0496C72.8316 20.58 72.6298 20.1337 72.6142 19.662C72.6069 19.4509 72.6381 19.2346 72.6298 19.0215C72.6105 18.6818 72.4932 18.3554 72.2926 18.0828C72.0919 17.8102 71.8167 17.6035 71.5012 17.4882C71.2359 17.3964 70.9436 17.37 70.7085 17.2149C70.4163 17.0229 70.2644 16.6651 69.9742 16.4689C69.6621 16.2578 69.1774 16.1713 68.8143 16.0668C68.3421 15.9339 67.8511 16.1354 67.436 16.356Z" fill="#3F3D56"/>
<path d="M60.8918 26.3405C60.8547 26.3636 60.8228 26.3943 60.7981 26.4306C60.7733 26.4669 60.7564 26.5081 60.7483 26.5515C60.7524 26.597 60.771 26.6399 60.8012 26.6738C60.8314 26.7076 60.8716 26.7306 60.9158 26.7394C61.0047 26.7552 61.096 26.7509 61.1831 26.7267L61.7115 26.6212C61.4263 26.783 61.1894 27.0199 61.026 27.3071C61.0068 27.3402 60.9974 27.3782 60.999 27.4166C61.0007 27.455 61.0133 27.4921 61.0354 27.5234C61.1061 27.6141 61.2257 27.5783 61.3214 27.5403L61.7802 27.3546L61.4681 27.6616C61.3711 27.7501 61.2864 27.8517 61.2164 27.9634C61.1861 28.0157 61.1636 28.0722 61.1498 28.1312C61.1413 28.1684 61.1473 28.2075 61.1668 28.2402C61.1862 28.2729 61.2174 28.2966 61.2538 28.3064C61.2776 28.3138 61.3029 28.3138 61.3266 28.3064C61.5173 28.2515 61.6945 28.1566 61.8468 28.0278C61.7342 28.1884 61.6086 28.3391 61.4712 28.4784C61.3338 28.6187 61.2561 28.8082 61.2549 29.006C61.2554 29.0272 61.2623 29.0478 61.2746 29.0651C61.2899 29.0807 61.3102 29.0905 61.3318 29.0925C61.5014 29.121 61.6554 28.9954 61.7833 28.8815L62.2545 28.4478C62.3304 28.3847 62.3973 28.3112 62.4532 28.2293C62.4844 28.182 62.5021 28.1269 62.5042 28.07C62.4994 28.0143 62.4731 27.9629 62.431 27.9269C62.3888 27.8909 62.3344 27.8733 62.2795 27.8779C62.2462 27.8813 62.2141 27.8925 62.1859 27.9107C62.1994 27.8189 62.2348 27.7334 62.2566 27.6437C62.2835 27.5553 62.2776 27.4599 62.24 27.3757C62.2197 27.3345 62.1849 27.3026 62.1425 27.2864C62.1 27.2701 62.0531 27.2707 62.0111 27.2881C62.0663 27.1782 62.1015 27.0592 62.1151 26.9367C62.1206 26.8748 62.1093 26.8125 62.0823 26.7567C62.0554 26.7009 62.0138 26.6536 61.9622 26.6201C61.9339 26.6083 61.9078 26.5915 61.8852 26.5705C61.8436 26.5188 61.8769 26.445 61.8946 26.3806C61.9082 26.3427 61.9143 26.3024 61.9126 26.2621C61.9108 26.2218 61.9013 26.1823 61.8845 26.1457C61.8677 26.1092 61.8439 26.0764 61.8146 26.0491C61.7853 26.0219 61.751 26.0008 61.7136 25.987C61.6716 25.9719 61.6269 25.9662 61.5825 25.9701C61.3142 25.9986 61.0905 26.1695 60.8918 26.3405Z" fill="url(#paint5_linear_587_1774)"/>
<path d="M69.4269 30.305C70.6231 29.2328 72.1044 30.0454 71.5843 31.5765C70.4598 34.8888 68.1058 42.478 65.8704 42.478C62.9578 42.478 61.7803 37.2388 61.7803 37.2388L63.1253 34.4773C63.1253 34.4773 65.0278 38.7119 65.9859 37.5659C66.9439 36.42 67.5098 32.0788 69.3717 30.3546L69.4269 30.305Z" fill="#D9D9D9"/>
<path d="M62.6842 34.2948C62.6665 34.049 62.6624 33.8024 62.6717 33.5561C62.6655 32.4813 62.3526 31.4313 61.7709 30.5329C61.7096 30.622 61.6833 30.7311 61.697 30.8389L61.7127 33.6416C61.7219 33.874 61.7065 34.1068 61.6669 34.3359C61.6315 34.5026 61.5712 34.662 61.5244 34.8266C61.4255 35.1688 61.3902 35.5266 61.4204 35.8818C61.4293 36.0726 61.4801 36.259 61.5691 36.4274C61.6148 36.511 61.6794 36.5824 61.7574 36.636C61.8355 36.6895 61.925 36.7236 62.0185 36.7355C62.0798 36.7355 62.3305 36.2079 62.3669 36.1361C62.4786 35.9251 62.5826 35.7123 62.679 35.4977C62.7508 35.3352 62.9037 35.0957 62.8766 34.9131C62.8465 34.7084 62.7092 34.5195 62.6842 34.2948Z" fill="url(#paint6_linear_587_1774)"/>
<path d="M68.2431 25.3845C67.9914 25.6715 67.7417 25.9596 67.49 26.2476C67.2977 26.4931 67.0689 26.7067 66.8118 26.8808C66.7119 26.9407 66.605 26.9875 66.4935 27.0201C66.0368 26.8734 65.8049 26.4217 66.1565 25.4003C66.2667 25.0837 66.8846 24.9655 67.051 24.6711L67.0167 24.6447C67.1363 24.702 67.2624 24.7438 67.3922 24.7693C67.6627 24.8104 68.3284 24.5973 68.4106 25.0035C68.4397 25.1439 68.3419 25.2758 68.2431 25.3845Z" fill="url(#paint7_linear_587_1774)"/>
<path d="M37.9969 47.4851L39.0454 49.1375C39.0923 49.2111 39.166 49.2629 39.2504 49.2815C39.3349 49.3001 39.4231 49.284 39.4958 49.2367C39.5216 49.2191 39.5451 49.1982 39.5655 49.1745L42.4532 45.7977C42.4941 45.7501 42.5206 45.6916 42.5296 45.629C42.5386 45.5665 42.5297 45.5027 42.504 45.4452C42.4782 45.3877 42.4366 45.3389 42.3843 45.3047C42.3319 45.2705 42.271 45.2522 42.2087 45.2522H42.1848C42.1372 45.2521 42.0901 45.2627 42.047 45.2831C42.0038 45.3035 41.9657 45.3333 41.9351 45.3704L39.6758 48.114C39.6209 48.1808 39.5421 48.2228 39.4568 48.2309C39.3714 48.239 39.2864 48.2125 39.2202 48.1572C39.1952 48.136 39.1735 48.1111 39.1557 48.0834L38.5409 47.1337C38.5067 47.0811 38.4583 47.0395 38.4015 47.0139C38.3448 46.9883 38.282 46.9797 38.2205 46.9891C38.1687 46.998 38.1198 47.0196 38.078 47.0521C38.0363 47.0845 38.003 47.1267 37.9809 47.1752C37.9589 47.2236 37.9488 47.2767 37.9516 47.33C37.9544 47.3833 37.9699 47.435 37.9969 47.4808V47.4851Z" fill="#70CC40"/>
<path d="M25.3718 55.8414L26.6918 57.1593C26.7383 57.2058 26.77 57.2652 26.7831 57.33C26.7961 57.3949 26.7899 57.4622 26.7651 57.5234C26.7404 57.5846 26.6982 57.6369 26.6441 57.6738C26.5899 57.7106 26.5261 57.7303 26.4609 57.7302H26.4047C26.3175 57.7302 26.2338 57.6953 26.1717 57.6331L24.8871 56.3289C24.8253 56.2666 24.7417 56.2316 24.6546 56.2316C24.5675 56.2316 24.4839 56.2666 24.4221 56.3289L23.1374 57.6331C23.107 57.664 23.0708 57.6884 23.031 57.7051C22.9912 57.7218 22.9485 57.7303 22.9055 57.7302H22.8483C22.783 57.7303 22.7193 57.7106 22.6651 57.6738C22.6109 57.6369 22.5688 57.5846 22.544 57.5234C22.5193 57.4622 22.513 57.3949 22.5261 57.33C22.5391 57.2652 22.5709 57.2058 22.6173 57.1593L23.9384 55.8414C23.9996 55.7792 24.034 55.695 24.034 55.6071C24.034 55.5193 23.9996 55.435 23.9384 55.3729L22.6048 54.0201C22.5591 53.9734 22.5279 53.9141 22.5153 53.8495C22.5027 53.785 22.5092 53.7181 22.534 53.6573C22.5588 53.5965 22.6008 53.5444 22.6547 53.5078C22.7086 53.4711 22.7719 53.4515 22.8368 53.4513C22.9228 53.451 23.0054 53.4852 23.0667 53.5463L24.419 54.8991C24.4805 54.9603 24.5632 54.9947 24.6494 54.9947C24.7356 54.9947 24.8183 54.9603 24.8798 54.8991L26.2321 53.5463C26.2934 53.4852 26.376 53.451 26.462 53.4513C26.5269 53.4513 26.5904 53.4708 26.6445 53.5074C26.6985 53.5439 26.7407 53.5959 26.7656 53.6568C26.7905 53.7176 26.7971 53.7846 26.7846 53.8493C26.772 53.9139 26.7408 53.9734 26.695 54.0201L25.3614 55.3729C25.301 55.4358 25.2677 55.5206 25.2689 55.6084C25.2701 55.6963 25.3056 55.7801 25.3677 55.8414H25.3718Z" fill="#DA1C23"/>
<path d="M13.5999 51.6975H13.9223L14.0836 59.0904L13.9223 57.8727H13.5999V51.6975Z" fill="#D9D9D9"/>
<path d="M13.9223 54.3925V54.401C13.9223 54.6321 13.8412 54.8632 13.7548 55.1396C13.1869 55.3063 12.8082 55.4404 12.2507 54.8558C11.6931 54.2712 11.1179 53.141 11.2999 52.5702C11.8679 52.4034 12.9747 53.0102 13.5333 53.5948C13.8224 53.8934 13.9202 54.1435 13.9223 54.3925Z" fill="#70CC40"/>
<path d="M15.5854 54.86C15.0736 55.3634 14.7137 55.2958 14.2446 55.1439V57.8727H13.9221V51.6975H14.2446V53.6613C14.2748 53.6275 14.307 53.5937 14.3424 53.5558C14.9186 52.9902 16.0327 52.4056 16.5955 52.5913C16.7609 53.1706 16.1617 54.2934 15.5854 54.86Z" fill="#D9D9D9"/>
<path d="M15.5854 54.86C15.0736 55.3634 14.7137 55.2958 14.2446 55.1439V57.8727H13.9221V51.6975H14.2446V53.6613C14.2748 53.6275 14.307 53.5937 14.3424 53.5558C14.9186 52.9902 16.0327 52.4056 16.5955 52.5913C16.7609 53.1706 16.1617 54.2934 15.5854 54.86Z" fill="#70CC40"/>
<path d="M13.9223 50.2065H12.4827C12.4827 51.2438 13.1266 52.0848 13.9213 52.0848L14.2604 51.1636L13.9223 50.2065Z" fill="#70CC40"/>
<path d="M13.9477 50.5663L13.9221 50.5842V50.4787L13.9477 50.5663Z" fill="#D9D9D9"/>
<path d="M11.1969 48.0908C11.0149 48.6616 11.5901 49.7928 12.1487 50.3764C12.7073 50.9599 13.0849 50.828 13.6518 50.6602C13.8338 50.0894 13.9888 49.7 13.4302 49.1154C12.8716 48.5308 11.7649 47.924 11.1969 48.0908Z" fill="#70CC40"/>
<path d="M15.4825 50.3837C15.4347 50.4312 15.3879 50.4734 15.3421 50.5114C15.2308 51.4041 14.6369 52.0847 13.9222 52.0847V50.5842L13.9472 50.5663L13.9222 50.4776V50.5832C13.8895 50.6068 13.8547 50.6273 13.8182 50.6444C13.3064 50.3436 12.8924 49.3865 12.9257 48.573C12.959 47.7594 13.3626 46.5564 13.8952 46.2947C14.407 46.5955 14.7409 47.8248 14.7107 48.6394V48.6996C15.3005 48.2891 16.063 47.9747 16.4968 48.1171C16.658 48.6954 16.0578 49.8171 15.4825 50.3837Z" fill="#D9D9D9"/>
<path d="M15.4825 50.3837C15.4347 50.4312 15.3879 50.4734 15.3421 50.5114C15.2308 51.4041 14.6369 52.0847 13.9222 52.0847V50.5842L13.9472 50.5663L13.9222 50.4776V50.5832C13.8895 50.6068 13.8547 50.6273 13.8182 50.6444C13.3064 50.3436 12.8924 49.3865 12.9257 48.573C12.959 47.7594 13.3626 46.5564 13.8952 46.2947C14.407 46.5955 14.7409 47.8248 14.7107 48.6394V48.6996C15.3005 48.2891 16.063 47.9747 16.4968 48.1171C16.658 48.6954 16.0578 49.8171 15.4825 50.3837Z" fill="#70CC40"/>
<path d="M13.9477 50.5663L13.9221 50.5842V50.4787L13.9477 50.5663Z" fill="#D9D9D9"/>
<path d="M11.0771 56.9303L11.5848 61.0921H13.9325L14.8916 58.7242L13.9325 56.8143L11.0771 56.9303Z" fill="#D9D9D9"/>
<path d="M16.789 56.9303L16.2814 61.0921H13.9326V56.8143L16.789 56.9303Z" fill="#D9D9D9"/>
<path d="M14.979 56.8428L14.953 56.8554L14.1562 57.2564L13.9388 57.3683H10.7672C10.6715 57.3683 10.5797 57.3297 10.512 57.261C10.4443 57.1923 10.4063 57.0992 10.4063 57.0021V56.0714C10.4059 56.0283 10.4138 55.9855 10.4297 55.9456C10.4456 55.9056 10.4691 55.8692 10.4988 55.8384C10.5286 55.8076 10.564 55.7831 10.6031 55.7662C10.6422 55.7494 10.6842 55.7405 10.7267 55.7401H10.7568L13.9388 55.7464L14.979 56.8428Z" fill="#D9D9D9"/>
<path d="M14.979 56.8428L14.953 56.8554L14.1562 57.2564L13.9388 57.3683H10.7672C10.6715 57.3683 10.5797 57.3297 10.512 57.261C10.4443 57.1923 10.4063 57.0992 10.4063 57.0021V56.0714C10.4059 56.0283 10.4138 55.9855 10.4297 55.9456C10.4456 55.9056 10.4691 55.8692 10.4988 55.8384C10.5286 55.8076 10.564 55.7831 10.6031 55.7662C10.6422 55.7494 10.6842 55.7405 10.7267 55.7401H10.7568L13.9388 55.7464L14.979 56.8428Z" fill="#E28362"/>
<path d="M17.099 57.3683H13.9326V55.7052H17.099C17.1948 55.7052 17.2866 55.7438 17.3543 55.8125C17.4219 55.8811 17.46 55.9743 17.46 56.0714V57.0021C17.46 57.0992 17.4219 57.1923 17.3543 57.261C17.2866 57.3297 17.1948 57.3683 17.099 57.3683Z" fill="#D9D9D9"/>
<path d="M13.9337 57.3683V61.0921H11.5849L11.1304 57.3683H13.9337Z" fill="#F56132"/>
<path d="M16.7359 57.3683L16.2814 61.0921H13.9336V57.3683H16.7359Z" fill="#F56132"/>
<path d="M17.4601 56.1136V57.0443C17.4601 57.1414 17.4221 57.2346 17.3544 57.3032C17.2867 57.3719 17.1949 57.4105 17.0991 57.4105H13.939V55.7474H17.1043C17.1992 55.7488 17.2896 55.788 17.3562 55.8565C17.4228 55.9251 17.4601 56.0174 17.4601 56.1136Z" fill="#E28362"/>
<path opacity="0.18" d="M11.8583 61.0974L5.89166 62.2582C5.84139 62.2586 5.79176 62.2696 5.74585 62.2903C5.69994 62.3111 5.65874 62.3412 5.62481 62.3789C5.59088 62.4165 5.56495 62.4608 5.54863 62.509C5.53232 62.5572 5.52597 62.6084 5.52997 62.6592C5.53398 62.71 5.54827 62.7595 5.57193 62.8045C5.5956 62.8495 5.62814 62.889 5.66754 62.9207C5.70693 62.9524 5.75233 62.9755 5.80091 62.9886C5.84949 63.0017 5.90021 63.0045 5.94991 62.9968H5.96759H73.3588C73.4537 63.0008 73.5465 62.9671 73.6173 62.9028C73.6881 62.8385 73.7314 62.7488 73.7381 62.6526C73.7447 62.5564 73.7141 62.4614 73.6528 62.3878C73.5915 62.3141 73.5043 62.2676 73.4098 62.2582L64.7125 61.1481H64.6626L11.9343 61.0953C11.9089 61.0934 11.8835 61.0941 11.8583 61.0974Z" fill="#1D2741"/>
</g>
<defs>
<linearGradient id="paint0_linear_587_1774" x1="66.3114" y1="29.9103" x2="48.1253" y2="63.644" gradientUnits="userSpaceOnUse">
<stop stop-opacity="0"/>
<stop offset="0.91" stop-opacity="0.8"/>
<stop offset="1"/>
</linearGradient>
<linearGradient id="paint1_linear_587_1774" x1="31.9417" y1="36.0844" x2="-27.4628" y2="36.2567" gradientUnits="userSpaceOnUse">
<stop stop-opacity="0"/>
<stop offset="0.91" stop-opacity="0.8"/>
<stop offset="1"/>
</linearGradient>
<linearGradient id="paint2_linear_587_1774" x1="73.9102" y1="31.2452" x2="26.4313" y2="38.5264" gradientUnits="userSpaceOnUse">
<stop stop-opacity="0"/>
<stop offset="0.91" stop-opacity="0.8"/>
<stop offset="1"/>
</linearGradient>
<linearGradient id="paint3_linear_587_1774" x1="44.9684" y1="36.7397" x2="45.1696" y2="39.7509" gradientUnits="userSpaceOnUse">
<stop stop-color="#F56132"/>
<stop offset="1" stop-color="#1A7FC1"/>
</linearGradient>
<linearGradient id="paint4_linear_587_1774" x1="73.1436" y1="24.5667" x2="63.4511" y2="20.8408" gradientUnits="userSpaceOnUse">
<stop stop-color="#ECC4D7"/>
<stop offset="0.16" stop-color="#EDCBD5"/>
<stop offset="0.42" stop-color="#EFD4D1"/>
<stop offset="0.7" stop-color="#F2EAC9"/>
</linearGradient>
<linearGradient id="paint5_linear_587_1774" x1="60.7483" y1="27.5329" x2="62.5094" y2="27.5329" gradientUnits="userSpaceOnUse">
<stop stop-color="#ECC4D7"/>
<stop offset="0.42" stop-color="#EFD4D1"/>
<stop offset="1" stop-color="#F2EAC9"/>
</linearGradient>
<linearGradient id="paint6_linear_587_1774" x1="61.4099" y1="33.6342" x2="62.8798" y2="33.6342" gradientUnits="userSpaceOnUse">
<stop stop-color="#ECC4D7"/>
<stop offset="0.42" stop-color="#EFD4D1"/>
<stop offset="1" stop-color="#F2EAC9"/>
</linearGradient>
<linearGradient id="paint7_linear_587_1774" x1="66.4644" y1="26.2518" x2="62.3897" y2="30.9691" gradientUnits="userSpaceOnUse">
<stop stop-color="#ECC4D7"/>
<stop offset="0.42" stop-color="#EFD4D1"/>
<stop offset="1" stop-color="#F2EAC9"/>
</linearGradient>
<clipPath id="clip0_587_1774">
<rect width="76" height="63" fill="white"/>
</clipPath>
</defs>
</svg>
