<svg width="94" height="80" viewBox="0 0 94 80" fill="none" xmlns="http://www.w3.org/2000/svg">
<path d="M90.5469 70.7404V60.4255C90.5455 58.2123 89.6614 56.0902 88.0888 54.5253C86.5161 52.9603 84.3835 52.0805 82.1595 52.0792H74.1443C71.9202 52.0805 69.7876 52.9603 68.2149 54.5253C66.6423 56.0902 65.7582 58.2123 65.7568 60.4255V70.7506L90.5469 70.7404Z" fill="#D9D9D9"/>
<path d="M90.5469 71.2478H65.7568C65.6216 71.2478 65.4919 71.1944 65.3963 71.0992C65.3007 71.0041 65.2469 70.875 65.2469 70.7404V60.4255C65.2496 58.0782 66.1879 55.8278 67.8559 54.168C69.5239 52.5082 71.7854 51.5745 74.1442 51.5718H82.1595C84.5183 51.5745 86.7798 52.5082 88.4478 54.168C90.1158 55.8278 91.0541 58.0782 91.0568 60.4255V70.7506C91.0541 70.8834 90.9992 71.0098 90.9039 71.1028C90.8085 71.1958 90.6804 71.2478 90.5469 71.2478ZM66.2667 70.2331H90.037V60.4255C90.0343 58.3473 89.2035 56.355 87.7267 54.8855C86.25 53.416 84.2479 52.5893 82.1595 52.5866H74.1442C72.0558 52.5893 70.0537 53.416 68.577 54.8855C67.1002 56.355 66.2694 58.3473 66.2667 60.4255V70.2331Z" fill="black"/>
<path d="M76.1532 52.891L78.4323 63.7387L80.3698 52.891H76.1532Z" fill="black"/>
<path d="M78.4322 64.246C78.3137 64.2487 78.1979 64.2101 78.1048 64.1369C78.0118 64.0638 77.9472 63.9606 77.9224 63.8452L75.6381 52.9925C75.6228 52.9179 75.6246 52.8409 75.6432 52.767C75.6619 52.6932 75.697 52.6246 75.746 52.5661C75.795 52.5076 75.8565 52.4608 75.9261 52.4293C75.9957 52.3977 76.0715 52.3821 76.148 52.3836H80.3647C80.4392 52.3829 80.5129 52.3984 80.5808 52.4291C80.6486 52.4598 80.7088 52.5049 80.7573 52.5612C80.8046 52.6185 80.8387 52.6855 80.8572 52.7574C80.8757 52.8293 80.8781 52.9043 80.8643 52.9773L78.9319 63.83C78.9102 63.9482 78.847 64.0549 78.7537 64.1311C78.6603 64.2073 78.5428 64.248 78.422 64.246H78.4322ZM76.7803 53.3984L78.3914 61.0648L79.763 53.3984H76.7803Z" fill="black"/>
<path d="M77.0914 18.075C77.6106 17.9914 78.1359 17.9507 78.6618 17.9532C81.0837 17.9532 83.5566 17.8923 85.7695 18.968C88.005 20.068 89.8887 21.7654 91.2098 23.8704C92.5308 25.9753 93.237 28.4045 93.2493 30.8862L92.7394 40.7648H63.6766C63.5084 40.1863 63.7684 39.5014 63.7939 38.923C63.7775 38.2762 63.6816 37.6338 63.5084 37.0102C63.1618 35.3997 62.9672 33.7605 62.9271 32.114C62.9341 29.5223 63.4756 26.9597 64.5179 24.5846C65.1094 23.1538 65.8028 21.6723 67.0673 20.7844C68.3318 19.8964 70.3458 19.8609 71.2483 21.1192C72.7985 19.4821 74.8561 18.4101 77.0914 18.075Z" fill="#725858"/>
<path d="M92.7445 41.2721H63.6816C63.5679 41.2766 63.4559 41.2431 63.3635 41.1769C63.271 41.1107 63.2036 41.0156 63.1718 40.9068C63.0617 40.4327 63.0617 39.9399 63.1718 39.4659C63.2103 39.2784 63.2358 39.0885 63.2483 38.8976C63.2483 38.4382 63.1866 37.9809 63.0647 37.5378C63.0341 37.3958 62.9984 37.2537 62.9729 37.1116C62.6202 35.4711 62.4221 33.8013 62.3815 32.1241C62.3854 29.4625 62.9409 26.8302 64.0131 24.3918C64.6045 22.9559 65.3489 21.3475 66.7409 20.3683C68.0207 19.4702 70.0296 19.3231 71.2278 20.3683C72.8022 18.871 74.8011 17.8915 76.9537 17.5625C77.5 17.4759 78.0524 17.4334 78.6057 17.4357H79.0339C81.3539 17.4357 83.7503 17.4357 85.9376 18.5011C88.2605 19.6411 90.2178 21.4032 91.5895 23.5892C92.9613 25.7753 93.6932 28.2988 93.703 30.876C93.703 30.876 93.703 30.876 93.1931 40.78C93.1903 40.902 93.1434 41.0189 93.061 41.1093C92.9786 41.1997 92.8662 41.2575 92.7445 41.2721ZM64.1558 40.2574H92.2601C92.362 38.2887 92.7445 30.942 92.7445 30.8608C92.7311 28.4771 92.051 26.1441 90.7803 24.1233C89.5096 22.1026 87.6986 20.4738 85.5501 19.4195C83.5718 18.4606 81.2978 18.4606 79.0951 18.4606H78.6617C78.165 18.4605 77.6691 18.4978 77.178 18.5722C75.0623 18.8934 73.1161 19.9118 71.651 21.4642C71.5995 21.5188 71.5365 21.5613 71.4665 21.5888C71.3966 21.6162 71.3214 21.628 71.2464 21.6231C71.1713 21.6183 71.0983 21.5969 71.0325 21.5607C70.9667 21.5245 70.9097 21.4742 70.8658 21.4135C70.1366 20.3987 68.4286 20.4647 67.3884 21.1953C66.2259 22.0173 65.5784 23.4176 65.0175 24.7774C64.0074 27.0909 63.4867 29.5865 63.4879 32.1089C63.5269 33.7248 63.718 35.3334 64.059 36.9138C64.0845 37.0457 64.115 37.1827 64.1456 37.3197C64.2894 37.8488 64.3598 38.3951 64.3547 38.9433C64.3395 39.1767 64.3088 39.4089 64.2629 39.6384C64.2166 39.8427 64.1809 40.0493 64.1558 40.2574Z" fill="black"/>
<path d="M76.1532 50.4759H80.3698V52.891C80.3698 53.3633 80.1813 53.8163 79.8457 54.1503C79.51 54.4842 79.0548 54.6719 78.5802 54.6719H77.9429C77.4682 54.6719 77.013 54.4842 76.6774 54.1503C76.3417 53.8163 76.1532 53.3633 76.1532 52.891V50.4759Z" fill="#FFC9B0"/>
<path d="M78.5803 55.1792H77.943C77.3335 55.1779 76.7494 54.9364 76.3184 54.5075C75.8875 54.0787 75.6448 53.4975 75.6434 52.891V50.4759C75.6434 50.3413 75.6971 50.2123 75.7928 50.1171C75.8884 50.022 76.0181 49.9685 76.1533 49.9685H80.37C80.5052 49.9685 80.6349 50.022 80.7305 50.1171C80.8261 50.2123 80.8798 50.3413 80.8798 50.4759V52.891C80.8785 53.4975 80.6358 54.0787 80.2048 54.5075C79.7739 54.9364 79.1898 55.1779 78.5803 55.1792ZM76.6632 50.9833V52.891C76.6645 53.2283 76.7998 53.5515 77.0395 53.79C77.2792 54.0286 77.604 54.1632 77.943 54.1645H78.5803C78.9193 54.1632 79.244 54.0286 79.4838 53.79C79.7235 53.5515 79.8587 53.2283 79.8601 52.891V50.9833H76.6632Z" fill="black"/>
<path d="M66.9041 43.0835C69.0357 43.0835 70.7638 41.5115 70.7638 39.5724C70.7638 37.6333 69.0357 36.0614 66.9041 36.0614C64.7724 36.0614 63.0443 37.6333 63.0443 39.5724C63.0443 41.5115 64.7724 43.0835 66.9041 43.0835Z" fill="#FFC9B0"/>
<path d="M66.8938 43.5959C64.4872 43.5959 62.5293 41.7896 62.5293 39.5724C62.5293 37.3552 64.4974 35.5641 66.8938 35.5641C69.2902 35.5641 71.2634 37.3653 71.2634 39.5826C71.2634 41.7998 69.3157 43.5959 66.8938 43.5959ZM66.8938 36.5789C65.0481 36.5789 63.549 37.9285 63.549 39.5826C63.549 41.2366 65.0481 42.5913 66.8938 42.5913C68.7396 42.5913 70.2437 41.2417 70.2437 39.5826C70.2437 37.9234 68.7549 36.5789 66.8938 36.5789Z" fill="black"/>
<path d="M89.3997 43.0835C91.5313 43.0835 93.2594 41.5115 93.2594 39.5724C93.2594 37.6333 91.5313 36.0614 89.3997 36.0614C87.268 36.0614 85.5399 37.6333 85.5399 39.5724C85.5399 41.5115 87.268 43.0835 89.3997 43.0835Z" fill="#FFC9B0"/>
<path d="M89.3998 43.5959C86.9881 43.5959 85.0302 41.7896 85.0302 39.5724C85.0302 37.3552 86.9881 35.554 89.3998 35.554C91.8115 35.554 93.7643 37.3552 93.7643 39.5724C93.7643 41.7896 91.8064 43.5959 89.3998 43.5959ZM89.3998 36.5687C87.5489 36.5687 86.0499 37.9183 86.0499 39.5724C86.0499 41.2264 87.5489 42.5811 89.3998 42.5811C91.2506 42.5811 92.7445 41.2315 92.7445 39.5724C92.7445 37.9133 91.2455 36.5789 89.3998 36.5789V36.5687Z" fill="black"/>
<path d="M78.2589 51.0239C74.9824 51.0239 71.84 49.7286 69.5231 47.4231C67.2063 45.1176 65.9047 41.9907 65.9047 38.7302V32.1089C65.9047 32.1089 69.0149 30.3433 69.9378 27.5426C69.9378 27.5426 74.6898 32.9157 79.2634 32.5554C83.0737 32.24 86.8642 31.72 90.6182 30.9978V38.7352C90.6176 40.3497 90.2974 41.9482 89.6759 43.4394C89.0544 44.9307 88.1438 46.2856 86.9962 47.4267C85.8485 48.5678 84.4862 49.4728 82.987 50.09C81.4879 50.7072 79.8813 51.0245 78.2589 51.0239Z" fill="#FFC9B0"/>
<path d="M78.2589 51.5312C74.8484 51.5272 71.5787 50.1772 69.1671 47.7774C66.7555 45.3777 65.3988 42.124 65.3948 38.7302V32.109C65.3944 32.0195 65.4178 31.9316 65.4626 31.8541C65.5074 31.7766 65.5719 31.7122 65.6497 31.6675C65.6803 31.6675 68.6019 29.9577 69.4534 27.4005C69.4814 27.3156 69.5314 27.2395 69.5984 27.18C69.6654 27.1205 69.7471 27.0797 69.835 27.0617C69.923 27.0437 70.0142 27.0491 70.0994 27.0774C70.1846 27.1057 70.2607 27.1559 70.3202 27.2229C70.366 27.2737 74.9753 32.4032 79.2225 32.0633C83.0127 31.7403 86.7826 31.2152 90.5162 30.4904C90.5903 30.4759 90.6667 30.4779 90.7399 30.4964C90.8131 30.5148 90.8812 30.5491 90.9395 30.597C90.9979 30.6442 91.0452 30.7037 91.0778 30.7713C91.1104 30.8388 91.1276 30.9127 91.1281 30.9876V38.7251C91.1254 42.1207 89.7687 45.3764 87.3558 47.7774C84.943 50.1785 81.6712 51.5285 78.2589 51.5312ZM66.4145 32.3931V38.7302C66.4788 41.8144 67.7552 44.7508 69.97 46.9094C72.1847 49.068 75.1613 50.277 78.2614 50.277C81.3616 50.277 84.3382 49.068 86.5529 46.9094C88.7676 44.7508 90.0441 41.8144 90.1084 38.7302V31.6269C86.5341 32.2967 82.9281 32.7861 79.3041 33.0933C75.3985 33.4028 71.5286 29.9272 70.1264 28.5269C69.2441 30.112 67.9656 31.4437 66.4145 32.3931Z" fill="black"/>
<path d="M78.2028 41.2721C77.8204 41.2707 77.4385 41.2401 77.0607 41.1808C76.9255 41.1572 76.8052 41.0812 76.7263 40.9694C76.6474 40.8576 76.6164 40.7192 76.6401 40.5846C76.6637 40.4501 76.7402 40.3304 76.8525 40.2519C76.9649 40.1734 77.104 40.1425 77.2392 40.166C77.7448 40.249 78.2595 40.2627 78.7688 40.2066C78.5814 39.3316 78.2616 38.4899 77.8204 37.7103C77.7837 37.651 77.7597 37.5847 77.7499 37.5157C77.7401 37.4467 77.7447 37.3764 77.7634 37.3092C77.782 37.242 77.8145 37.1794 77.8585 37.1252C77.9026 37.0711 77.9574 37.0265 78.0196 36.9944C78.0818 36.9622 78.1499 36.9432 78.2198 36.9384C78.2897 36.9336 78.3598 36.9432 78.4258 36.9666C78.4918 36.99 78.5522 37.0266 78.6033 37.0743C78.6545 37.1219 78.6952 37.1796 78.7229 37.2436C79.2328 38.2177 80.0384 39.9631 79.6968 40.7241C79.6499 40.8296 79.5797 40.9231 79.4914 40.9978C79.4031 41.0725 79.299 41.1263 79.1869 41.1554C78.8647 41.2333 78.5344 41.2725 78.2028 41.2721Z" fill="black"/>
<path d="M71.1616 70.9586C71.0264 70.9586 70.8967 70.9051 70.8011 70.81C70.7055 70.7148 70.6517 70.5858 70.6517 70.4512V61.1155C70.6517 60.981 70.7055 60.8519 70.8011 60.7568C70.8967 60.6616 71.0264 60.6082 71.1616 60.6082C71.2968 60.6082 71.4265 60.6616 71.5221 60.7568C71.6178 60.8519 71.6715 60.981 71.6715 61.1155V70.4512C71.6715 70.5858 71.6178 70.7148 71.5221 70.81C71.4265 70.9051 71.2968 70.9586 71.1616 70.9586Z" fill="black"/>
<path d="M85.1423 70.9586C85.0071 70.9586 84.8774 70.9051 84.7818 70.81C84.6862 70.7148 84.6324 70.5858 84.6324 70.4512V61.1155C84.6324 60.981 84.6862 60.8519 84.7818 60.7568C84.8774 60.6616 85.0071 60.6082 85.1423 60.6082C85.2775 60.6082 85.4072 60.6616 85.5028 60.7568C85.5985 60.8519 85.6522 60.981 85.6522 61.1155V70.4512C85.6522 70.5858 85.5985 70.7148 85.5028 70.81C85.4072 70.9051 85.2775 70.9586 85.1423 70.9586Z" fill="black"/>
<path d="M11.2055 20.9924C11.2055 20.9924 8.39612 20.0131 5.72948 23.4481C3.2362 26.6597 3.36876 31.2667 3.24639 35.1177C3.09051 38.9633 2.37432 42.766 1.12022 46.4067C-0.00149958 49.9025 1.6301 53.7028 4.41401 55.8084C6.66765 57.5132 9.36998 58.1778 12.0162 58.3858C14.2648 58.5685 16.447 57.9647 18.6446 58.2133C20.9761 58.5293 23.3493 58.1433 25.4584 57.1052C27.5676 56.0671 29.3161 54.4244 30.4787 52.3887C31.0956 51.4191 31.4827 50.3225 31.6107 49.1821C31.6311 48.0561 31.4869 46.9332 31.1824 45.8486C30.2961 41.9544 29.821 37.9787 29.7649 33.9862C29.8243 30.7794 29.0925 27.607 27.6337 24.7469C24.2328 18.5113 15.1417 15.6497 11.2055 20.9924Z" fill="#725858"/>
<path d="M12.9136 58.9287C12.6025 58.9287 12.2915 58.9287 11.9754 58.8932C8.7224 58.6345 6.14755 57.7567 4.10295 56.2143C0.946835 53.8245 -0.485908 49.73 0.635814 46.2545C1.88106 42.6561 2.58882 38.8953 2.73649 35.0923C2.73649 34.7321 2.73649 34.3667 2.76709 33.9913C2.85886 30.3382 2.96594 26.1929 5.31645 23.1487C7.66697 20.1045 10.0787 20.2668 10.9964 20.4393C12.5669 18.4961 14.9327 17.527 17.7064 17.7147C21.8415 17.9938 26.0071 20.7285 28.067 24.5186C29.5698 27.4528 30.3277 30.7086 30.2748 34.0014C30.3418 37.9541 30.8237 41.889 31.7126 45.7421L31.7687 45.9755C32.0551 47.0317 32.184 48.1241 32.1511 49.2176C32.0216 50.4365 31.6135 51.6097 30.958 52.6474C29.7451 54.7703 27.9225 56.484 25.724 57.5689C23.5254 58.6537 21.0513 59.0601 18.6191 58.7359C17.508 58.6462 16.3906 58.67 15.2845 58.807C14.4942 58.8577 13.709 58.9287 12.9136 58.9287ZM10.2265 21.383C9.29857 21.383 7.70776 21.7433 6.14755 23.7728C3.99588 26.5481 3.89391 30.5158 3.80213 34.0167L3.77153 35.1278C3.62841 39.0225 2.90677 42.8746 1.63007 46.5589C0.64601 49.6387 1.92579 53.2715 4.74539 55.4025C6.62683 56.8282 9.02833 57.6349 12.0825 57.8835C13.1219 57.9361 14.164 57.9022 15.1978 57.7821C16.3718 57.6387 17.5575 57.6149 18.7363 57.711C20.9701 58.0106 23.2429 57.6393 25.2633 56.645C27.2836 55.6506 28.9595 54.0784 30.0759 52.1299C30.6539 51.2255 31.0166 50.2016 31.1365 49.1364C31.1601 48.1412 31.0364 47.1479 30.7693 46.1886L30.7184 45.9552C29.8244 42.026 29.3459 38.0145 29.2907 33.9862C29.3451 30.862 28.6309 27.772 27.2104 24.9854C25.3035 21.4896 21.4693 18.9629 17.6707 18.7092C15.1213 18.5316 12.9951 19.455 11.644 21.2866C11.5801 21.3743 11.4897 21.4393 11.3861 21.4721C11.2824 21.505 11.1709 21.504 11.0678 21.4693C10.7952 21.3875 10.5112 21.3498 10.2265 21.3577V21.383Z" fill="black"/>
<path d="M28.6533 70.7404V60.2834C28.6533 58.0416 27.7583 55.8916 26.1653 54.3064C24.5723 52.7211 22.4117 51.8306 20.1588 51.8306H12.0416C9.78873 51.8306 7.62813 52.7211 6.0351 54.3064C4.44207 55.8916 3.54712 58.0416 3.54712 60.2834V70.7404H28.6533Z" fill="#D9D9D9"/>
<path d="M28.6534 71.2478H3.54723C3.412 71.2478 3.28231 71.1943 3.18669 71.0992C3.09107 71.004 3.03735 70.875 3.03735 70.7404V60.2834C3.04005 57.9079 3.98959 55.6304 5.67765 53.9506C7.36571 52.2708 9.65444 51.3259 12.0417 51.3232H20.1589C22.5462 51.3259 24.8349 52.2708 26.523 53.9506C28.211 55.6304 29.1606 57.9079 29.1633 60.2834V70.7404C29.1633 70.875 29.1096 71.004 29.0139 71.0992C28.9183 71.1943 28.7886 71.2478 28.6534 71.2478ZM4.0571 70.2331H28.1435V60.2834C28.1408 58.177 27.2987 56.1576 25.8019 54.6681C24.3051 53.1786 22.2757 52.3406 20.1589 52.338H12.0417C9.9249 52.3406 7.89554 53.1786 6.39872 54.6681C4.9019 56.1576 4.0598 58.177 4.0571 60.2834V70.2331Z" fill="black"/>
<path d="M16.1002 64.0228L14.5808 52.546H18.4661L16.1002 64.0228Z" fill="black"/>
<path d="M16.1004 64.5302C15.9759 64.5312 15.8553 64.4869 15.7614 64.4056C15.6674 64.3243 15.6067 64.2116 15.5905 64.0887L14.0609 52.6119C14.0514 52.5403 14.0574 52.4675 14.0785 52.3984C14.0996 52.3292 14.1353 52.2654 14.1832 52.2111C14.231 52.157 14.2898 52.1136 14.3558 52.0839C14.4217 52.0541 14.4932 52.0387 14.5656 52.0386H18.456C18.5309 52.0385 18.6049 52.0548 18.6727 52.0864C18.7406 52.1179 18.8006 52.164 18.8486 52.2213C18.8974 52.2798 18.9323 52.3485 18.9509 52.4222C18.9694 52.496 18.971 52.573 18.9556 52.6475L16.5898 64.1243C16.5667 64.2372 16.5056 64.3389 16.4167 64.4127C16.3277 64.4864 16.2161 64.5279 16.1004 64.5302ZM15.1622 53.0534L16.2074 60.9633L17.839 53.0534H15.1622Z" fill="black"/>
<path d="M9.01817 70.9535C8.88295 70.9535 8.75326 70.9001 8.65764 70.8049C8.56202 70.7098 8.5083 70.5807 8.5083 70.4461V60.9938C8.5083 60.8592 8.56202 60.7301 8.65764 60.635C8.75326 60.5398 8.88295 60.4864 9.01817 60.4864C9.1534 60.4864 9.28309 60.5398 9.37871 60.635C9.47433 60.7301 9.52805 60.8592 9.52805 60.9938V70.4461C9.52805 70.5807 9.47433 70.7098 9.37871 70.8049C9.28309 70.9001 9.1534 70.9535 9.01817 70.9535Z" fill="black"/>
<path d="M23.1825 70.9535C23.0473 70.9535 22.9176 70.9001 22.8219 70.8049C22.7263 70.7098 22.6726 70.5807 22.6726 70.4461V60.9938C22.6726 60.8592 22.7263 60.7301 22.8219 60.635C22.9176 60.5398 23.0473 60.4864 23.1825 60.4864C23.3177 60.4864 23.4474 60.5398 23.543 60.635C23.6386 60.7301 23.6924 60.8592 23.6924 60.9938V70.4461C23.6924 70.5807 23.6386 70.7098 23.543 70.8049C23.4474 70.9001 23.3177 70.9535 23.1825 70.9535Z" fill="black"/>
<path d="M14.5808 50.6129H18.4559V52.8149C18.4559 53.2495 18.2823 53.6664 17.9735 53.9737C17.6646 54.281 17.2457 54.4537 16.809 54.4537H16.2226C15.7867 54.4524 15.3691 54.2791 15.0614 53.9719C14.7536 53.6647 14.5808 53.2487 14.5808 52.8149V50.5926V50.6129Z" fill="#FFC9B0"/>
<path d="M16.814 54.9864H16.2277C15.9425 54.9858 15.6602 54.929 15.3972 54.8193C15.1341 54.7096 14.8955 54.5492 14.695 54.3474C14.4946 54.1455 14.3362 53.9062 14.2291 53.6432C14.122 53.3802 14.0682 53.0987 14.0709 52.8149V50.5926C14.0709 50.458 14.1246 50.329 14.2202 50.2338C14.3159 50.1387 14.4455 50.0852 14.5808 50.0852H18.4558C18.591 50.0852 18.7207 50.1387 18.8163 50.2338C18.912 50.329 18.9657 50.458 18.9657 50.5926V52.8149C18.9684 53.0982 18.9148 53.3793 18.808 53.642C18.7012 53.9047 18.5433 54.1438 18.3433 54.3456C18.1434 54.5474 17.9054 54.7079 17.6429 54.8178C17.3805 54.9278 17.0988 54.9851 16.814 54.9864ZM15.0906 51.1203V52.8149C15.0906 53.1154 15.2103 53.4037 15.4234 53.6167C15.6364 53.8297 15.9256 53.9501 16.2277 53.9514H16.814C17.1147 53.9474 17.4019 53.8261 17.6136 53.6135C17.8253 53.4009 17.9446 53.1142 17.9459 52.8149V51.1L15.0906 51.1203Z" fill="black"/>
<path d="M5.41845 43.809C7.50226 43.809 9.19152 42.3597 9.19152 40.5719C9.19152 38.7842 7.50226 37.3349 5.41845 37.3349C3.33465 37.3349 1.64539 38.7842 1.64539 40.5719C1.64539 42.3597 3.33465 43.809 5.41845 43.809Z" fill="#FFC9B0"/>
<path d="M5.41844 44.3164C3.05772 44.3164 1.1355 42.6369 1.1355 40.5719C1.1355 38.5069 3.05772 36.8275 5.41844 36.8275C7.77915 36.8275 9.70647 38.5069 9.70647 40.5719C9.70647 42.6369 7.78425 44.3164 5.41844 44.3164ZM5.41844 37.8423C3.61858 37.8423 2.15525 39.065 2.15525 40.5719C2.15525 42.0788 3.61858 43.3016 5.41844 43.3016C7.21829 43.3016 8.68673 42.0738 8.68673 40.5719C8.68673 39.0701 7.23869 37.8423 5.41844 37.8423Z" fill="black"/>
<path d="M27.4246 43.809C29.5084 43.809 31.1976 42.3597 31.1976 40.5719C31.1976 38.7842 29.5084 37.3349 27.4246 37.3349C25.3407 37.3349 23.6515 38.7842 23.6515 40.5719C23.6515 42.3597 25.3407 43.809 27.4246 43.809Z" fill="#FFC9B0"/>
<path d="M27.4247 44.3164C25.0639 44.3164 23.1417 42.6369 23.1417 40.5719C23.1417 38.5069 25.0639 36.8275 27.4247 36.8275C29.7854 36.8275 31.7076 38.5069 31.7076 40.5719C31.7076 42.6369 29.7854 44.3164 27.4247 44.3164ZM27.4247 37.8423C25.6248 37.8423 24.1615 39.065 24.1615 40.5719C24.1615 42.0788 25.6248 43.3016 27.4247 43.3016C29.2245 43.3016 30.6879 42.0738 30.6879 40.5719C30.6879 39.0701 29.2245 37.8423 27.4247 37.8423Z" fill="black"/>
<path d="M23.4475 30.9978L19.7611 26.2843L18.4252 30.9826H12.6178L11.2513 26.7764L9.64012 30.9775H5.13794V39.8515C5.13794 41.3393 5.43244 42.8126 6.00461 44.1871C6.57678 45.5617 7.41543 46.8107 8.47267 47.8627C9.52991 48.9148 10.785 49.7493 12.1664 50.3187C13.5477 50.8881 15.0283 51.1811 16.5234 51.1811C18.0183 51.1811 19.4986 50.888 20.8797 50.3186C22.2607 49.7492 23.5155 48.9146 24.5724 47.8624C25.6292 46.8103 26.4674 45.5613 27.039 44.1868C27.6106 42.8122 27.9045 41.3391 27.9038 39.8515V30.9978H23.4475Z" fill="#FFC9B0"/>
<path d="M16.5234 51.6276C13.3698 51.6236 10.3465 50.3752 8.11659 48.1562C5.88666 45.9372 4.6321 42.9287 4.62805 39.7906V30.9166C4.62805 30.7821 4.68177 30.653 4.77739 30.5579C4.87301 30.4627 5.0027 30.4092 5.13793 30.4092H9.2934L10.7771 26.538C10.8154 26.4409 10.8828 26.3579 10.9702 26.3003C11.0575 26.2427 11.1606 26.2133 11.2654 26.216C11.3701 26.2188 11.4715 26.2536 11.5556 26.3158C11.6398 26.3779 11.7027 26.4644 11.7357 26.5634L12.99 30.4194H18.0377C18.5476 28.6182 19.2716 26.0915 19.2716 26.0915C19.2975 26.0015 19.3479 25.9203 19.4173 25.857C19.4866 25.7938 19.5722 25.7508 19.6646 25.7329C19.757 25.7151 19.8525 25.723 19.9406 25.7559C20.0288 25.7887 20.106 25.8451 20.1639 25.919L23.6973 30.4346H27.9089C28.0441 30.4346 28.1738 30.4881 28.2694 30.5832C28.365 30.6784 28.4188 30.8074 28.4188 30.942V39.75C28.4228 41.3075 28.1181 42.8505 27.5223 44.2907C26.9264 45.731 26.051 47.0401 24.9461 48.1433C23.8413 49.2465 22.5287 50.1221 21.0834 50.72C19.6381 51.3179 18.0886 51.6263 16.5234 51.6276ZM5.6478 31.424V39.7906C5.61645 41.2312 5.87451 42.6635 6.40685 44.0035C6.93919 45.3435 7.73507 46.5643 8.74784 47.5941C9.7606 48.624 10.9698 49.4422 12.3046 50.0008C13.6394 50.5595 15.0728 50.8472 16.5209 50.8472C17.9689 50.8472 19.4023 50.5595 20.7371 50.0008C22.0719 49.4422 23.2811 48.624 24.2939 47.5941C25.3066 46.5643 26.1025 45.3435 26.6349 44.0035C27.1672 42.6635 27.4253 41.2312 27.3939 39.7906V31.5052H23.4424C23.3654 31.5042 23.2896 31.4859 23.2207 31.4516C23.1518 31.4174 23.0917 31.368 23.0447 31.3073L19.9854 27.3853C19.6948 28.4 19.2461 29.978 18.9198 31.1196C18.889 31.2293 18.8219 31.3255 18.7294 31.3927C18.6369 31.4599 18.5244 31.4942 18.4099 31.49H12.6025C12.4907 31.4954 12.3801 31.4641 12.288 31.4008C12.1958 31.3375 12.1272 31.2458 12.0926 31.1399L11.1697 28.3036L10.0786 31.1551C10.0421 31.2522 9.97666 31.3359 9.89097 31.3948C9.80528 31.4538 9.7035 31.4852 9.59932 31.4849L5.6478 31.424Z" fill="black"/>
<path d="M16.4674 42.16C16.1139 42.1589 15.7609 42.1301 15.412 42.0738C15.345 42.0624 15.2809 42.0381 15.2234 42.0021C15.1659 41.9662 15.1161 41.9193 15.0768 41.8642C15.0375 41.809 15.0095 41.7467 14.9944 41.6809C14.9793 41.615 14.9774 41.5468 14.9888 41.4801C15.0001 41.4135 15.0246 41.3498 15.0607 41.2925C15.0969 41.2353 15.144 41.1857 15.1994 41.1466C15.2548 41.1075 15.3174 41.0797 15.3836 41.0646C15.4498 41.0496 15.5184 41.0477 15.5853 41.059C16.0264 41.1477 16.4774 41.1767 16.9263 41.1453C16.7439 40.3612 16.4522 39.6063 16.0595 38.9027C16.0286 38.8434 16.0097 38.7786 16.004 38.7121C15.9983 38.6455 16.0058 38.5785 16.0262 38.5149C16.0466 38.4512 16.0794 38.3922 16.1227 38.3412C16.166 38.2903 16.2191 38.2483 16.2787 38.2177C16.3979 38.1568 16.5364 38.145 16.6643 38.1848C16.7921 38.2247 16.8991 38.3131 16.962 38.4308C17.4362 39.339 18.1857 40.9677 17.8594 41.6729C17.8138 41.7782 17.7439 41.8713 17.6553 41.9445C17.5666 42.0177 17.4619 42.0689 17.3495 42.0941C17.0593 42.1523 16.763 42.1745 16.4674 42.16Z" fill="black"/>
<path d="M66.7614 79.4926V68.3304C66.762 66.5903 66.4182 64.8671 65.7494 63.2592C65.0807 61.6514 64.1002 60.1904 62.8639 58.9597C61.6277 57.729 60.1598 56.7527 58.5443 56.0867C56.9288 55.4206 55.1972 55.0778 53.4486 55.0778H40.7272C37.1951 55.0778 33.8076 56.474 31.31 58.9594C28.8124 61.4447 27.4093 64.8156 27.4093 68.3304V79.4926H66.7614Z" fill="#D9D9D9"/>
<path d="M66.7613 80H27.4093C27.2741 80 27.1444 79.9465 27.0488 79.8514C26.9531 79.7562 26.8994 79.6272 26.8994 79.4926V68.3304C26.9048 64.6827 28.3634 61.1859 30.9554 58.6065C33.5475 56.0272 37.0615 54.5758 40.7272 54.5704H53.4485C57.1138 54.5758 60.6272 56.0274 63.2185 58.6068C65.8097 61.1863 67.2672 64.6831 67.2712 68.3304V79.4926C67.2712 79.6272 67.2175 79.7562 67.1219 79.8514C67.0263 79.9465 66.8966 80 66.7613 80ZM27.9192 78.9853H66.2515V68.3304C66.2488 64.9518 64.8992 61.7124 62.4989 59.3229C60.0986 56.9334 56.8437 55.5892 53.4485 55.5852H40.7272C37.3315 55.5892 34.0761 56.9333 31.675 59.3226C29.2739 61.7119 27.9232 64.9514 27.9192 68.3304V78.9853Z" fill="black"/>
<path d="M50.6086 56.3868H43.9139V79.4977H50.6086V56.3868Z" fill="black"/>
<path d="M50.6086 80H43.9139C43.7787 80 43.649 79.9465 43.5534 79.8514C43.4578 79.7562 43.4041 79.6272 43.4041 79.4926V56.3665C43.4041 56.2319 43.4578 56.1029 43.5534 56.0077C43.649 55.9126 43.7787 55.8591 43.9139 55.8591H50.6086C50.7438 55.8591 50.8735 55.9126 50.9691 56.0077C51.0647 56.1029 51.1184 56.2319 51.1184 56.3665V79.4723C51.1212 79.5406 51.11 79.6088 51.0857 79.6727C51.0613 79.7367 51.0241 79.795 50.9765 79.8443C50.9289 79.8936 50.8717 79.9328 50.8085 79.9595C50.7453 79.9863 50.6773 80.0001 50.6086 80ZM44.4238 78.9853H50.0987V56.8739H44.4238V78.9853Z" fill="black"/>
<path d="M45.5405 1.38743C46.4155 0.95206 47.3846 0.737314 48.3626 0.762087C49.3406 0.786859 50.2975 1.05039 51.1491 1.5295C51.5457 1.82486 51.9984 2.03716 52.4798 2.15357C52.992 2.15388 53.5005 2.06811 53.984 1.89988C54.6449 1.76469 55.3299 1.80358 55.9711 2.01271C56.6123 2.22183 57.1875 2.59394 57.6398 3.09221C57.8662 3.40805 58.1456 3.68267 58.4658 3.90401C58.9559 4.07971 59.4854 4.1166 59.9954 4.01056C61.3188 3.93798 62.6326 4.27124 63.7596 4.96535C64.8866 5.65945 65.7724 6.68097 66.2974 7.89197C66.443 8.37463 66.6432 8.83931 66.894 9.2771C67.8321 10.5963 69.4739 11.3726 70.2235 12.9048C71.0087 14.5183 70.5549 16.6493 69.9787 18.2627C70.4364 18.5573 70.8191 18.9535 71.0968 19.4202C71.3745 19.8868 71.5396 20.4113 71.5791 20.9522C71.6187 21.4931 71.5316 22.0358 71.3246 22.5376C71.1177 23.0393 70.7966 23.4865 70.3866 23.8438C69.9685 24.2142 69.3669 24.6201 69.4943 25.1681C69.5385 25.3354 69.609 25.4946 69.7034 25.6399C71.0138 27.913 70.0399 29.6685 69.0456 31.7284C68.3216 33.2505 69.8258 35.4424 68.8468 36.7666C68.3369 37.4719 67.205 37.2233 66.2974 37.2233C63.9316 37.2233 61.5658 37.2233 59.2 37.2233C55.6666 37.2233 52.1331 37.1624 48.6048 37.1624C44.016 37.1624 39.4271 37.0153 34.8637 36.9747C31.1875 36.9391 26.359 38.3395 24.9161 33.9609C24.6054 32.969 24.4979 31.9252 24.6 30.8912C24.651 30.2773 25.1965 29.085 25.0436 28.5218C24.9581 28.3075 24.8277 28.1138 24.6611 27.9535C24.337 27.4966 24.1324 26.9664 24.0656 26.4111C23.9988 25.8557 24.0721 25.2925 24.2787 24.7723C24.6459 23.7068 25.3852 22.8849 25.9766 21.9564C24.0493 20.3886 23.4018 15.6599 24.8345 13.6202C25.0974 13.3208 25.3046 12.9772 25.4464 12.6055C25.4972 12.2998 25.4972 11.9878 25.4464 11.6821C25.2679 9.96206 26.6853 5.59356 29.0817 7.70932C29.0809 7.19143 29.2001 6.68032 29.43 6.21571C29.6599 5.7511 29.9944 5.34548 30.4074 5.03038C31.1714 4.46569 32.1115 4.18805 33.0614 4.24654C34.0112 4.30504 34.9097 4.69591 35.5979 5.35002C36.6177 3.79746 37.7955 2.23982 39.4526 1.38236C41.1097 0.524895 43.3837 0.570561 44.6278 1.95569C44.9144 1.73965 45.2199 1.54947 45.5405 1.38743Z" fill="#E28362"/>
<path d="M67.47 37.7611C67.2661 37.7611 67.0622 37.7611 66.8735 37.7611H66.333C63.9621 37.7611 61.5963 37.7611 59.2305 37.7611C57.8164 37.7611 56.4075 37.7509 55.0036 37.7306C52.8775 37.7306 50.7564 37.7002 48.6353 37.7002C45.9687 37.7002 43.2612 37.6495 40.6405 37.5987C38.7234 37.5632 36.8062 37.5277 34.8891 37.5125C34.1804 37.5125 33.4462 37.5531 32.661 37.6038C29.4182 37.8067 25.7471 38.0401 24.4622 34.1486C24.1299 33.0914 24.0137 31.9786 24.1206 30.876C24.166 30.5315 24.2427 30.1919 24.35 29.8613C24.495 29.4798 24.5743 29.0767 24.5846 28.6689C24.5341 28.57 24.4688 28.4793 24.3908 28.4L24.299 28.2884C23.9183 27.7651 23.6754 27.1551 23.5925 26.5143C23.5097 25.8735 23.5896 25.2223 23.8249 24.6201C24.1284 23.848 24.5423 23.1234 25.0537 22.4688L25.3494 22.0477C23.4985 20.0892 22.9581 15.4518 24.4469 13.3462C24.503 13.26 24.5693 13.1788 24.6305 13.0925C24.7845 12.9244 24.904 12.7279 24.9823 12.5141C25.0125 12.3208 25.0125 12.124 24.9823 11.9307V11.7632C24.8497 10.4846 25.538 7.65857 27.0524 6.88229C27.309 6.74933 27.5941 6.67991 27.8835 6.67991C28.1728 6.67991 28.4579 6.74933 28.7145 6.88229C28.9014 5.98656 29.3975 5.18417 30.1167 4.61432C30.8961 4.0389 31.8409 3.72824 32.8114 3.72824C33.7819 3.72824 34.7266 4.0389 35.5061 4.61432C36.5003 3.16323 37.6577 1.76288 39.2332 0.946005C40.8087 0.129132 43.1848 -0.0078583 44.6991 1.31131C44.8953 1.18022 45.0997 1.06159 45.3109 0.956154C46.2605 0.488764 47.3103 0.258812 48.3693 0.286219C49.4284 0.313626 50.4647 0.597565 51.3886 1.11344L51.6385 1.26565C51.9033 1.45973 52.2052 1.59786 52.5257 1.67155C52.8308 1.6821 53.1351 1.63563 53.423 1.53456C53.5658 1.49397 53.7086 1.45338 53.8513 1.42294C54.6048 1.26331 55.3873 1.30452 56.1197 1.5424C56.8521 1.78027 57.5083 2.20638 58.0221 2.77763L58.2056 2.99073C58.343 3.18243 58.5161 3.34606 58.7155 3.47273C59.0432 3.58561 59.395 3.61012 59.7353 3.54376H59.9596C61.3911 3.45961 62.8138 3.81819 64.0324 4.57032C65.251 5.32245 66.206 6.4313 66.7664 7.74482C66.8174 7.86659 66.8684 7.99344 66.9143 8.12028C67.0161 8.43804 67.1583 8.74155 67.3375 9.02341C67.7455 9.54671 68.2126 10.0217 68.7294 10.439C69.5378 11.0585 70.2109 11.8354 70.7077 12.7222C71.3706 14.087 71.34 15.9034 70.6058 18.1156C71.0655 18.4819 71.4391 18.9439 71.7004 19.4691C71.9617 19.9943 72.1045 20.5701 72.1185 21.156C72.1326 21.7419 72.0178 22.3238 71.782 22.8608C71.5462 23.3979 71.1952 23.8771 70.7536 24.2649L70.5956 24.3968C70.3253 24.6302 69.9837 24.9042 70.0194 25.1224C70.0503 25.2123 70.0932 25.2976 70.1469 25.3761L70.1724 25.4268C71.549 27.8267 70.6364 29.704 69.6625 31.6929L69.5197 31.9821C69.2495 32.5402 69.3872 33.3013 69.5197 34.1131C69.7084 35.1532 69.9021 36.2288 69.2546 37.1015C69.0319 37.3455 68.7536 37.5328 68.443 37.6475C68.1325 37.7623 67.7988 37.8012 67.47 37.7611ZM66.3432 36.7057C66.5268 36.7057 66.7256 36.7057 66.9245 36.7057C67.6893 36.7514 68.2094 36.7514 68.4541 36.4368C68.8416 35.9295 68.6937 35.0974 68.5357 34.2298C68.3776 33.3621 68.1941 32.3373 68.6071 31.4798L68.7498 31.1906C69.6676 29.2981 70.3916 27.8064 69.2597 25.8682L69.2291 25.8226C69.1148 25.6439 69.0336 25.4463 68.9895 25.2391C68.8467 24.4628 69.4586 23.9453 69.9072 23.5648L70.0449 23.443C70.3956 23.1371 70.6702 22.7545 70.8471 22.3251C71.0239 21.8957 71.0982 21.4314 71.0641 20.9686C71.03 20.5058 70.8884 20.0572 70.6505 19.6581C70.4126 19.259 70.0849 18.9203 69.6931 18.6686C69.5971 18.6067 69.5249 18.5146 69.4879 18.4069C69.4509 18.2992 69.4513 18.1823 69.4891 18.075C69.999 16.6239 70.4783 14.5792 69.7594 13.1078C69.3183 12.3438 68.729 11.6746 68.0258 11.1392C67.4561 10.6703 66.9428 10.1374 66.4962 9.55108C66.2625 9.19913 66.0788 8.81665 65.9506 8.41455L65.813 8.06447C65.3225 6.95951 64.5068 6.02854 63.4736 5.39445C62.4404 4.76036 61.2383 4.45297 60.0259 4.51285H59.8117C59.2804 4.606 58.7332 4.54432 58.2362 4.33526C57.9168 4.14787 57.6392 3.89753 57.4204 3.59957C57.3643 3.53362 57.3134 3.46766 57.2573 3.40677C56.8593 2.97825 56.3567 2.65956 55.7982 2.48173C55.2398 2.3039 54.6446 2.273 54.0706 2.39202L53.6984 2.48842C53.2802 2.63625 52.8352 2.69334 52.3931 2.65586C51.9228 2.571 51.4771 2.3839 51.0878 2.10789L50.8533 1.96583C50.0775 1.53416 49.2076 1.29744 48.3191 1.27622C47.4305 1.255 46.5502 1.44992 45.7545 1.84406C45.4677 1.98543 45.1961 2.15543 44.9438 2.35143C44.842 2.43062 44.7138 2.46837 44.585 2.45707C44.4563 2.44577 44.3367 2.38625 44.2504 2.29055C43.1236 1.03733 41.0637 1.11851 39.6615 1.82884C38.2594 2.53916 37.1479 3.88878 36.0006 5.624C35.9599 5.68667 35.9057 5.73962 35.842 5.77907C35.7783 5.81852 35.7067 5.84349 35.6322 5.85222C35.5577 5.86094 35.4821 5.8532 35.411 5.82953C35.3398 5.80587 35.2748 5.76687 35.2205 5.71532C34.6216 5.1408 33.8369 4.79681 33.0066 4.74476C32.1763 4.69272 31.3545 4.93601 30.6878 5.4312C30.3382 5.69798 30.0551 6.04139 29.8605 6.43473C29.666 6.82807 29.5652 7.26076 29.566 7.69916C29.5658 7.79676 29.5373 7.89223 29.484 7.97412C29.4306 8.05601 29.3547 8.12085 29.2652 8.16087C29.1765 8.20151 29.0779 8.21594 28.9812 8.20245C28.8845 8.18895 28.7937 8.14811 28.7196 8.08476C28.0058 7.46069 27.5877 7.67379 27.4501 7.74482C26.4762 8.2522 25.8134 10.5151 25.9204 11.6262V11.7734C25.9951 12.1103 25.9849 12.4603 25.8906 12.7923C25.7962 13.1243 25.6208 13.4279 25.38 13.676L25.2219 13.8891C23.9421 15.7106 24.554 20.1451 26.2722 21.5454C26.3687 21.624 26.4328 21.7351 26.4525 21.8575C26.4722 21.98 26.4462 22.1054 26.3793 22.2101C26.2009 22.484 26.0122 22.753 25.8287 23.0168C25.3733 23.5934 25.004 24.2326 24.7324 24.9144C24.5556 25.3537 24.4897 25.8294 24.5404 26.3C24.591 26.7705 24.7568 27.2215 25.0231 27.6136L25.1046 27.7049C25.2869 27.8939 25.4245 28.121 25.5074 28.3696C25.5724 28.96 25.4919 29.5573 25.2729 30.1099C25.1834 30.3709 25.1169 30.6391 25.074 30.9115C24.9779 31.8788 25.0785 32.8555 25.3698 33.7833C26.3895 36.929 29.3825 36.7362 32.508 36.5383C33.2779 36.4876 34.0784 36.4368 34.8126 36.447C36.7298 36.447 38.652 36.4977 40.5742 36.5332C43.1899 36.584 45.8922 36.6347 48.5486 36.6347C50.6748 36.6347 52.7959 36.6347 54.9221 36.6652C56.3293 36.6652 57.7366 36.6753 59.1438 36.6956C61.5096 36.6956 63.8754 36.6956 66.2413 36.6956L66.3432 36.7057Z" fill="black"/>
<path d="M43.9138 52.5511H50.6084V56.3665C50.6084 57.116 50.3092 57.8349 49.7766 58.3648C49.244 58.8948 48.5217 59.1926 47.7684 59.1926H46.7487C45.9955 59.1926 45.2731 58.8948 44.7405 58.3648C44.2079 57.8349 43.9087 57.116 43.9087 56.3665V52.5308L43.9138 52.5511Z" fill="#FFC9B0"/>
<path d="M47.7634 59.7203H46.7437C45.8556 59.7189 45.0044 59.3673 44.3764 58.7424C43.7485 58.1176 43.3951 57.2705 43.3938 56.3868V52.5511C43.3938 52.4165 43.4475 52.2875 43.5431 52.1923C43.6388 52.0972 43.7684 52.0437 43.9037 52.0437H50.5983C50.7335 52.0437 50.8632 52.0972 50.9588 52.1923C51.0545 52.2875 51.1082 52.4165 51.1082 52.5511V56.3665C51.1102 56.8054 51.0252 57.2403 50.8582 57.6465C50.6911 58.0526 50.4452 58.422 50.1346 58.7335C49.8239 59.045 49.4546 59.2925 49.0477 59.4618C48.6408 59.6311 48.2044 59.7189 47.7634 59.7203ZM44.4237 53.0584V56.3665C44.4251 56.9811 44.671 57.5701 45.1077 58.0046C45.5444 58.4392 46.1363 58.6839 46.7539 58.6852H47.7736C48.3921 58.6852 48.9853 58.4411 49.4231 58.0064C49.8609 57.5717 50.1075 56.982 50.1088 56.3665V53.0382L44.4237 53.0584Z" fill="black"/>
<path d="M29.2347 40.8256C32.6166 40.8256 35.3582 38.3291 35.3582 35.2496C35.3582 32.17 32.6166 29.6735 29.2347 29.6735C25.8527 29.6735 23.1111 32.17 23.1111 35.2496C23.1111 38.3291 25.8527 40.8256 29.2347 40.8256Z" fill="#FFC9B0"/>
<path d="M29.2346 41.333C25.5788 41.333 22.6062 38.6033 22.6062 35.2445C22.6062 31.8857 25.5839 29.156 29.2346 29.156C32.8853 29.156 35.8629 31.8857 35.8629 35.2445C35.8629 38.6033 32.8955 41.333 29.2346 41.333ZM29.2346 30.1708C26.1396 30.1708 23.6259 32.4489 23.6259 35.2445C23.6259 38.0402 26.1447 40.3183 29.2346 40.3183C32.3244 40.3183 34.8432 38.0452 34.8432 35.2445C34.8432 32.4438 32.3295 30.1759 29.2346 30.1759V30.1708Z" fill="black"/>
<path d="M64.9411 40.8256C68.323 40.8256 71.0647 38.3291 71.0647 35.2496C71.0647 32.17 68.323 29.6735 64.9411 29.6735C61.5591 29.6735 58.8175 32.17 58.8175 35.2496C58.8175 38.3291 61.5591 40.8256 64.9411 40.8256Z" fill="#FFC9B0"/>
<path d="M64.9411 41.333C61.2802 41.333 58.3127 38.6033 58.3127 35.2445C58.3127 31.8857 61.2904 29.156 64.9411 29.156C68.5918 29.156 71.5695 31.8857 71.5695 35.2445C71.5695 38.6033 68.5969 41.333 64.9411 41.333ZM64.9411 30.1708C61.8411 30.1708 59.3325 32.4489 59.3325 35.2445C59.3325 38.0402 61.8513 40.3183 64.9411 40.3183C68.0309 40.3183 70.5497 38.0452 70.5497 35.2445C70.5497 32.4438 68.036 30.1759 64.9411 30.1759V30.1708Z" fill="black"/>
<path d="M47.2587 53.4237C44.2774 53.4141 41.3371 52.7331 38.658 51.4318C35.9789 50.1304 33.6306 48.2425 31.7891 45.9095C27.2818 40.1661 27.4858 33.3064 27.7917 26.3705C27.7802 25.6656 27.903 24.9649 28.1537 24.3055C28.8828 22.6667 31.6565 22.1949 32.9924 21.033C34.6496 19.6086 35.7535 17.6521 36.1128 15.5026C37.2906 15.6582 38.4886 15.4814 39.5703 14.9926C40.652 14.5037 41.5741 13.7223 42.2313 12.7374C43.5953 13.4707 45.1253 13.8445 46.6755 13.8232C48.2257 13.8018 49.7446 13.3861 51.0878 12.6156C52.0475 14.4103 53.5737 15.8411 55.4313 16.6874C57.2888 17.5337 59.3745 17.7485 61.3669 17.2987C61.4987 18.1122 61.9471 18.8413 62.615 19.3284C63.283 19.8155 64.1167 20.0214 64.936 19.9015C63.4828 20.1806 66.797 26.2894 66.9041 26.883C67.3018 29.0393 66.8684 31.6675 66.8684 33.8848C66.8711 36.4493 66.3659 38.9892 65.3817 41.3593C64.3974 43.7294 62.9535 45.8833 61.1324 47.6979C59.3112 49.5125 57.1486 50.9521 54.7681 51.9346C52.3876 52.9171 49.8358 53.4231 47.2587 53.4237Z" fill="#FFC9B0"/>
<path d="M47.2588 53.9311C44.2001 53.9187 41.1839 53.2186 38.4354 51.8832C35.6869 50.5477 33.2772 48.6114 31.3864 46.219C26.6751 40.2117 26.9964 32.8446 27.2819 26.3452C27.2719 25.5757 27.4086 24.8113 27.6847 24.0924C28.1946 22.9255 29.5049 22.3166 30.7439 21.7281C31.4229 21.4526 32.0623 21.0892 32.6458 20.6474C34.2086 19.2984 35.2521 17.4511 35.5979 15.4214C35.6181 15.2891 35.69 15.1701 35.7979 15.0903C35.9058 15.0105 36.041 14.9763 36.1741 14.9952C37.2535 15.133 38.3502 14.9686 39.3409 14.5205C40.3317 14.0723 41.1773 13.3582 41.7827 12.4583C41.8523 12.3489 41.9613 12.2701 42.0873 12.238C42.2134 12.2059 42.347 12.223 42.4608 12.2858C43.7418 12.9763 45.1793 13.3286 46.636 13.309C48.0927 13.2895 49.5201 12.8988 50.782 12.1742C50.8427 12.138 50.9103 12.1149 50.9806 12.1061C51.0508 12.0974 51.1221 12.1033 51.1899 12.1235C51.3234 12.1663 51.4349 12.2591 51.5009 12.3822C52.4027 14.0772 53.8396 15.4301 55.5902 16.2323C57.3408 17.0345 59.3079 17.2417 61.1885 16.8218C61.2588 16.8039 61.3321 16.8012 61.4036 16.8138C61.475 16.8264 61.5429 16.8541 61.6028 16.8949C61.6626 16.9357 61.713 16.9888 61.7506 17.0505C61.7882 17.1123 61.8121 17.1813 61.8207 17.253C61.9373 17.9282 62.3132 18.5317 62.8689 18.936C63.4246 19.3403 64.1165 19.5137 64.7984 19.4195C64.9275 19.393 65.0619 19.4172 65.1734 19.4871C65.2849 19.557 65.3649 19.6672 65.3966 19.7945C65.4282 19.9218 65.4091 20.0564 65.3432 20.17C65.2773 20.2836 65.1698 20.3674 65.0431 20.4038C64.8035 21.0989 66.2923 24.3512 66.792 25.4319C67.0234 25.8729 67.2161 26.3329 67.3682 26.8069C67.5772 28.3886 67.5994 29.9893 67.4345 31.5762C67.3835 32.3931 67.3376 33.1694 67.3376 33.9C67.3322 39.2021 65.2167 44.2864 61.4538 48.0403C57.6909 51.7943 52.587 53.9123 47.2588 53.9311ZM36.5259 16.0556C36.0739 18.1413 34.9517 20.0239 33.329 21.4186C32.6724 21.921 31.9525 22.3355 31.1875 22.6515C30.1066 23.1589 28.9849 23.6662 28.6382 24.5085C28.4181 25.1132 28.3109 25.7529 28.322 26.3959C28.0314 33.0273 27.7306 39.887 32.2124 45.6C34.6621 48.7161 38.0274 50.9942 41.8397 52.1172C45.6519 53.2401 49.7212 53.1519 53.4807 51.8649C57.2402 50.5778 60.5027 48.156 62.8137 44.9368C65.1248 41.7176 66.3693 37.8613 66.3739 33.905C66.3739 33.1389 66.4249 32.317 66.4759 31.5204C66.6293 30.0145 66.6105 28.4962 66.4198 26.9946C66.3892 26.883 66.1394 26.3401 65.9099 25.8581C64.7015 23.2299 64.0132 21.4795 64.0642 20.4546C63.4289 20.3778 62.8246 20.1383 62.3102 19.7595C61.676 19.307 61.2056 18.6628 60.9693 17.9228C59.0138 18.2498 57.0047 17.9844 55.2027 17.1611C53.4007 16.3378 51.8889 14.9945 50.8636 13.3057C49.5531 13.9623 48.1088 14.3115 46.6417 14.3265C45.1745 14.3414 43.7234 14.0217 42.3997 13.3919C41.7093 14.2746 40.8144 14.9779 39.7916 15.4418C38.7688 15.9056 37.6483 16.1162 36.5259 16.0556Z" fill="black"/>
<path d="M47.1668 37.6495C46.5774 37.6479 45.9892 37.5987 45.4078 37.5023C45.2725 37.4788 45.1522 37.4027 45.0734 37.2909C44.9945 37.1791 44.9635 37.0407 44.9871 36.9062C45.0108 36.7716 45.0872 36.6519 45.1995 36.5734C45.3119 36.4949 45.451 36.464 45.5862 36.4876C46.4961 36.6371 47.4245 36.6371 48.3344 36.4876C48.4925 36.0208 47.8246 34.0319 46.8048 32.1445C46.7457 32.0257 46.7355 31.8887 46.7766 31.7627C46.8176 31.6366 46.9066 31.5315 47.0245 31.4699C47.1423 31.4083 47.2798 31.395 47.4074 31.4329C47.535 31.4707 47.6426 31.5568 47.7073 31.6726C48.2172 32.6112 49.7468 35.7722 49.2369 36.9391C49.179 37.0644 49.0934 37.175 48.9866 37.2628C48.8798 37.3507 48.7545 37.4135 48.62 37.4465C48.1451 37.5697 47.6574 37.6378 47.1668 37.6495Z" fill="black"/>
<path d="M35.9853 79.5434C35.8501 79.5434 35.7204 79.4899 35.6248 79.3948C35.5292 79.2996 35.4755 79.1705 35.4755 79.036V69.4466C35.4755 69.312 35.5292 69.183 35.6248 69.0878C35.7204 68.9927 35.8501 68.9392 35.9853 68.9392C36.1206 68.9392 36.2503 68.9927 36.3459 69.0878C36.4415 69.183 36.4952 69.312 36.4952 69.4466V79.036C36.4952 79.1705 36.4415 79.2996 36.3459 79.3948C36.2503 79.4899 36.1206 79.5434 35.9853 79.5434Z" fill="black"/>
<path d="M58.1903 79.5434C58.0551 79.5434 57.9254 79.4899 57.8298 79.3948C57.7341 79.2996 57.6804 79.1705 57.6804 79.036V69.4466C57.6804 69.312 57.7341 69.183 57.8298 69.0878C57.9254 68.9927 58.0551 68.9392 58.1903 68.9392C58.3255 68.9392 58.4552 68.9927 58.5508 69.0878C58.6464 69.183 58.7002 69.312 58.7002 69.4466V79.036C58.7002 79.1705 58.6464 79.2996 58.5508 79.3948C58.4552 79.4899 58.3255 79.5434 58.1903 79.5434Z" fill="black"/>
<circle cx="40.6353" cy="26.6755" r="2.12447" fill="black"/>
<circle cx="11.6009" cy="35.8816" r="1.41632" fill="black"/>
<circle cx="54.7985" cy="26.6755" r="2.12447" fill="black"/>
<circle cx="21.5151" cy="35.8816" r="1.41632" fill="black"/>
<circle cx="85.2493" cy="35.8816" r="1.41632" fill="black"/>
<path d="M54.8354 42.618H40.4654C40.3227 42.618 40.1858 42.5615 40.0849 42.4611C39.9839 42.3607 39.9272 42.2244 39.9272 42.0824C39.9272 41.9404 39.9839 41.8041 40.0849 41.7037C40.1858 41.6033 40.3227 41.5468 40.4654 41.5468H54.8354C54.9781 41.5468 55.115 41.6033 55.216 41.7037C55.3169 41.8041 55.3736 41.9404 55.3736 42.0824C55.3736 42.2244 55.3169 42.3607 55.216 42.4611C55.115 42.5615 54.9781 42.618 54.8354 42.618Z" fill="black"/>
<path d="M82.1206 45.4559H74.2149C74.1364 45.4559 74.0611 45.3992 74.0055 45.2983C73.95 45.1973 73.9188 45.0604 73.9188 44.9177C73.9188 44.7749 73.95 44.6381 74.0055 44.5371C74.0611 44.4362 74.1364 44.3795 74.2149 44.3795H82.1206C82.1992 44.3795 82.2745 44.4362 82.33 44.5371C82.3855 44.6381 82.4167 44.7749 82.4167 44.9177C82.4167 45.0604 82.3855 45.1973 82.33 45.2983C82.2745 45.3992 82.1992 45.4559 82.1206 45.4559Z" fill="black"/>
<path d="M21.219 45.4559H13.3133C13.2348 45.4559 13.1595 45.3992 13.1039 45.2983C13.0484 45.1973 13.0172 45.0604 13.0172 44.9177C13.0172 44.7749 13.0484 44.6381 13.1039 44.5371C13.1595 44.4362 13.2348 44.3795 13.3133 44.3795H21.219C21.2975 44.3795 21.3729 44.4362 21.4284 44.5371C21.4839 44.6381 21.5151 44.7749 21.5151 44.9177C21.5151 45.0604 21.4839 45.1973 21.4284 45.2983C21.3729 45.3992 21.2975 45.4559 21.219 45.4559Z" fill="black"/>
<circle cx="72.5025" cy="35.8816" r="1.41632" fill="black"/>
</svg>
