<svg width="22" height="21" viewBox="0 0 22 21" fill="none" xmlns="http://www.w3.org/2000/svg">
<path d="M10 4H21" stroke="black" stroke-width="2" stroke-linecap="round" stroke-linejoin="round"/>
<path d="M1 4H4" stroke="black" stroke-width="2" stroke-linecap="round" stroke-linejoin="round"/>
<path d="M18 11H21" stroke="black" stroke-width="2" stroke-linecap="round" stroke-linejoin="round"/>
<path d="M1 11H12" stroke="black" stroke-width="2" stroke-linecap="round" stroke-linejoin="round"/>
<path d="M12 18H21" stroke="black" stroke-width="2" stroke-linecap="round" stroke-linejoin="round"/>
<path d="M1 18H6" stroke="black" stroke-width="2" stroke-linecap="round" stroke-linejoin="round"/>
<path d="M9.5 3.91992C9.49535 4.58904 9.2329 5.2306 8.76726 5.71114C8.30162 6.19169 7.66864 6.4742 7 6.49992C6.33136 6.4742 5.69838 6.19169 5.23274 5.71114C4.7671 5.2306 4.50465 4.58904 4.5 3.91992C4.5 3.25688 4.76339 2.621 5.23223 2.15215C5.70107 1.68331 6.33696 1.41992 7 1.41992C7.66304 1.41992 8.29893 1.68331 8.76777 2.15215C9.23661 2.621 9.5 3.25688 9.5 3.91992Z" stroke="#8F8F8F" stroke-linecap="round" stroke-linejoin="round"/>
<path d="M17.5 10.9199C17.5 11.583 17.2366 12.2188 16.7678 12.6877C16.2989 13.1565 15.663 13.4199 15 13.4199C14.337 13.4199 13.7011 13.1565 13.2322 12.6877C12.7634 12.2188 12.5 11.583 12.5 10.9199C12.5 10.2569 12.7634 9.621 13.2322 9.15215C13.7011 8.68331 14.337 8.41992 15 8.41992C15.663 8.41992 16.2989 8.68331 16.7678 9.15215C17.2366 9.621 17.5 10.2569 17.5 10.9199Z" stroke="#8F8F8F" stroke-linecap="round" stroke-linejoin="round"/>
<path d="M16 11C16 11.2652 15.8946 11.5196 15.7071 11.7071C15.5196 11.8946 15.2652 12 15 12C14.7348 12 14.4804 11.8946 14.2929 11.7071C14.1054 11.5196 14 11.2652 14 11C14 10.7348 14.1054 10.4804 14.2929 10.2929C14.4804 10.1054 14.7348 10 15 10C15.2652 10 15.5196 10.1054 15.7071 10.2929C15.8946 10.4804 16 10.7348 16 11Z" fill="#8F8F8F"/>
<path d="M11.5 17.9199C11.4953 18.589 11.2329 19.2306 10.7673 19.7111C10.3016 20.1917 9.66864 20.4742 9 20.4999C8.33136 20.4742 7.69838 20.1917 7.23274 19.7111C6.7671 19.2306 6.50465 18.589 6.5 17.9199C6.5 17.2569 6.76339 16.621 7.23223 16.1522C7.70107 15.6833 8.33696 15.4199 9 15.4199C9.66304 15.4199 10.2989 15.6833 10.7678 16.1522C11.2366 16.621 11.5 17.2569 11.5 17.9199Z" stroke="#8F8F8F" stroke-linecap="round" stroke-linejoin="round"/>
</svg>
