<svg width="155" height="184" viewBox="0 0 155 184" fill="none" xmlns="http://www.w3.org/2000/svg">
<path d="M130.684 69.9466C126.965 69.9478 123.354 71.1955 120.435 73.4885C117.515 75.7815 115.457 78.9862 114.592 82.5857L109.375 81.2732L114.153 86.9899C114.266 90.2214 115.332 93.3481 117.219 95.9805C119.106 98.6128 121.73 100.634 124.764 101.793C127.797 102.951 131.106 103.195 134.278 102.495C137.451 101.795 140.345 100.181 142.602 97.8542C144.859 95.5277 146.377 92.5917 146.968 89.4123C147.559 86.2329 147.197 82.9506 145.926 79.9748C144.655 76.999 142.532 74.4613 139.822 72.678C137.111 70.8947 133.933 69.9447 130.684 69.9466Z" fill="white"/>
<path d="M130.684 103.868C126.191 103.883 121.866 102.174 118.608 99.0948C115.35 96.016 113.411 91.8056 113.195 87.34L108.593 81.8955C108.478 81.7318 108.416 81.5366 108.416 81.3365C108.416 81.1364 108.478 80.9411 108.593 80.7774C108.703 80.6015 108.867 80.4651 109.06 80.3881C109.253 80.3111 109.466 80.2977 109.668 80.3496L113.947 81.4288C114.882 78.3321 116.663 75.5548 119.092 73.4071C121.521 71.2594 124.502 69.8259 127.703 69.2666C130.903 68.7072 134.196 69.0441 137.215 70.2396C140.234 71.4352 142.86 73.4422 144.799 76.0367C146.738 78.6312 147.914 81.711 148.196 84.9321C148.478 88.1533 147.855 91.3891 146.396 94.2781C144.937 97.1671 142.699 99.5957 139.933 101.293C137.167 102.989 133.982 103.888 130.733 103.888L130.684 103.868ZM112.042 82.9455L114.905 86.3678C115.044 86.535 115.123 86.7437 115.13 86.9609C115.266 90.8903 116.898 94.6214 119.694 97.3992C122.49 100.177 126.242 101.794 130.191 101.924C134.14 102.053 137.991 100.685 140.965 98.0957C143.939 95.5068 145.813 91.8905 146.209 87.9785C146.605 84.0665 145.493 80.1509 143.098 77.024C140.702 73.897 137.203 71.7922 133.307 71.1354C129.411 70.4786 125.411 71.3189 122.114 73.4862C118.817 75.6535 116.471 78.986 115.55 82.8094C115.52 82.9351 115.465 83.0537 115.389 83.1582C115.313 83.2626 115.216 83.3509 115.105 83.4179C114.994 83.4849 114.871 83.5292 114.743 83.5482C114.614 83.5673 114.484 83.5607 114.358 83.5289L112.042 82.9455Z" fill="black"/>
<path d="M54.593 17.1737C54.593 17.1737 47.0406 14.6653 39.8594 23.4154C32.9518 31.8836 32.2288 44.0852 32.6196 54.5271C33.0691 66.5634 39.1853 76.5483 38.091 88.8762C37.7931 90.7736 37.7931 92.7054 38.091 94.6027C38.7435 96.9345 40.0845 99.0175 41.9405 100.582C47.2946 105.579 54.6418 108.078 62.0184 108.467C69.395 108.856 76.6738 107.281 83.6498 104.977C89.0528 103.178 94.573 100.738 97.9242 96.1486C101.627 91.0735 101.432 85.2109 101.549 79.2608C101.656 73.7968 104.197 68.6926 104.939 63.1703C106.6 50.7451 105.096 37.7754 98.7937 26.7599C89.6194 10.7763 65.1742 3.49426 54.593 17.1737Z" fill="#725858"/>
<path d="M64.2167 109.526C63.4415 109.526 62.6795 109.507 61.9304 109.468C53.7429 109.031 46.3957 106.133 41.2272 101.311C39.2172 99.6275 37.7747 97.3708 37.0944 94.8457C36.8161 93.1099 36.8161 91.3411 37.0944 89.6053L37.1627 88.8178C37.7587 82.1094 36.1857 76.1787 34.5345 69.9467C33.2351 65.0855 31.8966 60.0201 31.6914 54.595C31.3103 44.5323 31.8184 31.8252 39.1461 22.8417C45.487 15.0638 52.1406 15.6471 54.2607 16.036C58.4326 10.9998 64.7833 8.52061 72.238 9.0359C77.8489 9.56063 83.2547 11.4019 88.0119 14.4085C92.7691 17.4151 96.742 21.5014 99.6046 26.332C105.555 36.735 107.714 49.5296 105.867 63.3646C105.493 65.7675 104.941 68.1396 104.216 70.4619C103.26 73.335 102.679 76.3182 102.487 79.3385V80.6121C102.399 86.1247 102.311 91.822 98.696 96.7804C95.081 101.739 88.9257 104.315 83.9331 105.949C77.597 108.188 70.9394 109.397 64.2167 109.526ZM51.9256 17.8055C49.3267 17.8055 44.9399 18.7777 40.6117 24.0667C33.6943 32.5446 33.2253 44.7948 33.5868 54.5172C33.7822 59.7381 35.0915 64.6771 36.3616 69.4508C37.9932 75.5954 39.6835 81.9441 39.0484 88.9928L38.98 89.79C38.7354 91.3263 38.7354 92.8913 38.98 94.4276C39.59 96.5668 40.8326 98.474 42.5462 99.9013C47.4313 104.403 54.2705 107.115 62.0086 107.524C68.3104 107.864 75.2571 106.736 83.2785 104.082C88.2418 102.429 93.7718 100.144 97.0741 95.6137C100.376 91.0831 100.406 85.9983 100.494 80.5538V79.2704C100.691 76.0854 101.299 72.9389 102.301 69.9078C102.988 67.6782 103.52 65.4043 103.894 63.1021C105.144 53.7589 105.115 39.9628 97.8655 27.2945C95.1602 22.746 91.4107 18.8997 86.9239 16.0708C82.4372 13.2419 77.3409 11.5108 72.0524 11.0193C65.0276 10.5331 59.097 12.9637 55.3648 17.7666C55.241 17.9271 55.0701 18.0453 54.8757 18.1045C54.6813 18.1638 54.4731 18.1612 54.2803 18.0972C53.5133 17.8889 52.7205 17.7907 51.9256 17.8055Z" fill="black"/>
<path d="M50.382 97.9471H74.5537C79.078 97.9471 83.417 99.7356 86.6161 102.919C89.8153 106.103 91.6126 110.42 91.6126 114.922V158.236H33.3622V114.913C33.3647 110.419 35.1578 106.11 38.3482 102.929C41.5387 99.7491 45.8661 97.9574 50.382 97.9471Z" fill="#D9D9D9"/>
<path d="M91.6028 159.198H33.3622C33.103 159.198 32.8545 159.096 32.6713 158.913C32.4881 158.731 32.3851 158.484 32.3851 158.226V114.913C32.3903 110.155 34.2925 105.594 37.674 102.231C41.0556 98.8679 45.6401 96.9775 50.4211 96.9749H74.5927C79.372 96.9801 83.954 98.8716 87.3335 102.234C90.7129 105.597 92.6137 110.157 92.6189 114.913V158.226C92.619 158.357 92.5925 158.487 92.541 158.607C92.4894 158.728 92.414 158.837 92.3191 158.928C92.2242 159.018 92.1118 159.089 91.9887 159.136C91.8656 159.182 91.7344 159.203 91.6028 159.198ZM34.3001 157.254H90.6258V114.913C90.6206 110.673 88.9256 106.608 85.9126 103.609C82.8997 100.611 78.8147 98.9245 74.5537 98.9194H50.382C46.1261 98.9322 42.0486 100.622 39.0419 103.62C36.0353 106.617 34.3443 110.678 34.3392 114.913L34.3001 157.254Z" fill="black"/>
<path d="M153.058 157.069H1.60876V183.028H153.058V157.069Z" fill="white"/>
<path d="M153.048 184H1.60874C1.34962 184 1.10111 183.898 0.917878 183.715C0.73465 183.533 0.631714 183.286 0.631714 183.028V157.069C0.631714 156.811 0.73465 156.564 0.917878 156.382C1.10111 156.199 1.34962 156.097 1.60874 156.097H153.048C153.307 156.097 153.556 156.199 153.739 156.382C153.922 156.564 154.025 156.811 154.025 157.069V183.028C154.025 183.286 153.922 183.533 153.739 183.715C153.556 183.898 153.307 184 153.048 184ZM2.58577 182.056H152.071V158.041H2.58577V182.056Z" fill="black"/>
<path d="M73.3714 98.6861L68.5254 134.989L63.4253 98.6861H73.3714Z" fill="white"/>
<path d="M68.5352 135.962C68.2966 135.964 68.0656 135.879 67.8856 135.723C67.7056 135.567 67.5892 135.351 67.5582 135.116L62.4581 98.8221C62.4386 98.6855 62.4486 98.5464 62.4874 98.414C62.5261 98.2816 62.5927 98.1589 62.6828 98.054C62.7745 97.9473 62.8884 97.8616 63.0166 97.8029C63.1448 97.7441 63.2842 97.7137 63.4253 97.7137H73.4203C73.5598 97.7151 73.6974 97.7462 73.8238 97.8049C73.9501 97.8636 74.0625 97.9486 74.1531 98.054C74.2449 98.1581 74.3133 98.2804 74.3537 98.4129C74.3942 98.5453 74.4057 98.6848 74.3876 98.8221L69.5025 135.116C69.4715 135.351 69.355 135.567 69.175 135.723C68.995 135.879 68.764 135.964 68.5254 135.962H68.5352ZM64.5587 99.6582L68.4668 127.785L72.2284 99.6582H64.5587Z" fill="black"/>
<path d="M68.5351 135.962C68.3237 135.962 68.118 135.893 67.9489 135.767L54.0067 125.5C53.8977 125.42 53.8066 125.318 53.7393 125.201C53.6721 125.084 53.63 124.954 53.6159 124.82C53.6019 124.685 53.6164 124.549 53.6585 124.42C53.7006 124.291 53.7693 124.172 53.8602 124.071L59.654 117.703L53.2544 111.656C53.0811 111.49 52.9753 111.266 52.9573 111.028C52.9393 110.789 53.0103 110.552 53.1567 110.362L62.673 98.0928C62.8368 97.9067 63.0658 97.7897 63.3134 97.7657C63.5609 97.7417 63.8083 97.8126 64.0051 97.9638C64.202 98.1151 64.3335 98.3353 64.3728 98.5797C64.4121 98.8241 64.3562 99.0741 64.2167 99.279L55.2573 110.849L61.6959 116.945C61.8787 117.119 61.986 117.358 61.9951 117.61C62.0043 117.863 61.9145 118.108 61.7448 118.296L56.039 124.577L69.1018 134.202C69.2052 134.278 69.2925 134.373 69.3588 134.483C69.4251 134.592 69.469 134.714 69.4881 134.84C69.5072 134.966 69.501 135.095 69.4699 135.219C69.4388 135.343 69.3834 135.46 69.307 135.563C69.218 135.684 69.102 135.783 68.9681 135.852C68.8342 135.922 68.686 135.959 68.5351 135.962Z" fill="black"/>
<path d="M69.1116 135.962C68.9168 135.95 68.7299 135.881 68.5749 135.763C68.4199 135.645 68.3039 135.484 68.2419 135.3C68.1798 135.116 68.1746 134.918 68.2269 134.73C68.2792 134.543 68.3865 134.376 68.5352 134.25L81.6078 124.625L75.8922 118.345C75.7161 118.163 75.6176 117.921 75.6176 117.669C75.6176 117.417 75.7161 117.174 75.8922 116.993L82.3503 110.897L73.4203 99.2498C73.342 99.1483 73.2846 99.0325 73.2513 98.9089C73.2181 98.7853 73.2096 98.6564 73.2264 98.5296C73.2431 98.4027 73.2849 98.2804 73.3492 98.1696C73.4135 98.0588 73.499 97.9617 73.601 97.8838C73.703 97.8059 73.8195 97.7488 73.9436 97.7157C74.0678 97.6826 74.1974 97.6741 74.3248 97.6908C74.4523 97.7075 74.5752 97.7491 74.6866 97.813C74.7979 97.877 74.8955 97.9622 74.9738 98.0637L84.4607 110.333C84.6072 110.523 84.6782 110.76 84.6601 110.998C84.6421 111.237 84.5363 111.461 84.363 111.626L77.9732 117.722L83.767 124.091C83.8579 124.191 83.9266 124.31 83.9687 124.439C84.0107 124.568 84.0252 124.704 84.0113 124.839C83.9972 124.973 83.9551 125.103 83.8878 125.22C83.8206 125.338 83.7295 125.439 83.6205 125.52L69.688 135.787C69.5192 135.904 69.3175 135.965 69.1116 135.962Z" fill="black"/>
<path d="M64.0311 92.9985H73.9772V98.6958C73.9772 99.8098 73.5325 100.878 72.741 101.666C71.9494 102.453 70.8759 102.896 69.7565 102.896H68.2518C67.1324 102.896 66.0589 102.453 65.2673 101.666C64.4758 100.878 64.0311 99.8098 64.0311 98.6958V92.9985Z" fill="#FFC9B0"/>
<path d="M69.7467 103.868H68.2518C66.8724 103.865 65.5503 103.318 64.5758 102.347C63.6013 101.375 63.054 100.059 63.054 98.686V92.9984C63.054 92.7406 63.157 92.4933 63.3402 92.3109C63.5234 92.1286 63.7719 92.0262 64.031 92.0262H73.9674C74.2265 92.0262 74.4751 92.1286 74.6583 92.3109C74.8415 92.4933 74.9444 92.7406 74.9444 92.9984V98.686C74.9444 100.059 74.3971 101.375 73.4226 102.347C72.4481 103.318 71.1261 103.865 69.7467 103.868ZM65.0081 93.9707V98.686C65.0081 99.543 65.3495 100.365 65.9575 100.972C66.5656 101.579 67.3906 101.921 68.2518 101.924H69.7467C70.6079 101.921 71.4329 101.579 72.0409 100.972C72.649 100.365 72.9904 99.543 72.9904 98.686V93.9707H65.0081Z" fill="black"/>
<path d="M86.7176 42.7143L77.3284 30.6585C77.3284 30.6585 75.2083 38.0767 73.9088 42.6754H59.0482L55.5505 31.903L51.4274 42.6559H39.8985V65.3772C39.8985 69.1853 40.6524 72.9561 42.1172 76.4742C43.5819 79.9923 45.7289 83.1889 48.4354 85.8811C51.1418 88.5734 54.3548 90.7088 57.8907 92.1652C61.4267 93.6216 65.2163 94.3706 69.0432 94.3693C76.7703 94.3693 84.1809 91.3148 89.6447 85.8777C95.1086 80.4406 98.1782 73.0664 98.1782 65.3772V42.7532L86.7176 42.7143Z" fill="#FFC9B0"/>
<path d="M69.0041 95.2638C61.0194 95.2561 53.3638 92.0969 47.7168 86.4795C42.0698 80.862 38.8927 73.245 38.8823 65.2994V42.5782C38.8823 42.3203 38.9853 42.073 39.1685 41.8907C39.3517 41.7084 39.6002 41.6059 39.8594 41.6059H50.7141L54.6222 31.4946C54.6953 31.2989 54.8298 31.1317 55.0057 31.0179C55.1817 30.904 55.3898 30.8496 55.5993 30.8627C55.8032 30.8676 56.0004 30.9358 56.1634 31.0579C56.3263 31.1799 56.4468 31.3496 56.5079 31.5433L59.7419 41.6643H73.1467C74.3973 37.0947 76.3513 30.3863 76.3513 30.3863C76.4009 30.2138 76.4975 30.0583 76.6304 29.937C76.7633 29.8158 76.9274 29.7335 77.1044 29.6992C77.2814 29.665 77.4645 29.6802 77.6333 29.7431C77.8022 29.8061 77.9503 29.9142 78.0611 30.0557L87.1964 41.7226H98.1391C98.3982 41.7226 98.6467 41.825 98.8299 42.0074C99.0132 42.1897 99.1161 42.437 99.1161 42.6948V65.2411C99.1213 73.1951 95.9523 80.8256 90.3058 86.4554C84.6592 92.0852 76.9973 95.2535 69.0041 95.2638ZM40.8364 43.5504V65.2994C40.9738 72.6416 44.0014 79.637 49.268 84.781C54.5346 89.9251 61.6195 92.807 68.9992 92.807C76.3789 92.807 83.4639 89.9251 88.7305 84.781C93.9971 79.637 97.0246 72.6416 97.162 65.2994V43.7157H86.7176C86.5692 43.7165 86.4226 43.6836 86.2888 43.6196C86.1551 43.5556 86.0378 43.4621 85.9458 43.3462L77.7094 32.7975L74.7783 42.9671C74.7192 43.1774 74.5907 43.3617 74.4135 43.4905C74.2362 43.6192 74.0206 43.6849 73.8013 43.6768H58.9407C58.7347 43.6766 58.534 43.6117 58.3673 43.4912C58.2006 43.3707 58.0764 43.2009 58.0125 43.006L55.3648 34.8586L52.2285 43.0254C52.1587 43.2115 52.0332 43.3718 51.869 43.4848C51.7048 43.5978 51.5097 43.658 51.3101 43.6574L40.8364 43.5504Z" fill="black"/>
<path d="M68.8576 71.0551C67.9709 71.0496 67.0858 70.9781 66.2098 70.8412C66.0834 70.8189 65.9627 70.772 65.8545 70.7033C65.7463 70.6345 65.6528 70.5452 65.5793 70.4405C65.5058 70.3358 65.4537 70.2176 65.4261 70.0929C65.3985 69.9681 65.3959 69.8392 65.4184 69.7134C65.4408 69.5876 65.4879 69.4675 65.557 69.3598C65.6261 69.2521 65.7158 69.1591 65.8211 69.0859C65.9264 69.0128 66.0451 68.961 66.1704 68.9336C66.2958 68.9061 66.4254 68.9035 66.5518 68.9259C67.8249 69.1359 69.1223 69.1555 70.4013 68.9842C70.4697 68.1189 69.4731 65.3578 68.1346 62.8105C68.0642 62.6967 68.0182 62.5698 67.9994 62.4375C67.9806 62.3053 67.9894 62.1706 68.0252 62.0418C68.061 61.9131 68.1231 61.7931 68.2076 61.6893C68.292 61.5855 68.3971 61.5002 68.5162 61.4386C68.6353 61.3769 68.7659 61.3404 68.8998 61.3313C69.0337 61.3221 69.1681 61.3405 69.2945 61.3853C69.421 61.4301 69.5368 61.5004 69.6348 61.5917C69.7327 61.683 69.8107 61.7934 69.8639 61.916C70.8409 63.7341 72.9513 68.1578 72.1501 69.9273C72.0543 70.1482 71.9082 70.3439 71.7234 70.4991C71.5386 70.6544 71.3201 70.7648 71.0852 70.8218C70.3546 70.9873 69.6068 71.0657 68.8576 71.0551Z" fill="black"/>
<path d="M61.0218 53.8269H48.1544C47.6361 53.8269 47.1391 53.622 46.7726 53.2574C46.4062 52.8927 46.2003 52.3981 46.2003 51.8824C46.2003 51.3667 46.4062 50.8721 46.7726 50.5074C47.1391 50.1428 47.6361 49.9379 48.1544 49.9379H61.0121C61.5303 49.9379 62.0273 50.1428 62.3938 50.5074C62.7602 50.8721 62.9661 51.3667 62.9661 51.8824C62.9661 52.3981 62.7602 52.8927 62.3938 53.2574C62.0273 53.622 61.5303 53.8269 61.0121 53.8269H61.0218Z" fill="black"/>
<path d="M79.3606 54.1478C78.8424 54.1607 78.3402 53.9682 77.9646 53.6127C77.589 53.2572 77.3707 52.7677 77.3577 52.252C77.3448 51.7363 77.5382 51.2366 77.8955 50.8628C78.2528 50.489 78.7447 50.2718 79.2629 50.2589L92.1109 49.5978C92.6291 49.5707 93.1369 49.7496 93.5226 50.0951C93.9083 50.4406 94.1403 50.9245 94.1675 51.4402C94.1947 51.9559 94.0149 52.4612 93.6677 52.845C93.3205 53.2288 92.8343 53.4597 92.316 53.4867L79.4681 54.1381L79.3606 54.1478Z" fill="black"/>
<path d="M70.8409 82.2649C64.7052 82.2649 58.1396 78.9302 57.7585 78.726C57.6442 78.6674 57.5425 78.587 57.4595 78.4893C57.3764 78.3916 57.3136 78.2785 57.2746 78.1565C57.2355 78.0346 57.2211 77.9062 57.232 77.7787C57.243 77.6512 57.2791 77.527 57.3384 77.4135C57.4589 77.1853 57.6656 77.0141 57.9129 76.9376C58.1603 76.861 58.428 76.8853 58.6574 77.0051C58.7844 77.0635 71.1438 83.3538 76.6445 78.4829C76.8397 78.3271 77.0875 78.2517 77.3369 78.2723C77.5863 78.2929 77.8182 78.408 77.9849 78.5938C78.1515 78.7795 78.2402 79.0219 78.2325 79.2708C78.2249 79.5197 78.1216 79.7562 77.9439 79.9316C75.9511 81.5627 73.418 82.3948 70.8409 82.2649Z" fill="black"/>
<path d="M87.8315 64.5896C87.5723 64.5896 87.3238 64.4872 87.1406 64.3048C86.9574 64.1225 86.8544 63.8752 86.8544 63.6173C86.8088 62.7881 86.4456 62.0078 85.8395 61.4368C85.2335 60.8659 84.4306 60.5477 83.596 60.5477C82.7615 60.5477 81.9586 60.8659 81.3526 61.4368C80.7465 62.0078 80.3833 62.7881 80.3377 63.6173C80.3377 63.8752 80.2347 64.1225 80.0515 64.3048C79.8683 64.4872 79.6198 64.5896 79.3606 64.5896C79.1015 64.5896 78.853 64.4872 78.6698 64.3048C78.4865 64.1225 78.3836 63.8752 78.3836 63.6173C78.4418 62.2805 79.0164 61.0177 79.9875 60.0923C80.9587 59.1668 82.2514 58.6502 83.596 58.6502C84.9407 58.6502 86.2334 59.1668 87.2046 60.0923C88.1757 61.0177 88.7503 62.2805 88.8085 63.6173C88.8085 63.8752 88.7056 64.1225 88.5223 64.3048C88.3391 64.4872 88.0906 64.5896 87.8315 64.5896Z" fill="black"/>
<path d="M58.8235 64.5897C58.5644 64.5897 58.3159 64.4873 58.1327 64.3049C57.9494 64.1226 57.8465 63.8753 57.8465 63.6175C57.8465 62.7588 57.5037 61.9353 56.8936 61.3282C56.2834 60.721 55.4559 60.3799 54.593 60.3799C53.7301 60.3799 52.9026 60.721 52.2924 61.3282C51.6823 61.9353 51.3395 62.7588 51.3395 63.6175C51.3395 63.8753 51.2366 64.1226 51.0533 64.3049C50.8701 64.4873 50.6216 64.5897 50.3625 64.5897C50.1033 64.5897 49.8548 64.4873 49.6716 64.3049C49.4884 64.1226 49.3854 63.8753 49.3854 63.6175C49.3854 62.2431 49.9341 60.925 50.9107 59.9532C51.8873 58.9814 53.2119 58.4354 54.593 58.4354C55.9741 58.4354 57.2987 58.9814 58.2753 59.9532C59.2519 60.925 59.8006 62.2431 59.8006 63.6175C59.8006 63.8753 59.6976 64.1226 59.5144 64.3049C59.3312 64.4873 59.0827 64.5897 58.8235 64.5897Z" fill="black"/>
<path d="M87.8315 147.201C87.5724 147.201 87.3239 147.098 87.1406 146.916C86.9574 146.734 86.8545 146.486 86.8545 146.229V116.293C86.8545 116.035 86.9574 115.788 87.1406 115.606C87.3239 115.423 87.5724 115.321 87.8315 115.321C88.0906 115.321 88.3391 115.423 88.5224 115.606C88.7056 115.788 88.8085 116.035 88.8085 116.293V146.229C88.8085 146.486 88.7056 146.734 88.5224 146.916C88.3391 147.098 88.0906 147.201 87.8315 147.201Z" fill="black"/>
<path d="M108.505 55.3339C108.246 55.3339 107.998 55.2315 107.814 55.0492C107.631 54.8668 107.528 54.6195 107.528 54.3617V38.417C107.528 18.7 90.2349 2.65804 68.9846 2.65804C47.7342 2.65804 30.431 18.7 30.431 38.417V54.3617C30.431 54.6195 30.3281 54.8668 30.1449 55.0492C29.9617 55.2315 29.7131 55.3339 29.454 55.3339C29.1949 55.3339 28.9464 55.2315 28.7632 55.0492C28.5799 54.8668 28.477 54.6195 28.477 54.3617V38.417C28.477 17.6305 46.6399 0.713562 68.9748 0.713562C91.3097 0.713562 109.473 17.6305 109.473 38.417V54.3617C109.473 54.6179 109.371 54.8637 109.19 55.0457C109.009 55.2278 108.763 55.3314 108.505 55.3339Z" fill="black"/>
<path d="M103.757 49.6464H102.887C100.265 49.6464 98.1391 51.7619 98.1391 54.3715V67.7884C98.1391 70.398 100.265 72.5135 102.887 72.5135H103.757C106.379 72.5135 108.505 70.398 108.505 67.7884V54.3715C108.505 51.7619 106.379 49.6464 103.757 49.6464Z" fill="#F56132"/>
<path d="M103.757 73.4856H102.887C101.37 73.483 99.915 72.8819 98.8419 71.8141C97.7687 70.7462 97.1647 69.2985 97.1621 67.7883V54.3617C97.1647 52.8523 97.769 51.4057 98.8425 50.3393C99.9159 49.273 101.371 48.6741 102.887 48.6741H103.757C105.274 48.6741 106.729 49.273 107.802 50.3393C108.875 51.4057 109.48 52.8523 109.482 54.3617V67.7883C109.48 69.2985 108.876 70.7462 107.803 71.8141C106.729 72.8819 105.275 73.483 103.757 73.4856ZM102.887 50.638C101.889 50.638 100.931 51.032 100.224 51.7337C99.5172 52.4354 99.1187 53.3875 99.1162 54.3811V67.8077C99.1162 68.803 99.5135 69.7576 100.221 70.4614C100.928 71.1652 101.887 71.5606 102.887 71.5606H103.757C104.252 71.5606 104.743 71.4635 105.2 71.2749C105.658 71.0863 106.074 70.8099 106.424 70.4614C106.774 70.1129 107.052 69.6992 107.241 69.2439C107.431 68.7886 107.528 68.3006 107.528 67.8077V54.3617C107.526 53.368 107.127 52.416 106.42 51.7143C105.713 51.0126 104.756 50.6185 103.757 50.6185L102.887 50.638Z" fill="black"/>
<path d="M35.111 49.6464H34.2415C31.619 49.6464 29.4931 51.7619 29.4931 54.3715V67.7884C29.4931 70.398 31.619 72.5135 34.2415 72.5135H35.111C37.7335 72.5135 39.8594 70.398 39.8594 67.7884V54.3715C39.8594 51.7619 37.7335 49.6464 35.111 49.6464Z" fill="#F56132"/>
<path d="M35.1111 73.4857H34.2415C32.7238 73.4831 31.2691 72.882 30.1959 71.8141C29.1227 70.7462 28.5187 69.2986 28.5161 67.7884V54.3618C28.5239 52.8558 29.1305 51.4141 30.2034 50.352C31.2763 49.2898 32.7281 48.6936 34.2415 48.6936H35.1111C36.6278 48.6936 38.0826 49.2925 39.1561 50.3589C40.2295 51.4252 40.8338 52.8719 40.8364 54.3812V67.8078C40.8287 69.3147 40.2224 70.7573 39.1498 71.821C38.0772 72.8847 36.6254 73.4831 35.1111 73.4857ZM34.2415 50.6381C33.243 50.6381 32.2852 51.0321 31.5782 51.7338C30.8712 52.4355 30.4728 53.3876 30.4702 54.3812V67.8078C30.4702 68.8031 30.8675 69.7577 31.5748 70.4615C32.282 71.1653 33.2413 71.5607 34.2415 71.5607H35.1111C36.1113 71.5607 37.0705 71.1653 37.7778 70.4615C38.4851 69.7577 38.8824 68.8031 38.8824 67.8078V54.3618C38.8798 53.3681 38.4813 52.4161 37.7743 51.7144C37.0674 51.0127 36.1096 50.6186 35.1111 50.6186L34.2415 50.6381Z" fill="black"/>
<path d="M56.8694 87.9623H56.7229L34.0949 84.5109C33.8619 84.4757 33.6496 84.3579 33.4969 84.1793C33.3443 84.0006 33.2617 83.7731 33.2644 83.5386V72.5134C33.2644 72.2556 33.3673 72.0083 33.5506 71.826C33.7338 71.6436 33.9823 71.5412 34.2414 71.5412C34.5006 71.5412 34.7491 71.6436 34.9323 71.826C35.1155 72.0083 35.2185 72.2556 35.2185 72.5134V82.7219L57.016 86.047C57.1431 86.066 57.2651 86.1097 57.3752 86.1758C57.4853 86.2418 57.5812 86.3288 57.6574 86.4317C57.7336 86.5347 57.7887 86.6516 57.8195 86.7758C57.8503 86.8999 57.8561 87.0289 57.8367 87.1553C57.7974 87.382 57.6786 87.5874 57.5016 87.7351C57.3245 87.8829 57.1005 87.9634 56.8694 87.9623Z" fill="black"/>
<path d="M58.0907 90.1401C60.0279 90.1401 61.5983 88.5774 61.5983 86.6498C61.5983 84.7221 60.0279 83.1594 58.0907 83.1594C56.1536 83.1594 54.5832 84.7221 54.5832 86.6498C54.5832 88.5774 56.1536 90.1401 58.0907 90.1401Z" fill="#FFBC0E"/>
<path d="M58.0907 91.1026C57.205 91.1026 56.3391 90.8416 55.6023 90.3525C54.8655 89.8635 54.2907 89.1682 53.9504 88.3545C53.6101 87.5408 53.5196 86.645 53.6903 85.7801C53.861 84.9153 54.2852 84.1201 54.9095 83.4948C55.5337 82.8696 56.33 82.4423 57.198 82.2668C58.066 82.0914 58.9667 82.1756 59.7867 82.5089C60.6066 82.8422 61.309 83.4096 61.8053 84.1396C62.3016 84.8696 62.5695 85.7295 62.5753 86.6109C62.5791 87.1994 62.466 87.7828 62.2424 88.3276C62.0187 88.8724 61.689 89.3678 61.2722 89.7853C60.8554 90.2028 60.3597 90.5341 59.8137 90.7602C59.2677 90.9863 58.6821 91.1026 58.0907 91.1026ZM58.0907 84.1317C57.5886 84.1317 57.0978 84.2805 56.6809 84.5589C56.2639 84.8374 55.9397 85.233 55.7493 85.6953C55.559 86.1577 55.5112 86.666 55.6121 87.1555C55.7129 87.645 55.9579 88.0936 56.3157 88.4442C56.6735 88.7947 57.128 89.0314 57.6214 89.1242C58.1149 89.2169 58.6248 89.1614 59.0865 88.9649C59.5481 88.7683 59.9406 88.4395 60.2139 88.0203C60.4872 87.6011 60.629 87.1105 60.6212 86.6109C60.611 85.9498 60.3398 85.3193 59.8664 84.8554C59.3929 84.3916 58.7551 84.1316 58.0907 84.1317Z" fill="black"/>
<path d="M73.4203 151.284C70.5674 151.284 54.7396 153.229 49.4441 151.867L49.5809 135.631L35.8145 137.167C35.8145 137.352 35.1111 142.602 34.945 147.269C34.6909 155.047 36.303 164.507 40.9635 166.714C44.1877 168.24 69.7858 160.686 69.7858 160.686C69.7858 160.686 84.2263 166.733 84.6464 160.686C85.0665 154.638 76.2635 151.284 73.4203 151.284Z" fill="#FFC9B0"/>
<path d="M42.3117 167.793C41.7112 167.826 41.1101 167.74 40.5433 167.54C35.2673 165.051 33.7041 155.018 33.9679 147.191C34.1242 142.816 34.7202 137.955 34.8374 137.021C34.8587 136.798 34.9569 136.589 35.1154 136.43C35.2738 136.27 35.4829 136.17 35.707 136.146L49.4733 134.669C49.6104 134.653 49.7491 134.667 49.8805 134.709C50.0118 134.751 50.1328 134.82 50.2354 134.912C50.3361 135.005 50.4159 135.118 50.4698 135.243C50.5237 135.369 50.5503 135.504 50.548 135.641L50.4112 151.08C54.5538 151.809 63.3862 151.08 68.7891 150.633C71.007 150.448 72.6191 150.312 73.4105 150.312C77.1888 150.679 80.7235 152.334 83.4152 154.998C84.1695 155.737 84.7567 156.627 85.1375 157.61C85.5183 158.592 85.6839 159.644 85.6233 160.695C85.6029 161.267 85.4404 161.824 85.1506 162.318C84.8608 162.812 84.4525 163.226 83.9624 163.525C80.3571 165.732 71.7398 162.465 69.7271 161.658C65.2914 162.961 48.4083 167.793 42.3117 167.793ZM36.6938 138.003C36.4788 139.753 36.0489 143.681 35.9219 147.249C35.6679 154.813 37.2702 163.836 41.3835 165.78C43.1812 166.636 57.0941 163.35 69.5024 159.694C69.717 159.617 69.9521 159.617 70.1667 159.694C73.899 161.259 80.6698 163.223 82.9365 161.833C83.1631 161.696 83.3505 161.503 83.4805 161.274C83.6106 161.044 83.679 160.784 83.679 160.52C83.7138 159.734 83.5801 158.95 83.287 158.219C82.994 157.488 82.5481 156.828 81.979 156.282C79.655 154.018 76.6406 152.589 73.4105 152.218C72.6973 152.218 71.0461 152.363 68.9455 152.529C62.6925 153.044 53.2446 153.831 49.1802 152.762C48.967 152.705 48.7796 152.578 48.6483 152.401C48.517 152.225 48.4496 152.009 48.4572 151.79L48.5842 136.652L36.6938 138.003Z" fill="black"/>
<path d="M51.1831 114.913V140.259H33.3231V114.913" fill="#D9D9D9"/>
<path d="M51.1832 141.231H33.3622C33.103 141.231 32.8545 141.129 32.6713 140.946C32.4881 140.764 32.3851 140.517 32.3851 140.259V114.913C32.3851 114.655 32.4881 114.407 32.6713 114.225C32.8545 114.043 33.103 113.94 33.3622 113.94C33.6213 113.94 33.8698 114.043 34.053 114.225C34.2363 114.407 34.3392 114.655 34.3392 114.913V139.287H50.2452V114.913C50.2452 114.655 50.3481 114.407 50.5314 114.225C50.7146 114.043 50.9631 113.94 51.2222 113.94C51.4814 113.94 51.7299 114.043 51.9131 114.225C52.0963 114.407 52.1993 114.655 52.1993 114.913V140.259C52.1994 140.39 52.1729 140.52 52.1213 140.64C52.0698 140.761 51.9943 140.87 51.8994 140.96C51.8045 141.051 51.6921 141.122 51.5691 141.169C51.446 141.215 51.3147 141.236 51.1832 141.231Z" fill="black"/>
<path d="M99.9564 135.534C100.748 134.746 103.259 124.178 102.946 120.805C102.633 117.431 102.897 113.377 104.177 113.532C105.457 113.688 107.02 114.504 107.02 119.774C107.02 119.774 110.313 110.684 112.345 111.024C114.377 111.364 118.051 113.581 118.207 115.603C118.285 116.575 117.054 121.855 114.299 127.27C112.98 134.455 112.179 142.369 112.179 142.369L99.9564 135.534Z" fill="#FFC9B0"/>
<path d="M112.189 143.37C112.021 143.366 111.857 143.323 111.71 143.244L99.4679 136.38C99.3406 136.308 99.231 136.209 99.1474 136.089C99.0638 135.97 99.0082 135.833 98.9848 135.689C98.9613 135.546 98.9706 135.399 99.012 135.259C99.0533 135.119 99.1256 134.991 99.2236 134.882C99.8587 133.91 102.262 124.1 101.969 120.892C101.871 119.842 101.461 114.504 103.005 113.017C103.171 112.849 103.374 112.722 103.598 112.645C103.821 112.567 104.059 112.541 104.294 112.57C105.936 112.764 107.011 113.814 107.558 115.788C109.023 112.531 110.792 109.77 112.511 110.051C114.68 110.411 118.979 112.813 119.184 115.515C119.282 116.809 117.865 122.321 115.276 127.61C113.996 134.639 113.205 142.417 113.195 142.495C113.177 142.655 113.12 142.808 113.027 142.94C112.935 143.073 112.812 143.18 112.668 143.253C112.522 143.335 112.356 143.376 112.189 143.37ZM101.227 135.125L111.378 140.823C111.681 138.188 112.355 132.432 113.332 127.124C113.351 127.036 113.38 126.952 113.42 126.871C115.263 123.357 116.545 119.578 117.22 115.671C117.113 114.32 114.074 112.288 112.169 111.967C111.427 112.22 109.394 116.021 107.919 120.104C107.841 120.319 107.689 120.5 107.49 120.614C107.291 120.729 107.058 120.77 106.832 120.73C106.606 120.691 106.401 120.573 106.253 120.398C106.105 120.224 106.024 120.002 106.024 119.774C106.024 115.331 104.9 114.67 104.255 114.533C103.904 115.195 103.61 117.654 103.894 120.717C104.167 123.42 102.477 131.966 101.227 135.125Z" fill="black"/>
<path d="M73.4106 167.462H123.561L132.628 131.266H82.4774L73.4106 167.462Z" fill="#F56132"/>
<path d="M123.561 168.425H73.4203C73.2696 168.429 73.12 168.399 72.9831 168.336C72.8462 168.273 72.7257 168.18 72.6311 168.063C72.5365 167.946 72.4703 167.809 72.4377 167.663C72.4051 167.517 72.407 167.365 72.4433 167.219L81.5101 131.023C81.5636 130.807 81.6897 130.616 81.8675 130.481C82.0453 130.347 82.2639 130.277 82.4871 130.284H132.628C132.777 130.284 132.925 130.318 133.058 130.384C133.192 130.45 133.309 130.545 133.4 130.663C133.491 130.78 133.555 130.916 133.585 131.061C133.616 131.206 133.613 131.355 133.576 131.499L124.509 167.695C124.455 167.904 124.332 168.089 124.161 168.221C123.989 168.354 123.778 168.425 123.561 168.425ZM74.71 166.48H122.848L131.426 132.228H83.2394L74.71 166.48Z" fill="black"/>
<path d="M76.5858 167.462H126.737L135.804 131.266H85.6527L76.5858 167.462Z" fill="#F56132"/>
<path d="M126.737 168.425H76.5859C76.4352 168.429 76.2856 168.399 76.1487 168.336C76.0118 168.273 75.8913 168.18 75.7967 168.063C75.7021 167.946 75.6359 167.809 75.6033 167.663C75.5707 167.517 75.5726 167.365 75.6089 167.219L84.6757 131.023C84.7292 130.807 84.8553 130.616 85.0331 130.481C85.2108 130.347 85.4295 130.277 85.6527 130.284H135.804C135.953 130.284 136.1 130.318 136.234 130.384C136.367 130.45 136.484 130.545 136.575 130.663C136.667 130.78 136.73 130.916 136.761 131.061C136.791 131.206 136.788 131.355 136.751 131.499L127.684 167.695C127.63 167.904 127.508 168.089 127.336 168.221C127.164 168.354 126.954 168.425 126.737 168.425ZM77.8853 166.48H126.023L134.602 132.228H86.4148L77.8853 166.48Z" fill="black"/>
<path d="M51.1831 167.452V169.815C51.1831 170.712 51.5413 171.573 52.179 172.207C52.8166 172.842 53.6814 173.198 54.5832 173.198H123.122C123.569 173.2 124.012 173.113 124.426 172.944C124.839 172.774 125.215 172.525 125.532 172.211C125.849 171.897 126.1 171.523 126.272 171.112C126.443 170.701 126.532 170.26 126.532 169.815V167.452H51.1831Z" fill="#F56132"/>
<path d="M123.122 174.171H54.5832C53.4231 174.168 52.3113 173.708 51.491 172.892C50.6707 172.076 50.2087 170.969 50.2061 169.815V167.453C50.2061 167.195 50.3091 166.947 50.4923 166.765C50.6755 166.583 50.924 166.48 51.1831 166.48H126.532C126.791 166.48 127.039 166.583 127.222 166.765C127.406 166.947 127.509 167.195 127.509 167.453V169.815C127.506 170.971 127.043 172.079 126.22 172.896C125.398 173.712 124.283 174.171 123.122 174.171ZM52.1602 168.425V169.815C52.1602 170.455 52.4154 171.068 52.8698 171.52C53.3243 171.972 53.9406 172.226 54.5832 172.226H123.122C123.765 172.226 124.383 171.972 124.839 171.521C125.294 171.069 125.552 170.455 125.555 169.815V168.425H52.1602Z" fill="black"/>
<path d="M51.1831 167.452V169.815C51.1831 170.712 51.5413 171.573 52.179 172.207C52.8166 172.842 53.6814 173.198 54.5832 173.198H72.7559C73.7717 173.198 74.7458 172.797 75.4641 172.082C76.1823 171.367 76.5859 170.398 76.5859 169.387V167.443L51.1831 167.452Z" fill="#F56132"/>
<path d="M72.7559 174.171H54.5832C53.4231 174.168 52.3113 173.708 51.491 172.892C50.6707 172.076 50.2087 170.969 50.2061 169.815V167.453C50.2061 167.195 50.3091 166.947 50.4923 166.765C50.6755 166.583 50.924 166.48 51.1831 166.48H76.5859C76.845 166.48 77.0935 166.583 77.2767 166.765C77.46 166.947 77.5629 167.195 77.5629 167.453V169.397C77.5577 170.663 77.0493 171.876 76.1487 172.77C75.248 173.665 74.0283 174.168 72.7559 174.171ZM52.1602 168.425V169.815C52.1602 170.455 52.4154 171.068 52.8698 171.52C53.3243 171.972 53.9406 172.226 54.5832 172.226H72.7559C73.5126 172.226 74.2382 171.927 74.7732 171.395C75.3083 170.862 75.6088 170.14 75.6088 169.387V168.415L52.1602 168.425Z" fill="black"/>
<path d="M111.642 125.257C111.383 125.257 111.134 125.155 110.951 124.973C110.768 124.79 110.665 124.543 110.665 124.285C110.557 121.009 107.333 120.736 106.971 120.717C106.712 120.705 106.468 120.592 106.293 120.401C106.118 120.211 106.027 119.959 106.038 119.701C106.05 119.443 106.164 119.2 106.356 119.026C106.547 118.852 106.8 118.761 107.059 118.772C108.514 118.792 109.905 119.371 110.941 120.387C111.977 121.404 112.578 122.779 112.619 124.227C112.619 124.485 112.516 124.732 112.332 124.914C112.149 125.097 111.901 125.199 111.642 125.199V125.257Z" fill="black"/>
<path d="M135.95 97.1985C134.496 97.1443 133.071 96.783 131.768 96.1388C126.19 93.3387 122.614 89.547 120.826 84.5497C120.23 83.2 120.037 81.7083 120.269 80.2524C120.501 79.2733 120.97 78.3652 121.634 77.6064C122.297 76.8476 123.137 76.2608 124.079 75.8967C124.304 75.7654 124.554 75.6831 124.814 75.6554C125.073 75.6277 125.335 75.6553 125.583 75.7362C125.83 75.8171 126.058 75.9496 126.25 76.1248C126.442 76.3 126.595 76.5139 126.698 76.7523L128.837 80.2329C128.989 80.4231 129.102 80.6417 129.168 80.8758C129.233 81.1099 129.251 81.3547 129.22 81.5958C129.189 81.837 129.11 82.0695 128.987 82.2796C128.864 82.4897 128.7 82.6731 128.505 82.8191C127.987 83.3149 127.45 83.7913 126.922 84.1899L126.844 84.258C126.792 84.2936 126.749 84.34 126.717 84.3941L127.001 84.8316C127.274 85.3808 127.601 85.9019 127.978 86.3872C129.455 88.0149 131.152 89.4315 133.019 90.597L133.126 90.6651L133.234 90.5484C133.41 90.3442 133.586 90.1303 133.752 89.9164C133.918 89.7025 134.211 89.3428 134.455 89.0609C134.6 88.8516 134.786 88.6738 135.002 88.5382C135.218 88.4026 135.459 88.3121 135.711 88.2721C135.964 88.2321 136.221 88.2434 136.469 88.3055C136.716 88.3675 136.949 88.479 137.152 88.6331L138.432 89.3914C139.204 89.8484 139.975 90.2956 140.757 90.7331C141.145 90.9247 141.448 91.2518 141.608 91.6518C141.769 92.0518 141.775 92.4967 141.627 92.9012C141.331 93.9419 140.751 94.8803 139.95 95.6117C139.149 96.343 138.16 96.8386 137.093 97.0429C136.826 97.1011 136.555 97.1433 136.282 97.1693H136.087L135.95 97.1985ZM124.91 77.6371C124.242 77.8798 123.643 78.2812 123.166 78.8065C122.689 79.3317 122.349 79.9649 122.174 80.651C122.035 81.7521 122.207 82.87 122.672 83.8788C124.275 88.3803 127.557 91.822 132.648 94.379C133.679 94.8918 134.808 95.1833 135.96 95.2346H136.116C136.304 95.2175 136.49 95.1882 136.673 95.1471C137.397 95.0243 138.071 94.7011 138.619 94.2145C139.167 93.7278 139.566 93.0975 139.77 92.3956C138.969 91.9484 138.227 91.5012 137.474 91.0637L136.204 90.315L136.067 90.2373L135.96 90.3539C135.735 90.597 135.53 90.8595 135.325 91.122C135.12 91.3845 134.954 91.5887 134.758 91.8123C134.621 92.0397 134.436 92.2342 134.215 92.382C133.994 92.5297 133.743 92.6271 133.479 92.667C133.216 92.7069 132.947 92.6885 132.692 92.613C132.437 92.5375 132.201 92.4069 132.003 92.2304C129.979 90.9727 128.144 89.4377 126.551 87.6706C126.07 87.0901 125.651 86.4612 125.3 85.7941L125.066 85.3858C124.799 84.9643 124.705 84.457 124.804 83.9685C124.902 83.4801 125.185 83.0478 125.594 82.7608L125.682 82.6927C126.199 82.2649 126.659 81.8566 127.147 81.4191L127.225 81.351L127.157 81.2441C126.453 80.0774 125.75 78.9301 125.037 77.7732L124.91 77.6371Z" fill="black"/>
</svg>
