<svg width="28" height="28" viewBox="0 0 28 28" fill="none" xmlns="http://www.w3.org/2000/svg">
<path d="M7 12.25H12.25V14H7V12.25ZM7 5.25H17.5V7H7V5.25ZM7 8.75H17.5V10.5H7V8.75ZM7 21H12.25V22.75H7V21ZM23.625 21.875H18.375C17.6788 21.875 17.0111 22.1516 16.5188 22.6438C16.0266 23.1361 15.75 23.8038 15.75 24.5V26.25H17.5V24.5C17.5 24.2679 17.5922 24.0454 17.7563 23.8813C17.9204 23.7172 18.1429 23.625 18.375 23.625H23.625C23.8571 23.625 24.0796 23.7172 24.2437 23.8813C24.4078 24.0454 24.5 24.2679 24.5 24.5V26.25H26.25V24.5C26.25 23.8038 25.9734 23.1361 25.4812 22.6438C24.9889 22.1516 24.3212 21.875 23.625 21.875ZM21 21C21.6922 21 22.3689 20.7947 22.9445 20.4101C23.5201 20.0256 23.9687 19.4789 24.2336 18.8394C24.4985 18.1999 24.5678 17.4961 24.4327 16.8172C24.2977 16.1383 23.9644 15.5146 23.4749 15.0251C22.9854 14.5356 22.3617 14.2023 21.6828 14.0673C21.0039 13.9322 20.3001 14.0015 19.6606 14.2664C19.0211 14.5313 18.4744 14.9799 18.0899 15.5555C17.7053 16.1311 17.5 16.8078 17.5 17.5C17.5 18.4283 17.8687 19.3185 18.5251 19.9749C19.1815 20.6313 20.0717 21 21 21ZM21 15.75C21.3461 15.75 21.6845 15.8526 21.9722 16.0449C22.26 16.2372 22.4843 16.5105 22.6168 16.8303C22.7492 17.1501 22.7839 17.5019 22.7164 17.8414C22.6489 18.1809 22.4822 18.4927 22.2374 18.7374C21.9927 18.9822 21.6809 19.1489 21.3414 19.2164C21.0019 19.2839 20.6501 19.2492 20.3303 19.1168C20.0105 18.9843 19.7372 18.76 19.5449 18.4722C19.3526 18.1845 19.25 17.8461 19.25 17.5C19.25 17.0359 19.4344 16.5908 19.7626 16.2626C20.0908 15.9344 20.5359 15.75 21 15.75Z" fill="#7F8C8D"/>
<path d="M12.25 26.25H5.25C4.78601 26.2495 4.34116 26.065 4.01307 25.7369C3.68499 25.4088 3.50046 24.964 3.5 24.5V3.5C3.50046 3.03601 3.68499 2.59116 4.01307 2.26307C4.34116 1.93499 4.78601 1.75046 5.25 1.75H19.25C19.714 1.75046 20.1588 1.93499 20.4869 2.26307C20.815 2.59116 20.9995 3.03601 21 3.5V12.25H19.25V3.5H5.25V24.5H12.25V26.25Z" fill="black"/>
</svg>
