<svg width="36" height="41" viewBox="0 0 36 41" fill="none" xmlns="http://www.w3.org/2000/svg">
<circle cx="17.5" cy="31.5" r="9" fill="white" stroke="#DA1C23"/>
<circle cx="17.5" cy="31.5" r="6.5" fill="white"/>
<circle cx="17.5" cy="31.5" r="6.5" fill="#FF4343" fill-opacity="0.41"/>
<path d="M18 18C18.825 18 19.5315 17.706 20.1195 17.118C20.7065 16.531 21 15.825 21 15C21 14.175 20.7065 13.4685 20.1195 12.8805C19.5315 12.2935 18.825 12 18 12C17.175 12 16.469 12.2935 15.882 12.8805C15.294 13.4685 15 14.175 15 15C15 15.825 15.294 16.531 15.882 17.118C16.469 17.706 17.175 18 18 18ZM18 32.4375C17.8 32.4375 17.6 32.4 17.4 32.325C17.2 32.25 17.025 32.15 16.875 32.025C13.225 28.8 10.5 25.8065 8.7 23.0445C6.9 20.2815 6 17.7 6 15.3C6 11.55 7.2065 8.5625 9.6195 6.3375C12.0315 4.1125 14.825 3 18 3C21.175 3 23.9685 4.1125 26.3805 6.3375C28.7935 8.5625 30 11.55 30 15.3C30 17.7 29.1 20.2815 27.3 23.0445C25.5 25.8065 22.775 28.8 19.125 32.025C18.975 32.15 18.8 32.25 18.6 32.325C18.4 32.4 18.2 32.4375 18 32.4375Z" fill="#DA1C23"/>
</svg>
