<svg width="60" height="60" viewBox="0 0 60 60" fill="none" xmlns="http://www.w3.org/2000/svg">
<path d="M59.4421 0.515953H0.515869V59.4422H59.4421V0.515953Z" fill="white"/>
<path d="M59.4422 59.9633H0.515947C0.379109 59.9633 0.247876 59.909 0.151117 59.8122C0.0543581 59.7154 0 59.5842 0 59.4474V0.515947C0 0.379109 0.0543581 0.247876 0.151117 0.151117C0.247876 0.0543581 0.379109 0 0.515947 0H59.4422C59.579 0 59.7103 0.0543581 59.807 0.151117C59.9038 0.247876 59.9581 0.379109 59.9581 0.515947V59.4474C59.9581 59.5842 59.9038 59.7154 59.807 59.8122C59.7103 59.909 59.579 59.9633 59.4422 59.9633ZM1.03189 58.9314H58.9263V1.03189H1.03189V58.9314Z" fill="black"/>
<path d="M42.968 59.4474V48.5557C42.968 46.2295 42.0439 43.9985 40.399 42.3536C38.7541 40.7087 36.5232 39.7846 34.1969 39.7846H25.7818C23.4556 39.7846 21.2246 40.7087 19.5797 42.3536C17.9348 43.9985 17.0107 46.2295 17.0107 48.5557V59.4267L42.968 59.4474Z" fill="#D9D9D9"/>
<path d="M42.9628 59.9633H16.9901C16.8532 59.9633 16.722 59.909 16.6252 59.8122C16.5285 59.7154 16.4741 59.5842 16.4741 59.4474V48.5557C16.4823 46.0952 17.4634 43.7377 19.2032 41.9978C20.9431 40.2579 23.3006 39.2769 25.7612 39.2687H34.1556C36.6166 39.2755 38.9748 40.2562 40.715 41.9963C42.4552 43.7365 43.4358 46.0948 43.4426 48.5557V59.4267C43.4483 59.5611 43.4014 59.6923 43.3118 59.7925C43.2221 59.8928 43.0969 59.954 42.9628 59.9633ZM17.506 58.9314H42.4469V48.5557C42.4387 46.3689 41.5664 44.2739 40.02 42.7275C38.4736 41.1811 36.3786 40.3088 34.1917 40.3006H25.7818C23.5949 40.3088 21.4999 41.1811 19.9535 42.7275C18.4072 44.2739 17.5348 46.3689 17.5267 48.5557L17.506 58.9314Z" fill="black"/>
<path d="M29.9766 56.5735L27.9954 40.9404L32.3035 41.1364L29.9766 56.5735Z" fill="white"/>
<path d="M29.9765 57.0895C29.8498 57.0904 29.7271 57.0446 29.632 56.9609C29.5368 56.8771 29.4758 56.7613 29.4606 56.6355L27.4794 41.0074C27.4696 40.9322 27.4766 40.8557 27.4998 40.7835C27.523 40.7113 27.5618 40.645 27.6135 40.5895C27.6645 40.5344 27.727 40.491 27.7965 40.4625C27.866 40.434 27.9409 40.421 28.0159 40.4244L32.319 40.6205C32.3915 40.6233 32.4627 40.6414 32.5279 40.6736C32.593 40.7058 32.6505 40.7514 32.6968 40.8074C32.7431 40.8635 32.777 40.9286 32.7964 40.9986C32.8157 41.0687 32.8201 41.142 32.8091 41.2138L30.4822 56.6458C30.4649 56.768 30.4044 56.88 30.3116 56.9614C30.2188 57.0428 30.1 57.0882 29.9765 57.0895ZM28.5887 41.4821L30.023 52.8329L31.705 41.6472L28.5887 41.4821Z" fill="black"/>
<path d="M28.8723 3.98828C29.4168 3.90312 29.9671 3.86171 30.5182 3.86445C33.0567 3.86445 35.6467 3.79738 37.9633 4.93246C40.3075 6.08897 42.2834 7.87544 43.6694 10.0917C45.0555 12.3079 45.797 14.8663 45.8109 17.4803V27.8869H14.8541C14.6786 27.2729 14.9521 26.5506 14.9779 25.9418C14.96 25.2614 14.8595 24.5857 14.6786 23.9296C14.3134 22.2328 14.1096 20.5053 14.0698 18.7701C14.0778 16.0407 14.6449 13.3418 15.7363 10.8401C16.3555 9.33349 17.083 7.77533 18.4089 6.8363C19.7349 5.89728 21.8451 5.86633 22.7893 7.19231C24.4055 5.47923 26.5454 4.35211 28.8723 3.98828Z" fill="#725858"/>
<path d="M45.811 28.4029H14.8542C14.7384 28.4071 14.6245 28.3723 14.5309 28.304C14.4373 28.2357 14.3695 28.1378 14.3382 28.0262C14.2218 27.5308 14.2218 27.0151 14.3382 26.5196C14.3767 26.322 14.4025 26.1221 14.4156 25.9212C14.4151 25.4347 14.3491 24.9505 14.2196 24.4817C14.1886 24.332 14.1525 24.1824 14.1267 24.0328C13.7561 22.307 13.5488 20.5502 13.5076 18.7856C13.5126 15.9855 14.0921 13.2163 15.2102 10.6491C15.8293 9.14257 16.6136 7.44511 18.0634 6.42353C19.4048 5.47419 21.5099 5.32457 22.7585 6.42353C24.4168 4.84566 26.521 3.81699 28.7847 3.47748C29.355 3.39017 29.9311 3.34705 30.508 3.34849H30.962C33.387 3.34849 35.8945 3.3485 38.1853 4.4681C40.6188 5.66453 42.6701 7.51634 44.1085 9.81516C45.5469 12.114 46.3151 14.7686 46.3269 17.4803V27.8869C46.3269 28.0237 46.2726 28.155 46.1758 28.2517C46.0791 28.3485 45.9478 28.4029 45.811 28.4029ZM15.3031 27.371H45.295V17.4803C45.2842 14.9623 44.5716 12.4972 43.2373 10.3618C41.9031 8.22644 39.9999 6.50528 37.7416 5.39164C35.6778 4.35975 33.2838 4.35975 30.9724 4.35975H30.5183C29.9999 4.35454 29.482 4.39424 28.9705 4.47842C26.7524 4.81808 24.7123 5.89173 23.1764 7.52766C23.1243 7.58421 23.0601 7.62838 22.9887 7.65695C22.9173 7.68551 22.8404 7.69775 22.7636 7.69276C22.6871 7.68769 22.6126 7.6656 22.5457 7.62811C22.4788 7.59063 22.421 7.53868 22.3767 7.47606C21.6079 6.4029 19.797 6.44417 18.7135 7.24389C17.4855 8.11068 16.8096 9.58629 16.2163 11.0206C15.1503 13.4618 14.5971 16.096 14.5911 18.7598C14.6331 20.4619 14.8335 22.1563 15.1896 23.8213C15.1896 23.9657 15.2463 24.105 15.2773 24.2495C15.4291 24.8041 15.5037 25.3771 15.4991 25.9521C15.4841 26.1981 15.4531 26.4428 15.4063 26.6848C15.3535 26.9106 15.3173 27.1399 15.2979 27.371H15.3031Z" fill="black"/>
<path d="M27.8816 38.1078H32.2981V40.6514C32.2981 41.1495 32.1003 41.6272 31.7481 41.9794C31.3959 42.3316 30.9182 42.5295 30.4201 42.5295H29.7545C29.2564 42.5295 28.7787 42.3316 28.4265 41.9794C28.0743 41.6272 27.8765 41.1495 27.8765 40.6514V38.1078H27.8816Z" fill="#FFC9B0"/>
<path d="M30.4255 43.0403H29.76C29.1259 43.0403 28.5178 42.7888 28.069 42.3409C27.6202 41.8931 27.3673 41.2855 27.366 40.6514V38.1078C27.366 37.971 27.4203 37.8397 27.5171 37.743C27.6138 37.6462 27.7451 37.5919 27.8819 37.5919H32.3036C32.4404 37.5919 32.5716 37.6462 32.6684 37.743C32.7652 37.8397 32.8195 37.971 32.8195 38.1078V40.6514C32.8182 41.2855 32.5653 41.8931 32.1165 42.3409C31.6677 42.7888 31.0596 43.0403 30.4255 43.0403ZM28.3979 38.6238V40.6514C28.3992 41.0118 28.5433 41.3569 28.7986 41.6113C29.0539 41.8656 29.3996 42.0084 29.76 42.0084H30.4255C30.7859 42.0084 31.1316 41.8656 31.3869 41.6113C31.6422 41.3569 31.7863 41.0118 31.7876 40.6514V38.6238H28.3979Z" fill="black"/>
<path d="M17.4648 30.3273C19.8356 30.3273 21.7575 28.6711 21.7575 26.628C21.7575 24.5849 19.8356 22.9287 17.4648 22.9287C15.094 22.9287 13.1721 24.5849 13.1721 26.628C13.1721 28.6711 15.094 30.3273 17.4648 30.3273Z" fill="#FFC9B0"/>
<path d="M17.4649 30.8433C14.8129 30.8433 12.6562 28.9549 12.6562 26.628C12.6562 24.3011 14.8129 22.4127 17.4649 22.4127C20.1168 22.4127 22.2735 24.3063 22.2735 26.628C22.2735 28.9498 20.1168 30.8433 17.4649 30.8433ZM17.4649 23.4446C15.4011 23.4446 13.6881 24.8738 13.6881 26.628C13.6881 28.3822 15.3804 29.8114 17.4649 29.8114C19.5493 29.8114 21.2416 28.3822 21.2416 26.628C21.2416 24.8738 19.5493 23.4446 17.4649 23.4446Z" fill="black"/>
<path d="M42.4934 30.3273C44.8641 30.3273 46.786 28.6711 46.786 26.628C46.786 24.5849 44.8641 22.9287 42.4934 22.9287C40.1226 22.9287 38.2007 24.5849 38.2007 26.628C38.2007 28.6711 40.1226 30.3273 42.4934 30.3273Z" fill="#FFC9B0"/>
<path d="M42.4932 30.8433C39.8412 30.8433 37.6846 28.9549 37.6846 26.628C37.6846 24.3011 39.8412 22.4127 42.4932 22.4127C45.1452 22.4127 47.3018 24.3063 47.3018 26.628C47.3018 28.9498 45.1452 30.8433 42.4932 30.8433ZM42.4932 23.4446C40.4294 23.4446 38.7165 24.8738 38.7165 26.628C38.7165 28.3822 40.4088 29.8114 42.4932 29.8114C44.5776 29.8114 46.2699 28.3822 46.2699 26.628C46.2699 24.8738 44.5725 23.4446 42.4932 23.4446Z" fill="black"/>
<path d="M30.0953 38.6857C28.3949 38.6863 26.711 38.352 25.1398 37.7018C23.5687 37.0515 22.141 36.0981 20.9384 34.896C19.7358 33.6938 18.7818 32.2665 18.1309 30.6956C17.48 29.1247 17.145 27.441 17.145 25.7406V18.7701C17.145 18.7701 20.4058 16.9076 21.3706 13.977C21.3706 13.977 26.3495 19.6524 31.1736 19.2551C35.1563 18.916 39.1177 18.3614 43.0404 17.5938V25.7406C43.0404 27.4405 42.7055 29.1239 42.055 30.6945C41.4044 32.265 40.4509 33.6921 39.2488 34.8941C38.0468 36.0962 36.6197 37.0497 35.0492 37.7003C33.4786 38.3508 31.7952 38.6857 30.0953 38.6857Z" fill="#FFC9B0"/>
<path d="M30.0951 39.2016C26.5258 39.1975 23.1038 37.7782 20.5794 35.2548C18.055 32.7314 16.6344 29.3099 16.6289 25.7406V18.7701C16.6285 18.6792 16.6522 18.5898 16.6975 18.511C16.7428 18.4322 16.8081 18.3667 16.8869 18.3213C16.9178 18.3213 19.9826 16.5206 20.8855 13.817C20.9137 13.7304 20.9644 13.6527 21.0323 13.592C21.1003 13.5313 21.1831 13.4897 21.2724 13.4714C21.3653 13.4483 21.4627 13.4516 21.5538 13.4808C21.6449 13.5099 21.7261 13.5638 21.7884 13.6365C21.8348 13.6932 26.6486 19.1003 31.1322 18.7392C35.1021 18.3979 39.0512 17.8468 42.9628 17.0881C43.0378 17.0734 43.1151 17.0754 43.1891 17.0942C43.2632 17.1129 43.3321 17.1479 43.3911 17.1965C43.4502 17.2445 43.4981 17.305 43.5311 17.3737C43.5641 17.4424 43.5814 17.5176 43.582 17.5938V25.7406C43.5765 29.3135 42.153 32.7381 39.6241 35.262C37.0953 37.786 33.668 39.203 30.0951 39.2016ZM17.6608 19.0797V25.7612C17.7271 29.0145 19.066 32.1121 21.3902 34.3894C23.7143 36.6667 26.8386 37.9422 30.0925 37.9422C33.3465 37.9422 36.4707 36.6667 38.7949 34.3894C41.1191 32.1121 42.458 29.0145 42.5243 25.7612V18.2181C38.7695 18.927 34.9809 19.4436 31.1734 19.7659C27.0923 20.091 23.006 16.4019 21.5407 14.916C20.4985 17.1088 18.3986 18.5896 17.6608 19.0591V19.0797Z" fill="black"/>
<path d="M30.0332 28.3977C29.6323 28.3956 29.2321 28.3629 28.8362 28.2997C28.7024 28.2757 28.5835 28.2 28.5053 28.0889C28.427 27.9778 28.3958 27.8403 28.4183 27.7063C28.4295 27.6391 28.4539 27.5748 28.4902 27.5171C28.5264 27.4594 28.5737 27.4094 28.6293 27.3701C28.685 27.3307 28.7479 27.3028 28.8144 27.2879C28.8809 27.273 28.9497 27.2714 29.0168 27.2833C29.55 27.3773 30.0943 27.3912 30.6317 27.3245C30.4397 26.3958 30.1037 25.5027 29.6359 24.6777C29.576 24.557 29.5658 24.4177 29.6073 24.2895C29.6489 24.1613 29.7389 24.0545 29.8582 23.9918C29.9774 23.9291 30.1165 23.9156 30.2456 23.9541C30.3747 23.9926 30.4837 24.0801 30.5491 24.1979C31.0651 25.2298 31.9267 27.0562 31.581 27.8456C31.5345 27.9546 31.4639 28.0515 31.3745 28.1293C31.2852 28.207 31.1794 28.2635 31.0651 28.2945C30.7264 28.3696 30.38 28.4042 30.0332 28.3977Z" fill="black"/>
<path d="M22.65 59.6537C22.5131 59.6537 22.3819 59.5994 22.2852 59.5026C22.1884 59.4059 22.134 59.2746 22.134 59.1378V49.3348C22.134 49.198 22.1884 49.0667 22.2852 48.97C22.3819 48.8732 22.5131 48.8189 22.65 48.8189C22.7868 48.8189 22.9181 48.8732 23.0148 48.97C23.1116 49.0667 23.1659 49.198 23.1659 49.3348V59.1378C23.1659 59.2746 23.1116 59.4059 23.0148 59.5026C22.9181 59.5994 22.7868 59.6537 22.65 59.6537Z" fill="black"/>
<path d="M37.3082 59.6537C37.1713 59.6537 37.0401 59.5994 36.9434 59.5026C36.8466 59.4059 36.7922 59.2746 36.7922 59.1378V49.3348C36.7922 49.198 36.8466 49.0667 36.9434 48.97C37.0401 48.8732 37.1713 48.8189 37.3082 48.8189C37.445 48.8189 37.5763 48.8732 37.673 48.97C37.7698 49.0667 37.8241 49.198 37.8241 49.3348V59.1378C37.8241 59.2746 37.7698 59.4059 37.673 59.5026C37.5763 59.5994 37.445 59.6537 37.3082 59.6537Z" fill="black"/>
<path d="M29.9815 57.0895C29.897 57.0896 29.8138 57.069 29.7391 57.0294C29.6644 56.9898 29.6006 56.9325 29.5533 56.8625L24.141 49.0717C24.0753 48.977 24.0432 48.8632 24.0497 48.7481C24.0563 48.6331 24.1011 48.5236 24.1771 48.4371L26.3596 45.976L24.0017 44.9131C23.9338 44.8827 23.8732 44.8378 23.8242 44.7817C23.7752 44.7256 23.739 44.6595 23.7179 44.5881C23.6966 44.5165 23.6912 44.4411 23.7018 44.3672C23.7125 44.2932 23.7392 44.2225 23.7799 44.1599L26.7775 39.5163C26.8122 39.4555 26.859 39.4024 26.9149 39.3602C26.9708 39.318 27.0347 39.2876 27.1028 39.2709C27.1708 39.2542 27.2415 39.2516 27.3106 39.2631C27.3797 39.2746 27.4457 39.3001 27.5047 39.338C27.5636 39.3759 27.6142 39.4254 27.6534 39.4834C27.6926 39.5415 27.7195 39.6069 27.7326 39.6758C27.7456 39.7446 27.7445 39.8154 27.7294 39.8838C27.7142 39.9521 27.6852 40.0167 27.6443 40.0736L24.9717 44.2011L27.4224 45.3053C27.4963 45.3382 27.5615 45.388 27.6126 45.4508C27.6636 45.5135 27.6993 45.5874 27.7165 45.6664C27.7332 45.7453 27.7312 45.827 27.7105 45.905C27.6899 45.9829 27.6513 46.055 27.5979 46.1153L25.24 48.7931L30.3995 56.2794C30.4768 56.3923 30.506 56.5313 30.4809 56.6658C30.4557 56.8003 30.3782 56.9193 30.2653 56.9966C30.1819 57.0549 30.0832 57.0872 29.9815 57.0895Z" fill="black"/>
<path d="M29.9405 57.0895C29.8353 57.0892 29.7327 57.0568 29.6464 56.9966C29.5344 56.9185 29.4579 56.7991 29.4337 56.6647C29.4095 56.5303 29.4396 56.3917 29.5174 56.2794L34.6769 48.7931L32.319 46.1153C32.2656 46.055 32.227 45.9829 32.2063 45.905C32.1857 45.827 32.1837 45.7453 32.2004 45.6664C32.2176 45.5874 32.2532 45.5135 32.3043 45.4508C32.3554 45.388 32.4205 45.3382 32.4945 45.3053L34.9452 44.2011L32.2726 40.0736C32.1984 39.9592 32.1725 39.8201 32.2005 39.6867C32.2286 39.5533 32.3083 39.4364 32.4222 39.3616C32.4794 39.3243 32.5433 39.2987 32.6104 39.2863C32.6775 39.2738 32.7464 39.2749 32.8131 39.2893C32.8798 39.3037 32.943 39.3311 32.999 39.3701C33.055 39.4091 33.1027 39.4588 33.1394 39.5163L36.137 44.1599C36.1777 44.2225 36.2044 44.2932 36.2151 44.3672C36.2257 44.4411 36.2202 44.5165 36.1989 44.5881C36.1779 44.6595 36.1417 44.7256 36.0927 44.7817C36.0437 44.8378 35.9831 44.8827 35.9152 44.9131L33.5573 45.976L35.7191 48.4319C35.7959 48.5179 35.8417 48.6271 35.8492 48.7421C35.8566 48.8571 35.8254 48.9713 35.7604 49.0665L30.3636 56.8625C30.3168 56.9318 30.2538 56.9886 30.1801 57.0282C30.1064 57.0677 30.0242 57.0888 29.9405 57.0895Z" fill="black"/>
</svg>
