<svg width="22" height="22" viewBox="0 0 22 22" fill="none" xmlns="http://www.w3.org/2000/svg">
<g clip-path="url(#clip0_195_2378)">
<path d="M4.58333 3.6665C3.57078 3.6665 2.75 4.4915 2.75 5.49984V18.3332C2.75 19.3415 3.57078 20.1665 4.58333 20.1665H10.0833H11.9167H17.4167C18.4296 20.1665 19.25 19.3415 19.25 18.3332V5.49984C19.25 4.4915 18.4296 3.6665 17.4167 3.6665H11.9167H10.0833H4.58333Z" fill="#BDC3C7"/>
<path d="M4.58333 2.75C3.57078 2.75 2.75 3.57078 2.75 4.58333V17.4167C2.75 18.4296 3.57078 19.25 4.58333 19.25H10.0833H11.9167H17.4167C18.4296 19.25 19.25 18.4296 19.25 17.4167V4.58333C19.25 3.57078 18.4296 2.75 17.4167 2.75H11.9167H10.0833H4.58333Z" fill="#ECF0F1"/>
<path d="M4.58333 2.75C3.57078 2.75 2.75 3.57078 2.75 4.58333V7.33333V8.25H19.25V7.33333V4.58333C19.25 3.57078 18.4296 2.75 17.4167 2.75H11.9167H10.0833H4.58333Z" fill="black"/>
<path d="M6.875 5.0415C6.875 5.22207 6.83943 5.40087 6.77033 5.56769C6.70123 5.73452 6.59995 5.8861 6.47227 6.01378C6.34459 6.14146 6.19301 6.24274 6.02619 6.31184C5.85937 6.38094 5.68057 6.4165 5.5 6.4165C5.31943 6.4165 5.14063 6.38094 4.97381 6.31184C4.80699 6.24274 4.65541 6.14146 4.52773 6.01378C4.40005 5.8861 4.29877 5.73452 4.22967 5.56769C4.16057 5.40087 4.125 5.22207 4.125 5.0415C4.125 4.86094 4.16057 4.68214 4.22967 4.51531C4.29877 4.34849 4.40005 4.19691 4.52773 4.06923C4.65541 3.94155 4.80699 3.84027 4.97381 3.77117C5.14063 3.70207 5.31943 3.6665 5.5 3.6665C5.68057 3.6665 5.85937 3.70207 6.02619 3.77117C6.19301 3.84027 6.34459 3.94155 6.47227 4.06923C6.59995 4.19691 6.70123 4.34849 6.77033 4.51531C6.83943 4.68214 6.875 4.86094 6.875 5.0415Z" fill="#8F8F8F"/>
<path d="M5.49999 0.916504C4.99372 0.916504 4.58333 1.3269 4.58333 1.83317V4.58317C4.58333 5.08945 4.99372 5.49984 5.49999 5.49984C6.00627 5.49984 6.41666 5.08945 6.41666 4.58317V1.83317C6.41666 1.3269 6.00627 0.916504 5.49999 0.916504Z" fill="#BDC3C7"/>
<path d="M17.875 5.0415C17.875 5.22207 17.8394 5.40087 17.7703 5.56769C17.7012 5.73452 17.6 5.8861 17.4723 6.01378C17.3446 6.14146 17.193 6.24274 17.0262 6.31184C16.8594 6.38094 16.6806 6.4165 16.5 6.4165C16.3194 6.4165 16.1406 6.38094 15.9738 6.31184C15.807 6.24274 15.6554 6.14146 15.5277 6.01378C15.4 5.8861 15.2988 5.73452 15.2297 5.56769C15.1606 5.40087 15.125 5.22207 15.125 5.0415C15.125 4.86094 15.1606 4.68214 15.2297 4.51531C15.2988 4.34849 15.4 4.19691 15.5277 4.06923C15.6554 3.94155 15.807 3.84027 15.9738 3.77117C16.1406 3.70207 16.3194 3.6665 16.5 3.6665C16.6806 3.6665 16.8594 3.70207 17.0262 3.77117C17.193 3.84027 17.3446 3.94155 17.4723 4.06923C17.6 4.19691 17.7012 4.34849 17.7703 4.51531C17.8394 4.68214 17.875 4.86094 17.875 5.0415Z" fill="#8F8F8F"/>
<path d="M16.5 0.916504C15.994 0.916504 15.5833 1.28317 15.5833 1.83317V4.58317C15.5833 5.0415 15.994 5.49984 16.5 5.49984C17.006 5.49984 17.4167 5.0415 17.4167 4.58317V1.83317C17.4167 1.28317 17.006 0.916504 16.5 0.916504Z" fill="#BDC3C7"/>
<path d="M4.58333 10.083V11.9163H6.41666V10.083H4.58333ZM7.33333 10.083V11.9163H9.16666V10.083H7.33333ZM10.0833 10.083V11.9163H11.9167V10.083H10.0833ZM12.8333 10.083V11.9163H14.6667V10.083H12.8333ZM15.5833 10.083V11.9163H17.4167V10.083H15.5833Z" fill="#BDC3C7"/>
<path d="M4.58333 12.833V14.6663H6.41666V12.833H4.58333ZM7.33333 12.833V14.6663H9.16666V12.833H7.33333ZM10.0833 12.833V14.6663H11.9167V12.833H10.0833ZM12.8333 12.833V14.6663H14.6667V12.833H12.8333ZM15.5833 12.833V14.6663H17.4167V12.833H15.5833Z" fill="#BDC3C7"/>
<path d="M4.58333 15.583V17.4163H6.41666V15.583H4.58333ZM7.33333 15.583V17.4163H9.16666V15.583H7.33333ZM10.0833 15.583V17.4163H11.9167V15.583H10.0833ZM12.8333 15.583V17.4163H14.6667V15.583H12.8333ZM15.5833 15.583V17.4163H17.4167V15.583H15.5833Z" fill="#BDC3C7"/>
<path d="M21.4955 17.0023C21.4955 18.2056 21.0175 19.3596 20.1666 20.2105C19.3158 21.0613 18.1618 21.5393 16.9585 21.5393C15.7552 21.5393 14.6012 21.0613 13.7503 20.2105C12.8995 19.3596 12.4215 18.2056 12.4215 17.0023C12.4215 15.799 12.8995 14.645 13.7503 13.7942C14.6012 12.9433 15.7552 12.4653 16.9585 12.4653C18.1618 12.4653 19.3158 12.9433 20.1666 13.7942C21.0175 14.645 21.4955 15.799 21.4955 17.0023Z" fill="#D9D9D9"/>
<path d="M16.9583 12.833C16.7053 12.833 16.5 13.0383 16.5 13.2913V13.7497V16.4997V16.958C16.5 17.211 16.7053 17.4163 16.9583 17.4163H17.4167H19.25H19.7083C19.9613 17.4163 20.1667 17.211 20.1667 16.958C20.1667 16.705 19.9613 16.4997 19.7083 16.4997H19.25H17.4167V13.7497V13.2913C17.4167 13.0383 17.2113 12.833 16.9583 12.833Z" fill="#BDC3C7"/>
<path d="M16.9583 11.9165C14.1735 11.9165 11.9167 14.1165 11.9167 16.9582C11.9167 19.7082 14.1735 21.9998 16.9583 21.9998C19.7432 21.9998 22 19.7082 22 16.9582C22 14.1165 19.7432 11.9165 16.9583 11.9165ZM16.9583 12.8332C19.2363 12.8332 21.0833 14.6665 21.0833 16.9582C21.0833 19.1582 19.2363 21.0832 16.9583 21.0832C14.6804 21.0832 12.8333 19.1582 12.8333 16.9582C12.8333 14.6665 14.6804 12.8332 16.9583 12.8332Z" fill="#7F8C8D"/>
<path d="M17.4167 16.9583C17.4167 17.2113 17.2113 17.4167 16.9583 17.4167C16.7053 17.4167 16.5 17.2113 16.5 16.9583C16.5 16.7053 16.7053 16.5 16.9583 16.5C17.2113 16.5 17.4167 16.7053 17.4167 16.9583Z" fill="#95A5A6"/>
</g>
<defs>
<clipPath id="clip0_195_2378">
<rect width="22" height="22" fill="white"/>
</clipPath>
</defs>
</svg>
