<svg width="64" height="75" viewBox="0 0 64 75" fill="none" xmlns="http://www.w3.org/2000/svg">
<path d="M13.719 28.2791L16.9332 28.4913L16.8003 30.5018C16.7756 30.8756 16.6033 31.2243 16.3214 31.4711C16.0394 31.718 15.6709 31.8428 15.2969 31.8181L14.9118 31.7927C14.5378 31.768 14.1889 31.5958 13.9419 31.314C13.6949 31.0322 13.57 30.6639 13.5947 30.2901L13.7276 28.2797L13.719 28.2791Z" fill="#FFC9B0"/>
<path d="M15.3821 32.2496H15.2607L14.8792 32.228C14.6363 32.2131 14.3987 32.1505 14.1801 32.0437C13.9614 31.937 13.766 31.7882 13.6049 31.6059C13.4438 31.4236 13.3203 31.2113 13.2414 30.9813C13.1625 30.7512 13.1297 30.5079 13.145 30.2652L13.2751 28.2504C13.2789 28.1934 13.294 28.1378 13.3194 28.0867C13.3448 28.0356 13.3801 27.99 13.4232 27.9525C13.4663 27.9151 13.5164 27.8865 13.5706 27.8685C13.6248 27.8505 13.682 27.8433 13.739 27.8474L16.9429 28.0597C17.0567 28.0681 17.1626 28.1211 17.2377 28.207C17.3136 28.2927 17.3526 28.4048 17.3461 28.519L17.2117 30.5295C17.18 30.9939 16.9738 31.4293 16.6345 31.7483C16.2953 32.0672 15.8479 32.2463 15.3821 32.2496ZM14.1248 28.7357L14.0208 30.3172C14.0053 30.576 14.0927 30.8305 14.2641 31.0252C14.4354 31.22 14.6767 31.3392 14.9356 31.3571L15.3171 31.383C15.5768 31.3997 15.8325 31.3129 16.0284 31.1415C16.2242 30.9702 16.3441 30.7283 16.3619 30.4688L16.466 28.8916L14.1248 28.7357Z" fill="black"/>
<path d="M23.8624 13.1893C23.8624 13.1893 24.556 10.3426 21.1831 8.34947C17.8101 6.35634 15.7594 6.92395 15.703 7.55655C15.6467 8.18915 17.0037 8.83042 17.0037 8.83042C14.6418 8.91674 12.3669 9.74281 10.5005 11.1918C7.21421 13.7266 6.16503 16.3306 7.77782 21.5561C8.62988 24.099 10.1803 26.3511 12.252 28.0554C12.252 28.0554 17.5326 27.9298 19.8044 24.3638C22.0762 20.7978 23.8624 13.1893 23.8624 13.1893Z" fill="#725858"/>
<path d="M12.2607 28.4714C12.1649 28.4711 12.0719 28.4391 11.9963 28.3804C9.85014 26.6326 8.24573 24.3109 7.37032 21.6861C5.80089 16.6166 6.57694 13.6789 10.2447 10.8539C11.8462 9.61981 13.7346 8.81181 15.7334 8.50545C15.5877 8.38736 15.4703 8.23806 15.39 8.06857C15.3097 7.89908 15.2685 7.71374 15.2695 7.52622C15.2919 7.36352 15.3565 7.20952 15.4569 7.07953C15.5573 6.94954 15.69 6.84809 15.8418 6.78529C16.7089 6.35201 18.6989 6.38234 21.4042 7.97684C24.9939 10.0999 24.322 13.1373 24.2829 13.2976C24.2049 13.6312 22.4577 21.0058 20.1773 24.5848C17.8101 28.3024 12.4948 28.4844 12.2694 28.4844L12.2607 28.4714ZM16.982 9.2637C14.7223 9.36143 12.5479 10.1544 10.7563 11.5341C7.87323 13.7612 6.52924 16.0923 8.18105 21.4304C8.99731 23.8288 10.451 25.9602 12.3864 27.5961C13.2535 27.5398 17.5196 27.1108 19.4272 24.1298C21.634 20.6635 23.4072 13.1806 23.4245 13.107C23.4462 13.003 23.9838 10.5332 20.9446 8.73942C17.9748 7.00627 16.271 7.3919 16.1063 7.65187C16.3837 8.00957 16.752 8.28638 17.1728 8.45345C17.2626 8.49638 17.335 8.56892 17.3776 8.65888C17.4202 8.74883 17.4306 8.85072 17.4069 8.9474C17.384 9.04434 17.3284 9.13044 17.2494 9.19121C17.1705 9.25197 17.073 9.28369 16.9734 9.28103L16.982 9.2637Z" fill="black"/>
<path d="M19.5659 30.6855C17.5716 31.0841 15.5339 30.3562 13.8908 29.247C13.0237 28.6707 11.6927 28.0337 11.8488 26.8205C11.9431 26.302 12.1651 25.8151 12.4947 25.4037C13.2677 24.4353 13.8757 23.3461 14.294 22.18C14.7275 20.7372 14.1466 19.212 14.7882 17.7605C15.9024 15.2214 18.9199 15.5377 21.1483 14.6885C21.3954 14.5975 23.9403 13.6269 23.8623 13.1893L25.4621 21.1835C26.3639 25.5857 24.0617 29.7842 19.5659 30.6855Z" fill="#FFC9B0"/>
<path d="M18.4474 31.2184C16.7219 31.1677 15.0508 30.6035 13.6481 29.5979L13.2795 29.3596C12.4125 28.818 11.2505 28.0597 11.4196 26.7599C11.5238 26.1723 11.7726 25.6199 12.1436 25.1524C12.886 24.2238 13.4718 23.1803 13.8778 22.063C14.0191 21.4556 14.0702 20.8308 14.0296 20.2086C13.9572 19.3257 14.0816 18.4379 14.3938 17.6088C15.2608 15.6027 17.2508 15.1911 18.9893 14.8315C19.671 14.7088 20.3421 14.5335 20.9967 14.3072C21.8601 14.0236 22.6822 13.6273 23.4418 13.1286C23.4418 13.0137 23.4875 12.9035 23.5688 12.8222C23.6501 12.741 23.7604 12.6953 23.8754 12.6953C23.9904 12.6953 24.1007 12.741 24.182 12.8222C24.2633 12.9035 24.3089 13.0137 24.3089 13.1286L25.9087 21.1185C26.8885 26.0016 24.2656 30.2175 19.6743 31.1318C19.2692 31.2012 18.8582 31.2302 18.4474 31.2184ZM23.5936 14.0429C22.8634 14.4577 22.0973 14.8057 21.3045 15.0828C20.607 15.3291 19.8907 15.5189 19.1628 15.6504C17.4763 16.0013 15.8852 16.3306 15.1828 17.9295C14.922 18.6517 14.8229 19.4222 14.8923 20.1869C14.9343 20.8939 14.873 21.6033 14.7102 22.2927C14.2806 23.5081 13.6505 24.6431 12.846 25.6507C12.5623 26.0055 12.3676 26.4229 12.278 26.8682C12.187 27.5831 12.8287 28.0511 13.7434 28.6317L14.1336 28.883C15.9328 30.0919 17.8361 30.5815 19.4792 30.2522C23.5806 29.4333 25.9174 25.6507 25.0373 21.2614L23.5936 14.0429Z" fill="black"/>
<path d="M22.3711 20.1176C22.7877 20.1176 23.1254 19.78 23.1254 19.3637C23.1254 18.9473 22.7877 18.6097 22.3711 18.6097C21.9544 18.6097 21.6167 18.9473 21.6167 19.3637C21.6167 19.78 21.9544 20.1176 22.3711 20.1176Z" fill="black"/>
<path d="M24.3955 19.303C24.3955 19.303 26.9578 22.245 26.4722 22.4746C25.9008 22.6642 25.3107 22.792 24.712 22.8559" fill="#FFC9B0"/>
<path d="M24.7121 23.2892C24.5971 23.2961 24.4841 23.2571 24.3979 23.1807C24.3117 23.1043 24.2594 22.9969 24.2525 22.8819C24.2456 22.767 24.2847 22.6541 24.3611 22.5679C24.4376 22.4818 24.5451 22.4296 24.6601 22.4227C25.1188 22.3681 25.5735 22.2842 26.0214 22.1714C25.4471 21.2503 24.7943 20.3805 24.0705 19.5716C23.9947 19.4854 23.9562 19.3726 23.9635 19.2581C23.9708 19.1435 24.0233 19.0366 24.1095 18.9607C24.1526 18.9228 24.2028 18.8938 24.2572 18.8754C24.3116 18.8571 24.3691 18.8497 24.4263 18.8537C24.4836 18.8578 24.5395 18.8731 24.5908 18.8989C24.6421 18.9247 24.6877 18.9604 24.7251 19.004C27.1053 21.7467 26.9925 22.2927 26.9535 22.4703C26.9372 22.5518 26.902 22.6283 26.8508 22.6937C26.7996 22.7592 26.7339 22.8118 26.6587 22.8473C26.0457 23.0631 25.4101 23.2084 24.7641 23.2806L24.7121 23.2892Z" fill="black"/>
<path d="M15.0572 20.3862C15.0572 20.3862 12.8287 19.4243 12.1264 21.3741C11.424 23.3239 13.0325 26.0926 16.0933 24.5804" fill="#FFC9B0"/>
<path d="M14.4283 25.4427C13.742 25.4527 13.0768 25.2054 12.564 24.7494C12.0946 24.3078 11.7644 23.7387 11.6142 23.1121C11.464 22.4855 11.5003 21.8287 11.7186 21.2225C11.8095 20.9309 11.9617 20.662 12.1651 20.4341C12.3685 20.2062 12.6184 20.0244 12.8979 19.9009C13.6592 19.6418 14.4892 19.6711 15.2304 19.9833C15.3361 20.0292 15.4193 20.1153 15.4616 20.2226C15.5039 20.3298 15.5018 20.4495 15.4558 20.5552C15.4098 20.6609 15.3237 20.744 15.2163 20.7863C15.109 20.8286 14.9893 20.8265 14.8835 20.7805C14.3611 20.5614 13.7786 20.5308 13.236 20.6938C13.0667 20.7726 12.9163 20.8869 12.7951 21.029C12.6739 21.171 12.5847 21.3375 12.5337 21.5171C12.3739 21.9629 12.3462 22.4452 12.4538 22.9064C12.5615 23.3675 12.8 23.7878 13.1407 24.1168C13.817 24.7191 14.7968 24.7451 15.898 24.2035C15.9492 24.1761 16.0053 24.1592 16.0631 24.1539C16.121 24.1485 16.1793 24.1549 16.2346 24.1725C16.2899 24.1901 16.3411 24.2187 16.3852 24.2564C16.4292 24.2942 16.4653 24.3405 16.4911 24.3924C16.517 24.4444 16.5321 24.501 16.5356 24.5589C16.5392 24.6168 16.531 24.6749 16.5117 24.7296C16.4924 24.7843 16.4623 24.8346 16.4231 24.8774C16.384 24.9203 16.3366 24.9548 16.2839 24.9791C15.7089 25.2733 15.0741 25.4319 14.4283 25.4427Z" fill="black"/>
<path d="M19.6135 19.2597C19.4131 19.2587 19.2192 19.1883 19.0648 19.0605C18.9104 18.9327 18.8051 18.7554 18.7667 18.5588C18.7284 18.3621 18.7594 18.1583 18.8545 17.9819C18.9496 17.8056 19.103 17.6676 19.2884 17.5915L22.4186 16.3306C22.5242 16.288 22.6372 16.2665 22.7511 16.2675C22.865 16.2684 22.9776 16.2918 23.0825 16.3363C23.1874 16.3807 23.2825 16.4454 23.3623 16.5266C23.4422 16.6078 23.5053 16.7039 23.548 16.8094C23.5907 16.915 23.6121 17.0279 23.6112 17.1417C23.6102 17.2556 23.5868 17.3681 23.5423 17.4729C23.4979 17.5777 23.4331 17.6728 23.3519 17.7526C23.2707 17.8324 23.1745 17.8955 23.0689 17.9381L19.9387 19.199C19.8352 19.2399 19.7248 19.2605 19.6135 19.2597Z" fill="black"/>
<path d="M21.7163 27.2885C21.6013 27.2988 21.4869 27.2631 21.3983 27.1892C21.3096 27.1152 21.254 27.0091 21.2437 26.8942C21.2333 26.7793 21.2691 26.665 21.3431 26.5764C21.4171 26.4878 21.5232 26.4323 21.6382 26.4219L24.5863 25.8976C24.7013 25.8775 24.8196 25.9039 24.9151 25.9709C25.0106 26.038 25.0756 26.1402 25.0957 26.2551C25.1159 26.37 25.0895 26.4882 25.0224 26.5837C24.9553 26.6792 24.8531 26.7441 24.7381 26.7642L21.79 27.2842L21.7163 27.2885Z" fill="black"/>
<path d="M22.4621 48.9182L9.21729 51.5829L6.49463 37.4578C6.22396 35.8917 6.58593 34.2823 7.50112 32.9826C8.41631 31.6829 9.80997 30.7992 11.3763 30.5251L12.794 30.2782C14.361 30.0077 15.9714 30.3694 17.2719 31.2841C18.5723 32.1987 19.4566 33.5915 19.7308 35.157L22.4621 48.9182Z" fill="#D9D9D9"/>
<path d="M9.2171 52.0162C9.13035 52.0184 9.04521 51.9926 8.97432 51.9426C8.92643 51.911 8.88529 51.8702 8.85329 51.8226C8.82129 51.775 8.79906 51.7215 8.7879 51.6653L6.06956 37.5401C5.77479 35.8578 6.16039 34.1274 7.14162 32.7291C8.12285 31.3309 9.61943 30.3792 11.3025 30.0832L12.7202 29.8362C14.4027 29.5442 16.1325 29.9314 17.5297 30.9127C18.927 31.894 19.8776 33.3893 20.1728 35.0703L22.8955 48.8359C22.9171 48.9485 22.8932 49.0651 22.829 49.1601C22.7648 49.2551 22.6656 49.3208 22.553 49.3429L9.31248 51.9859C9.28287 52.0019 9.25052 52.0122 9.2171 52.0162ZM13.8387 30.6075C13.5132 30.6071 13.1883 30.6346 12.8676 30.6898L11.4499 30.9368C9.99484 31.1937 8.70103 32.0166 7.85185 33.225C7.00266 34.4335 6.66733 35.929 6.91931 37.3841L9.55961 51.076L21.946 48.6019L19.3187 35.2307C19.0945 33.9393 18.4224 32.7681 17.4203 31.9227C16.4182 31.0773 15.1501 30.6116 13.8387 30.6075Z" fill="black"/>
<path d="M9.21729 51.5829C9.21729 51.5829 9.70719 56.2884 13.5788 56.6957C16.709 57.0294 25.5533 57.0164 28.8352 57.0034C29.1699 57.003 29.4919 57.1316 29.7341 57.3624C29.9763 57.5932 30.1202 57.9084 30.1359 58.2426L30.7602 70.0107L36.3356 70.2143C36.3356 70.2143 37.4324 52.1679 36.2055 50.7424C34.9786 49.3168 22.4621 48.9182 22.4621 48.9182L9.21729 51.5829Z" fill="black"/>
<path d="M36.3354 70.6476L30.7556 70.4353C30.6443 70.4354 30.5372 70.3928 30.4565 70.3161C30.3758 70.2395 30.3277 70.1348 30.3221 70.0237L29.6978 58.2556C29.6877 58.0326 29.592 57.822 29.4304 57.6679C29.2689 57.5137 29.0541 57.4278 28.8307 57.428C25.2669 57.428 16.6437 57.428 13.5309 57.1204C9.35582 56.6871 8.78354 51.6696 8.76186 51.6219C8.75003 51.5141 8.7791 51.4058 8.84332 51.3183C8.90753 51.2309 9.00223 51.1707 9.1087 51.1496L22.3492 48.5066C22.3821 48.5002 22.416 48.5002 22.4489 48.5066C24.5733 48.5716 35.2428 48.9702 36.5261 50.4651C36.7863 50.7727 37.3932 51.4876 37.1548 61.0329C37.0334 65.6778 36.7602 70.2013 36.7559 70.249C36.7474 70.3556 36.6997 70.4553 36.6221 70.5289C36.5444 70.6024 36.4423 70.6447 36.3354 70.6476ZM31.1675 69.5817L35.9365 69.7637C36.4481 61.0979 36.5695 51.8342 35.8845 51.024C35.1301 50.1574 27.6124 49.5248 22.4879 49.3645L9.70266 51.9209C9.90643 52.9998 10.7302 55.9548 13.6046 56.2538C16.6784 56.5787 25.2626 56.5744 28.809 56.5571C29.2543 56.5565 29.6828 56.7272 30.0056 57.0337C30.3284 57.3402 30.5209 57.7591 30.5432 58.2036L31.1675 69.5817Z" fill="black"/>
<path d="M27.3611 62.4585H11.9182C10.5397 62.4593 9.20042 61.9997 8.11325 61.1526C7.02608 60.3055 6.25338 59.1196 5.91793 57.7833L0.515951 36.3139C0.428842 35.9676 0.410825 35.6076 0.462925 35.2544C0.515025 34.9012 0.636223 34.5618 0.8196 34.2554C1.18995 33.6366 1.79108 33.1902 2.49075 33.0144C3.19043 32.8386 3.93133 32.9477 4.55047 33.3179C5.16961 33.688 5.61628 34.2888 5.7922 34.988L11.1898 56.4531C11.2296 56.615 11.3226 56.7589 11.4538 56.8618C11.5851 56.9647 11.747 57.0207 11.9139 57.0207H27.3611C28.0638 57.0487 28.7284 57.3475 29.2157 57.8543C29.703 58.3611 29.9751 59.0367 29.9751 59.7396C29.9751 60.4425 29.703 61.1181 29.2157 61.6249C28.7284 62.1317 28.0638 62.4304 27.3611 62.4585Z" fill="white"/>
<path d="M27.3567 62.8917H11.9181C10.4426 62.8933 9.00892 62.4014 7.84539 61.4946C6.68185 60.5877 5.8553 59.3179 5.4973 57.8873L0.0953217 36.4178C-0.00573615 36.0164 -0.0266905 35.599 0.0336565 35.1895C0.0940034 34.78 0.234467 34.3863 0.447032 34.0311C0.659596 33.6758 0.940095 33.3658 1.27252 33.1189C1.60494 32.872 1.98277 32.6929 2.38444 32.5919C2.78611 32.4909 3.20375 32.47 3.61352 32.5303C4.02329 32.5906 4.41715 32.731 4.77263 32.9434C5.12812 33.1558 5.43825 33.4362 5.68533 33.7684C5.93241 34.1006 6.11159 34.4782 6.21265 34.8797L11.6233 56.3491C11.6405 56.4167 11.6796 56.4767 11.7345 56.5198C11.7894 56.5629 11.857 56.5867 11.9268 56.5874H27.3653C27.7894 56.5717 28.2122 56.6416 28.6086 56.7929C29.005 56.9442 29.3668 57.1739 29.6723 57.4682C29.9779 57.7624 30.2209 58.1152 30.3869 58.5055C30.5529 58.8958 30.6385 59.3155 30.6385 59.7396C30.6385 60.1636 30.5529 60.5834 30.3869 60.9736C30.2209 61.3639 29.9779 61.7167 29.6723 62.011C29.3668 62.3052 29.005 62.5349 28.6086 62.6862C28.2122 62.8376 27.7894 62.9075 27.3653 62.8917H27.3567ZM3.16049 33.3848C2.97044 33.3841 2.78107 33.4074 2.59688 33.4542C2.00911 33.6024 1.5042 33.9777 1.19291 34.4975C0.881622 35.0174 0.789374 35.6394 0.936401 36.2272L6.33838 57.6966C6.65238 58.9369 7.37192 60.0369 8.3828 60.8219C9.39368 61.6069 10.6379 62.0319 11.9181 62.0295H27.3567C27.6654 62.0429 27.9736 61.9938 28.2628 61.885C28.552 61.7762 28.8161 61.61 29.0393 61.3964C29.2625 61.1828 29.4401 60.9263 29.5615 60.6423C29.6828 60.3583 29.7454 60.0527 29.7454 59.7439C29.7454 59.4351 29.6828 59.1295 29.5615 58.8455C29.4401 58.5615 29.2625 58.305 29.0393 58.0914C28.8161 57.8778 28.552 57.7116 28.2628 57.6028C27.9736 57.494 27.6654 57.4449 27.3567 57.4583H11.9181C11.655 57.4584 11.3995 57.3706 11.1921 57.2089C10.9847 57.0472 10.8374 56.8208 10.7735 56.5657L5.37157 35.0963C5.24753 34.6033 4.96299 34.1654 4.56272 33.8517C4.16245 33.5379 3.66917 33.3661 3.16049 33.3632V33.3848Z" fill="black"/>
<path d="M30.7688 69.989V74.1312H40.3285L36.3485 70.2013L30.7688 69.989Z" fill="#F56132"/>
<path d="M40.3284 74.5472H30.7688C30.6538 74.5472 30.5435 74.5015 30.4622 74.4203C30.3809 74.339 30.3352 74.2288 30.3352 74.1139V69.9717C30.3352 69.8568 30.3809 69.7466 30.4622 69.6653C30.5435 69.584 30.6538 69.5384 30.7688 69.5384L36.3441 69.7507C36.4534 69.7545 36.5571 69.7994 36.6346 69.8764L40.6146 73.8019C40.677 73.862 40.7199 73.9394 40.7379 74.0242C40.7558 74.1089 40.7479 74.197 40.7153 74.2772C40.6826 74.3575 40.6266 74.4261 40.5546 74.4742C40.4826 74.5223 40.3977 74.5477 40.3111 74.5472H40.3284ZM31.2023 73.6806H39.2749L36.1621 70.6476L31.2023 70.4613V73.6806Z" fill="black"/>
<path d="M17.862 62.4585H15.2563V72.2941H17.862V62.4585Z" fill="#D9D9D9"/>
<path d="M17.862 72.7274H15.2607C15.1457 72.7274 15.0354 72.6817 14.9541 72.6005C14.8728 72.5192 14.8271 72.409 14.8271 72.2941V62.4585C14.8271 62.3435 14.8728 62.2333 14.9541 62.1521C15.0354 62.0708 15.1457 62.0252 15.2607 62.0252H17.862C17.977 62.0252 18.0872 62.0708 18.1685 62.1521C18.2498 62.2333 18.2955 62.3435 18.2955 62.4585V72.2941C18.2955 72.351 18.2843 72.4073 18.2625 72.4599C18.2407 72.5125 18.2088 72.5602 18.1685 72.6005C18.1283 72.6407 18.0805 72.6726 18.0279 72.6944C17.9753 72.7162 17.9189 72.7274 17.862 72.7274ZM15.6942 71.8608H17.4284V62.8918H15.6942V71.8608Z" fill="black"/>
<path d="M19.7696 72.2941H13.4008C12.8932 72.2941 12.4817 72.7054 12.4817 73.2127C12.4817 73.72 12.8932 74.1313 13.4008 74.1313H19.7696C20.2772 74.1313 20.6887 73.72 20.6887 73.2127C20.6887 72.7054 20.2772 72.2941 19.7696 72.2941Z" fill="#D9D9D9"/>
<path d="M19.7698 74.5472H13.401C13.0423 74.5472 12.6982 74.4048 12.4445 74.1513C12.1909 73.8977 12.0483 73.5539 12.0483 73.1954C12.0483 72.8368 12.1909 72.493 12.4445 72.2395C12.6982 71.9859 13.0423 71.8435 13.401 71.8435H19.7698C20.1285 71.8435 20.4726 71.9859 20.7263 72.2395C20.9799 72.493 21.1225 72.8368 21.1225 73.1954C21.1225 73.5539 20.9799 73.8977 20.7263 74.1513C20.4726 74.4048 20.1285 74.5472 19.7698 74.5472ZM13.401 72.7274C13.2722 72.7274 13.1487 72.7785 13.0577 72.8696C12.9666 72.9606 12.9154 73.084 12.9154 73.2127C12.9154 73.3414 12.9666 73.4648 13.0577 73.5558C13.1487 73.6469 13.2722 73.698 13.401 73.698H19.7698C19.8986 73.698 20.0221 73.6469 20.1131 73.5558C20.2042 73.4648 20.2554 73.3414 20.2554 73.2127C20.2554 73.084 20.2042 72.9606 20.1131 72.8696C20.0221 72.7785 19.8986 72.7274 19.7698 72.7274H13.401Z" fill="black"/>
<path d="M63.5665 74.5472H0.433546C0.318562 74.5472 0.208288 74.5016 0.126982 74.4203C0.0456767 74.339 0 74.2288 0 74.1139C0 73.999 0.0456767 73.8888 0.126982 73.8075C0.208288 73.7263 0.318562 73.6806 0.433546 73.6806H63.5665C63.6814 73.6806 63.7917 73.7263 63.873 73.8075C63.9543 73.8888 64 73.999 64 74.1139C64 74.2288 63.9543 74.339 63.873 74.4203C63.7917 74.5016 63.6814 74.5472 63.5665 74.5472Z" fill="black"/>
<path d="M15.3301 36.6302C15.966 39.7875 16.7648 42.9099 17.7233 45.9849L26.5763 46.5655L27.1529 50.4651C27.0488 50.5301 25.7439 51.0673 22.1021 51.5743C12.4947 52.9218 12.1956 51.024 9.6333 37.7437" fill="#D9D9D9"/>
<path d="M18.018 52.3455C12.0134 52.3455 11.3544 48.9442 9.26041 38.0947L9.20405 37.8131C9.1822 37.6981 9.20692 37.5793 9.27278 37.4826C9.33864 37.3859 9.44023 37.3193 9.55522 37.2975C9.6702 37.2756 9.78915 37.3003 9.88591 37.3661C9.98266 37.432 10.0493 37.5335 10.0711 37.6484L10.1232 37.9301C12.6421 51.0414 12.9239 52.4149 22.0283 51.1497C23.5977 50.972 25.1475 50.6514 26.6586 50.1921L26.1817 46.9944L17.6929 46.4138C17.6067 46.4077 17.5244 46.3759 17.4564 46.3226C17.3884 46.2694 17.3379 46.197 17.3113 46.1149C16.3462 43.0247 15.5431 39.8863 14.9052 36.7125C14.8833 36.5976 14.9081 36.4787 14.9739 36.382C15.0398 36.2853 15.1414 36.2187 15.2563 36.1969C15.3713 36.1751 15.4903 36.1998 15.587 36.2656C15.6838 36.3314 15.7504 36.4329 15.7723 36.5479C16.3847 39.5915 17.1502 42.6023 18.0657 45.5689L26.6239 46.1322C26.7231 46.1392 26.8168 46.18 26.8894 46.2479C26.962 46.3157 27.0091 46.4064 27.0228 46.5048L27.5994 50.4044C27.6122 50.4882 27.6001 50.5739 27.5647 50.6509C27.5292 50.728 27.472 50.7929 27.4 50.8377C27.1615 50.985 25.6875 51.518 22.1974 52.0076C20.8138 52.217 19.4173 52.3299 18.018 52.3455Z" fill="black"/>
<path d="M26.5676 46.6868C26.5676 46.6868 29.3467 46.0238 31.0331 46.7301C32.7196 47.4364 34.2154 49.7934 33.3309 49.8888C32.4465 49.9841 30.4088 49.2215 29.9753 49.3775C29.5418 49.5335 27.1529 49.8974 27.1529 49.8974L26.5676 46.6868Z" fill="#FFC9B0"/>
<path d="M27.1529 50.3307C27.0502 50.3324 26.9503 50.2976 26.8709 50.2326C26.7915 50.1675 26.7378 50.0764 26.7193 49.9754L26.1297 46.7648C26.11 46.6559 26.1328 46.5437 26.1932 46.451C26.2537 46.3584 26.3473 46.2924 26.4549 46.2665C26.5763 46.2362 29.3986 45.5776 31.1935 46.3315C32.6199 46.9294 34.146 48.7622 34.0072 49.7111C33.9884 49.8706 33.9144 50.0185 33.798 50.1293C33.6817 50.2401 33.5302 50.3067 33.3699 50.3177C32.6651 50.3189 31.964 50.2167 31.2889 50.0144C30.8988 49.8994 30.4978 49.8254 30.0923 49.7935C29.6588 49.9494 27.6168 50.2614 27.2092 50.3264L27.1529 50.3307ZM30.1357 48.9225C30.5967 48.9582 31.0529 49.0409 31.497 49.1695C32.0364 49.3163 32.5877 49.4149 33.1445 49.4642C32.6897 48.4372 31.8802 47.6082 30.864 47.1287C29.6935 46.6348 27.8726 46.8818 27.0705 47.0291L27.504 49.4035C28.4058 49.2605 29.5807 49.0569 29.8279 48.9702C29.9272 48.9376 30.0311 48.9215 30.1357 48.9225Z" fill="black"/>
<path d="M49.2335 20.1219C54.6712 20.1219 59.0793 15.7164 59.0793 10.2819C59.0793 4.84746 54.6712 0.441956 49.2335 0.441956C43.7958 0.441956 39.3877 4.84746 39.3877 10.2819C39.3877 15.7164 43.7958 20.1219 49.2335 20.1219Z" fill="#FFBC0E"/>
<path d="M49.2334 20.5552C47.1991 20.556 45.2102 19.9539 43.5184 18.8249C41.8266 17.6959 40.5078 16.0908 39.729 14.2127C38.9501 12.3345 38.746 10.2677 39.1427 8.2736C39.5394 6.27954 40.5189 4.44785 41.9573 3.01024C43.3958 1.57263 45.2286 0.5937 47.2238 0.197275C49.2191 -0.19915 51.2871 0.00474459 53.1664 0.783168C55.0457 1.56159 56.6518 2.87957 57.7814 4.57037C58.9111 6.26118 59.5136 8.24884 59.5127 10.2819C59.5093 13.0055 58.4252 15.6166 56.4982 17.5424C54.5712 19.4683 51.9586 20.5517 49.2334 20.5552ZM49.2334 0.870912C47.3707 0.870055 45.5497 1.42127 44.0006 2.45485C42.4515 3.48842 41.2438 4.95792 40.5305 6.67748C39.8171 8.39705 39.63 10.2894 39.9928 12.1153C40.3557 13.9411 41.2522 15.6184 42.5689 16.935C43.8857 18.2516 45.5636 19.1483 47.3903 19.5118C49.2171 19.8753 51.1107 19.6892 52.8316 18.977C54.5525 18.2648 56.0234 17.0586 57.0583 15.5109C58.0933 13.9631 58.6456 12.1434 58.6456 10.2819C58.6388 7.79043 57.6445 5.40313 55.8805 3.64259C54.1164 1.88205 51.7263 0.891673 49.2334 0.888244V0.870912Z" fill="black"/>
<path d="M54.6319 12H49.5342C49.4686 11.9995 49.4044 11.9801 49.3481 11.9438C49.2918 11.9075 49.2455 11.8556 49.214 11.7936L46.0486 5.60032C46.0245 5.55444 46.0089 5.50388 46.0029 5.45151C45.9968 5.39915 46.0004 5.34602 46.0134 5.29514C46.0264 5.24427 46.0485 5.19665 46.0786 5.15501C46.1086 5.11337 46.146 5.07852 46.1885 5.05246C46.231 5.02639 46.2779 5.00961 46.3265 5.00308C46.375 4.99656 46.4243 5.00041 46.4714 5.01442C46.5186 5.02843 46.5627 5.05232 46.6013 5.08473C46.64 5.11714 46.6723 5.15744 46.6964 5.20332L49.7514 11.1901H54.6319C54.7296 11.1901 54.8232 11.2319 54.8922 11.3064C54.9612 11.3808 55 11.4818 55 11.5871C55 11.6924 54.9612 11.7934 54.8922 11.8678C54.8232 11.9423 54.7296 11.9841 54.6319 11.9841V12Z" fill="black"/>
<path d="M53.5819 67.2593C53.5819 67.2593 50.1135 60.2227 50.6078 55.4652C50.6078 55.4652 53.3868 56.7217 54.7265 60.4307C56.7685 66.0938 56.3002 67.2636 56.3002 67.2636L53.5819 67.2593Z" fill="#70CC40"/>
<path d="M56.3003 67.6969H53.582C53.5007 67.6971 53.4211 67.6744 53.3521 67.6315C53.2831 67.5886 53.2275 67.5272 53.1918 67.4543C53.0487 67.164 49.6887 60.2487 50.1786 55.4262C50.1857 55.3585 50.2086 55.2934 50.2455 55.2362C50.2824 55.179 50.3323 55.1313 50.3911 55.0969C50.4522 55.0657 50.5198 55.0495 50.5883 55.0495C50.6569 55.0495 50.7245 55.0657 50.7856 55.0969C50.907 55.1532 53.7511 56.4748 55.1211 60.2964C57.1197 65.8338 56.7772 67.229 56.6862 67.4413C56.6526 67.516 56.5985 67.5796 56.5302 67.6249C56.4619 67.6701 56.3822 67.6951 56.3003 67.6969ZM53.8594 66.8304H55.9188C55.9188 66.2411 55.754 64.5556 54.319 60.578C53.7091 58.7994 52.5453 57.2627 50.998 56.1931C50.907 60.2487 53.3002 65.6301 53.8594 66.826V66.8304Z" fill="black"/>
<path d="M55.225 66.9214C55.225 66.9214 52.6237 56.8864 56.3609 50.1661C56.3609 50.1661 58.5069 52.6229 59.0228 58.5632C59.2913 61.3903 58.7532 64.2356 57.4707 66.7697L55.225 66.9214Z" fill="#70CC40"/>
<path d="M55.225 67.3546C55.1266 67.3577 55.03 67.3272 54.9512 67.2682C54.8724 67.2091 54.8161 67.125 54.7915 67.0297C54.3337 65.0772 54.0522 63.0877 53.9504 61.0849C53.7813 57.9739 53.9938 53.5154 55.9707 49.9581C56.0041 49.8977 56.0514 49.8462 56.1087 49.8077C56.166 49.7693 56.2317 49.7451 56.3002 49.7371C56.3693 49.7294 56.4392 49.7383 56.5041 49.7632C56.569 49.788 56.627 49.8282 56.6731 49.8801C56.7641 49.9841 58.9188 52.5102 59.4434 58.5459C59.7265 61.4641 59.1668 64.4022 57.8306 67.0123C57.7946 67.0734 57.7442 67.1246 57.6837 67.1616C57.6232 67.1987 57.5546 67.2203 57.4838 67.2246L55.2424 67.3763L55.225 67.3546ZM56.4173 51.0023C53.6383 56.7651 55.173 64.7159 55.5502 66.462L57.189 66.3537C58.3343 63.9396 58.8133 61.2634 58.5763 58.6022C58.2295 54.4253 57.0373 52.0162 56.4173 51.0023Z" fill="black"/>
<path d="M56.3435 66.605C56.3435 66.605 57.1499 59.9064 62.5692 55.5345C62.5692 55.5345 64.1647 60.526 59.6861 67.1986L56.3435 66.605Z" fill="#70CC40"/>
<path d="M59.6862 67.6146H59.6126L56.2786 67.034C56.1688 67.0148 56.0707 66.9542 56.0045 66.8646C55.9383 66.7751 55.9092 66.6635 55.9231 66.5531C55.9578 66.2714 56.7902 59.6204 62.3049 55.1966C62.3594 55.1527 62.4238 55.1227 62.4925 55.1091C62.5612 55.0955 62.6322 55.0988 62.6994 55.1186C62.7671 55.1384 62.8289 55.1744 62.8795 55.2234C62.9302 55.2725 62.968 55.3332 62.9899 55.4002C63.0592 55.6125 64.5983 60.669 60.0548 67.437C60.0127 67.4946 59.9571 67.541 59.8928 67.572C59.8285 67.603 59.7576 67.6176 59.6862 67.6146ZM56.8422 66.2368L59.4825 66.7047C62.6907 61.7955 62.5173 57.8353 62.2919 56.3058C58.2686 59.9151 57.1023 64.8242 56.8422 66.2541V66.2368Z" fill="black"/>
<path d="M60.0547 74.1313H53.2394L52.2292 65.8381H61.0649L60.0547 74.1313Z" fill="#D9D9D9"/>
<path d="M60.0548 74.5472H53.2438C53.1373 74.548 53.0342 74.5095 52.9542 74.4392C52.8743 74.3689 52.823 74.2716 52.8102 74.1659L51.8001 65.8814C51.792 65.8203 51.7972 65.7581 51.8151 65.6991C51.8331 65.64 51.8634 65.5855 51.9041 65.5391C51.9452 65.4937 51.9953 65.4575 52.0514 65.4328C52.1074 65.4082 52.1681 65.3957 52.2293 65.3962H61.0476C61.1088 65.3957 61.1695 65.4082 61.2255 65.4328C61.2816 65.4575 61.3317 65.4937 61.3728 65.5391C61.4143 65.5851 61.4454 65.6395 61.4641 65.6985C61.4828 65.7576 61.4886 65.82 61.4812 65.8814L60.471 74.1746C60.4567 74.2758 60.4071 74.3687 60.331 74.4368C60.2548 74.505 60.157 74.5441 60.0548 74.5472ZM53.621 73.6806H59.6906L60.5924 66.2541H52.7192L53.621 73.6806Z" fill="black"/>
</svg>
