<svg width="34" height="34" viewBox="0 0 34 34" fill="none" xmlns="http://www.w3.org/2000/svg">
<path d="M5.66667 26.9166C5.4985 26.9167 5.33409 26.8668 5.19423 26.7735C5.05438 26.6801 4.94537 26.5473 4.88101 26.3919C4.81664 26.2365 4.79981 26.0656 4.83264 25.9006C4.86547 25.7357 4.94648 25.5842 5.06544 25.4653L22.0654 8.46535C22.2249 8.30589 22.4412 8.21631 22.6667 8.21631C22.8922 8.21631 23.1084 8.30589 23.2679 8.46535C23.4274 8.6248 23.5169 8.84107 23.5169 9.06658C23.5169 9.29209 23.4274 9.50836 23.2679 9.66781L6.2679 26.6678C6.18893 26.7467 6.09519 26.8093 5.99203 26.852C5.88887 26.8947 5.77831 26.9166 5.66667 26.9166Z" fill="black"/>
<path d="M28.3333 26.9166C28.2217 26.9166 28.1111 26.8947 28.0079 26.852C27.9048 26.8093 27.811 26.7467 27.7321 26.6678L10.7321 9.66781C10.5726 9.50836 10.483 9.29209 10.483 9.06658C10.483 8.84107 10.5726 8.6248 10.7321 8.46535C10.8915 8.30589 11.1078 8.21631 11.3333 8.21631C11.5588 8.21631 11.7751 8.30589 11.9345 8.46535L28.9345 25.4653C29.0535 25.5842 29.1345 25.7357 29.1673 25.9006C29.2002 26.0656 29.1833 26.2365 29.119 26.3919C29.0546 26.5473 28.9456 26.6801 28.8057 26.7735C28.6659 26.8668 28.5015 26.9167 28.3333 26.9166Z" fill="black"/>
<path d="M24.9333 30.3169H9.06665C7.93985 30.3157 6.85954 29.8675 6.06277 29.0707C5.266 28.274 4.81785 27.1937 4.81665 26.0669V10.2002C4.81785 9.07339 5.266 7.99309 6.06277 7.19632C6.85954 6.39955 7.93985 5.9514 9.06665 5.9502H24.9333C26.0601 5.9514 27.1404 6.39955 27.9372 7.19632C28.734 7.99309 29.1821 9.07339 29.1833 10.2002V26.0669C29.1821 27.1937 28.734 28.274 27.9372 29.0707C27.1404 29.8675 26.0601 30.3157 24.9333 30.3169ZM9.06665 7.6502C8.39058 7.65095 7.74241 7.91985 7.26436 8.3979C6.7863 8.87596 6.5174 9.52412 6.51665 10.2002V26.0669C6.5174 26.7429 6.7863 27.3911 7.26436 27.8692C7.74241 28.3472 8.39058 28.6161 9.06665 28.6169H24.9333C25.6094 28.6161 26.2576 28.3472 26.7356 27.8692C27.2137 27.3911 27.4826 26.7429 27.4833 26.0669V10.2002C27.4826 9.52412 27.2137 8.87596 26.7356 8.3979C26.2576 7.91985 25.6094 7.65095 24.9333 7.6502H9.06665Z" fill="black"/>
<path d="M10.2 11.3334C10.1984 10.3045 10.4304 9.2887 10.8785 8.36246C11.3265 7.43622 11.9789 6.62372 12.7864 5.98618C13.594 5.34863 14.5357 4.90266 15.5407 4.68186C16.5456 4.46106 17.5876 4.47119 18.588 4.71147C19.5885 4.95176 20.5213 5.41595 21.3164 6.06907C22.1114 6.72219 22.7479 7.5472 23.1778 8.48198C23.6078 9.41675 23.82 10.4369 23.7985 11.4656C23.777 12.4943 23.5223 13.5046 23.0537 14.4206H23.0633L18.0126 24.3146H18.0075C17.9138 24.5008 17.7702 24.6572 17.5928 24.7665C17.4154 24.8758 17.2112 24.9337 17.0028 24.9337C16.7944 24.9337 16.5901 24.8758 16.4127 24.7665C16.2353 24.6572 16.0918 24.5008 15.9981 24.3146H15.993L10.9423 14.4206H10.9491C10.4578 13.4656 10.201 12.4074 10.2 11.3334ZM17 13.6001C17.4483 13.6001 17.8865 13.4672 18.2593 13.2181C18.632 12.969 18.9225 12.615 19.0941 12.2008C19.2656 11.7867 19.3105 11.3309 19.2231 10.8912C19.1356 10.4515 18.9197 10.0477 18.6027 9.73066C18.2857 9.41366 17.8819 9.19778 17.4422 9.11032C17.0025 9.02286 16.5467 9.06775 16.1325 9.23931C15.7184 9.41087 15.3644 9.70139 15.1153 10.0741C14.8662 10.4469 14.7333 10.8851 14.7333 11.3334C14.7333 11.9346 14.9721 12.5111 15.3972 12.9362C15.8223 13.3613 16.3988 13.6001 17 13.6001Z" fill="#D9D9D9"/>
<path d="M17 25.7831C16.655 25.7833 16.3159 25.6929 16.0167 25.5211C15.7175 25.3493 15.4686 25.102 15.2949 24.8039C15.2719 24.7709 15.2511 24.7364 15.2326 24.7008L10.1824 14.8068C10.166 14.7747 10.1518 14.7416 10.1399 14.7076C9.61867 13.6592 9.34825 12.504 9.34998 11.3331C9.34998 9.3042 10.156 7.35839 11.5906 5.92374C13.0253 4.48909 14.9711 3.68311 17 3.68311C19.0289 3.68311 20.9747 4.48909 22.4094 5.92374C23.844 7.35839 24.65 9.3042 24.65 11.3331C24.6508 12.5051 24.3792 13.6613 23.8567 14.7104C23.8449 14.7435 23.8309 14.7757 23.8147 14.8068L18.7669 24.7008C18.7488 24.7366 18.7282 24.7711 18.7051 24.8039C18.5313 25.1019 18.2824 25.3492 17.9832 25.521C17.684 25.6928 17.345 25.7832 17 25.7831ZM16.7059 23.8479C16.7225 23.8732 16.7378 23.8993 16.7518 23.9261C16.7739 23.9732 16.809 24.0131 16.853 24.041C16.8969 24.0689 16.9479 24.0837 17 24.0837C17.052 24.0837 17.103 24.0689 17.147 24.041C17.1909 24.0131 17.226 23.9732 17.2482 23.9261C17.2624 23.8995 17.2771 23.874 17.2935 23.8491L22.2564 14.1256C22.2682 14.0945 22.2816 14.0641 22.2966 14.0344C22.727 13.1991 22.951 12.2728 22.95 11.3331C22.95 9.75507 22.3231 8.24166 21.2073 7.12582C20.0914 6.00998 18.578 5.38311 17 5.38311C15.4219 5.38311 13.9085 6.00998 12.7927 7.12582C11.6769 8.24166 11.05 9.75507 11.05 11.3331C11.0489 12.2726 11.273 13.1987 11.7034 14.0338C11.7191 14.0643 11.7329 14.0957 11.7447 14.1279L16.7059 23.8479ZM17 14.4498C16.3836 14.4498 15.781 14.267 15.2685 13.9245C14.7559 13.5821 14.3565 13.0953 14.1206 12.5258C13.8847 11.9563 13.8229 11.3296 13.9432 10.7251C14.0635 10.1205 14.3603 9.56516 14.7962 9.12929C15.232 8.69342 15.7874 8.39658 16.392 8.27632C16.9965 8.15607 17.6232 8.21779 18.1927 8.45368C18.7622 8.68957 19.2489 9.08905 19.5914 9.60158C19.9339 10.1141 20.1167 10.7167 20.1167 11.3331C20.1158 12.1594 19.7871 12.9516 19.2028 13.5359C18.6185 14.1202 17.8263 14.4489 17 14.4498ZM17 9.91644C16.7198 9.91644 16.4459 9.99952 16.2129 10.1552C15.98 10.3109 15.7984 10.5321 15.6912 10.791C15.5839 11.0498 15.5559 11.3347 15.6105 11.6095C15.6652 11.8843 15.8001 12.1367 15.9982 12.3348C16.1964 12.533 16.4488 12.6679 16.7236 12.7226C16.9984 12.7772 17.2833 12.7492 17.5421 12.6419C17.801 12.5347 18.0222 12.3531 18.1779 12.1202C18.3336 11.8872 18.4167 11.6133 18.4167 11.3331C18.4167 10.9574 18.2674 10.597 18.0017 10.3314C17.736 10.0657 17.3757 9.91644 17 9.91644Z" fill="black"/>
</svg>
