<svg width="24" height="24" viewBox="0 0 24 24" fill="none" xmlns="http://www.w3.org/2000/svg">
<path d="M12 11C10.723 11 9.50575 11.2 8.40625 11.7C9.05475 13 10.417 14 12 14C13.583 14 14.945 13 15.594 11.7C14.494 11.2 13.277 11 12 11Z" fill="#95A5A6"/>
<path d="M8.4062 12.7002C5.5206 14.0002 3.4281 16.7002 3.0625 20.0002C3.0625 21.1002 3.8954 22.0002 5 22.0002H19C20.105 22.0002 20.938 21.1002 20.938 20.0002C20.572 16.7002 18.479 14.0002 15.594 12.7002C14.945 14.0002 13.583 15.0002 12 15.0002C10.417 15.0002 9.0547 14.0002 8.4062 12.7002Z" fill="black"/>
<path d="M8.4062 11.7002C5.5206 13.0002 3.4281 15.7002 3.0625 19.0002C3.0625 20.1002 3.8954 21.0002 5 21.0002H19C20.105 21.0002 20.938 20.1002 20.938 19.0002C20.572 15.7002 18.479 13.0002 15.594 11.7002C14.945 13.0002 13.583 14.0002 12 14.0002C10.417 14.0002 9.0547 13.0002 8.4062 11.7002Z" fill="black"/>
<path d="M12 11C10.853 11 9.7588 11.232 8.75 11.625C9.6905 12.241 10.797 12.625 12 12.625C13.206 12.625 14.308 12.244 15.25 11.625C14.241 11.232 13.147 11 12 11Z" fill="#7F8C8D"/>
<path d="M17 7C17 8.32608 16.4732 9.59785 15.5355 10.5355C14.5979 11.4732 13.3261 12 12 12C10.6739 12 9.40215 11.4732 8.46447 10.5355C7.52678 9.59785 7 8.32608 7 7C7 5.67392 7.52678 4.40215 8.46447 3.46447C9.40215 2.52678 10.6739 2 12 2C13.3261 2 14.5979 2.52678 15.5355 3.46447C16.4732 4.40215 17 5.67392 17 7Z" fill="#BDC3C7"/>
<path d="M8.4062 11.7002C8.089 11.9002 7.7968 12.0002 7.5 12.2002C8.3153 13.8002 10.041 15.0002 12 15.0002C13.959 15.0002 15.685 13.8002 16.5 12.2002C16.203 12.0002 15.911 11.9002 15.594 11.7002C14.945 13.0002 13.583 14.0002 12 14.0002C10.417 14.0002 9.0547 13.0002 8.4062 11.7002Z" fill="black"/>
</svg>
